{
 "cells": [
  {
   "cell_type": "markdown",
   "metadata": {},
   "source": [
    "attribution : https://www.kaggle.com/wfaria/midi-music-data-extraction-using-music21\n",
    "            , https://web.mit.edu/music21/doc/moduleReference/moduleMidi.html?highlight=parse%20midi%20file#midifile\n",
    "            , https://towardsdatascience.com/how-to-generate-music-using-a-lstm-neural-network-in-keras-68786834d4c5\n",
    "            , https://github.com/corynguyen19/midi-lstm-gan/blob/master/lstm.py"
   ]
  },
  {
   "cell_type": "code",
   "execution_count": 12,
   "metadata": {},
   "outputs": [],
   "source": [
    "from music21 import converter, corpus, instrument, midi, note, chord, pitch\n",
    "import pandas as pd\n",
    "import numpy as np\n",
    "import os"
   ]
  },
  {
   "cell_type": "code",
   "execution_count": 6,
   "metadata": {},
   "outputs": [],
   "source": [
    "mf = midi.MidiFile ()"
   ]
  },
  {
   "cell_type": "code",
   "execution_count": 7,
   "metadata": {},
   "outputs": [],
   "source": [
    "mf.open('midi_sonic/emerald-hill-zone.mid')\n",
    "mf.read()\n",
    "mf.close()"
   ]
  },
  {
   "cell_type": "code",
   "execution_count": 8,
   "metadata": {},
   "outputs": [],
   "source": [
    "sonic = midi.translate.midiFileToStream(mf)"
   ]
  },
  {
   "cell_type": "code",
   "execution_count": 9,
   "metadata": {},
   "outputs": [],
   "source": [
    "def list_instruments(midi):\n",
    "    partStream = midi.parts.stream()\n",
    "    print(\"List of instruments found on MIDI file:\")\n",
    "    for p in partStream:\n",
    "        aux = p\n",
    "        print (p.partName)\n",
    "\n",
    "# list_instruments(sonic)"
   ]
  },
  {
   "cell_type": "code",
   "execution_count": 10,
   "metadata": {},
   "outputs": [],
   "source": [
    "# sonic.plot('scatter', 'offset', 'pitchClass')"
   ]
  },
  {
   "cell_type": "code",
   "execution_count": 11,
   "metadata": {},
   "outputs": [],
   "source": [
    "# for i in range (len(sonic.parts[0])):\n",
    "#    print (sonic.parts[0][i])"
   ]
  },
  {
   "cell_type": "markdown",
   "metadata": {},
   "source": [
    "_note_ :  Concerned that MIDI files would have too much parsed data, instead of single notes / instruments."
   ]
  },
  {
   "cell_type": "code",
   "execution_count": 14,
   "metadata": {},
   "outputs": [],
   "source": [
    "midi = converter.parse('midi_sonic/0edwardscissorhead.mid')\n",
    "notes_to_parse = None\n",
    "parts = instrument.partitionByInstrument(midi)"
   ]
  },
  {
   "cell_type": "markdown",
   "metadata": {},
   "source": [
    "_note_ : The issue concerned above is that traditional MIDI structure (8-bit video games), is based on a flat note structure while modern MIDI structure has multiple tracks (instruments) and channels making parsing more difficult. "
   ]
  },
  {
   "cell_type": "code",
   "execution_count": 15,
   "metadata": {},
   "outputs": [],
   "source": [
    "# flat notes : notes_to_parse = midi.flat.notes"
   ]
  },
  {
   "cell_type": "code",
   "execution_count": 16,
   "metadata": {},
   "outputs": [],
   "source": [
    "notes_to_parse = parts.parts[0].recurse()"
   ]
  },
  {
   "cell_type": "code",
   "execution_count": 17,
   "metadata": {},
   "outputs": [],
   "source": [
    "notes = []"
   ]
  },
  {
   "cell_type": "code",
   "execution_count": 18,
   "metadata": {},
   "outputs": [],
   "source": [
    "# parsing note + chord structure\n",
    "\n",
    "for element in notes_to_parse:\n",
    "        if isinstance(element, note.Note):\n",
    "            notes.append(str(element.pitch))\n",
    "        elif isinstance(element, chord.Chord):\n",
    "            notes.append('.'.join(str(n) for n in element.normalOrder))"
   ]
  },
  {
   "cell_type": "code",
   "execution_count": 19,
   "metadata": {},
   "outputs": [
    {
     "data": {
      "text/plain": [
       "[]"
      ]
     },
     "execution_count": 19,
     "metadata": {},
     "output_type": "execute_result"
    }
   ],
   "source": [
    "notes[:5]"
   ]
  },
  {
   "cell_type": "code",
   "execution_count": 28,
   "metadata": {},
   "outputs": [
    {
     "data": {
      "text/plain": [
       "249"
      ]
     },
     "execution_count": 28,
     "metadata": {},
     "output_type": "execute_result"
    }
   ],
   "source": [
    "len (notes)"
   ]
  },
  {
   "cell_type": "code",
   "execution_count": 29,
   "metadata": {},
   "outputs": [],
   "source": [
    "# grab : https://www.khinsider.com/midi/nes"
   ]
  },
  {
   "cell_type": "code",
   "execution_count": 4,
   "metadata": {},
   "outputs": [],
   "source": [
    "from mido import MidiFile"
   ]
  },
  {
   "cell_type": "code",
   "execution_count": 10,
   "metadata": {},
   "outputs": [],
   "source": [
    "mfile = ('midi_sonic\\0edwardscissorhead.mid')"
   ]
  },
  {
   "cell_type": "code",
   "execution_count": 11,
   "metadata": {},
   "outputs": [
    {
     "ename": "ValueError",
     "evalue": "embedded null character",
     "output_type": "error",
     "traceback": [
      "\u001b[1;31m---------------------------------------------------------------------------\u001b[0m",
      "\u001b[1;31mValueError\u001b[0m                                Traceback (most recent call last)",
      "\u001b[1;32m<ipython-input-11-235bc5cf2e9d>\u001b[0m in \u001b[0;36m<module>\u001b[1;34m\u001b[0m\n\u001b[1;32m----> 1\u001b[1;33m \u001b[0mmid\u001b[0m \u001b[1;33m=\u001b[0m \u001b[0mMidiFile\u001b[0m\u001b[1;33m(\u001b[0m\u001b[0mmfile\u001b[0m\u001b[1;33m)\u001b[0m\u001b[1;33m\u001b[0m\u001b[1;33m\u001b[0m\u001b[0m\n\u001b[0m\u001b[0;32m      2\u001b[0m \u001b[0mmid\u001b[0m\u001b[1;33m\u001b[0m\u001b[1;33m\u001b[0m\u001b[0m\n",
      "\u001b[1;32mC:\\FartherSkies\\Anaconda3\\envs\\midi\\lib\\site-packages\\mido\\midifiles\\midifiles.py\u001b[0m in \u001b[0;36m__init__\u001b[1;34m(self, filename, file, type, ticks_per_beat, charset, debug, clip)\u001b[0m\n\u001b[0;32m    313\u001b[0m             \u001b[0mself\u001b[0m\u001b[1;33m.\u001b[0m\u001b[0m_load\u001b[0m\u001b[1;33m(\u001b[0m\u001b[0mfile\u001b[0m\u001b[1;33m)\u001b[0m\u001b[1;33m\u001b[0m\u001b[1;33m\u001b[0m\u001b[0m\n\u001b[0;32m    314\u001b[0m         \u001b[1;32melif\u001b[0m \u001b[0mself\u001b[0m\u001b[1;33m.\u001b[0m\u001b[0mfilename\u001b[0m \u001b[1;32mis\u001b[0m \u001b[1;32mnot\u001b[0m \u001b[1;32mNone\u001b[0m\u001b[1;33m:\u001b[0m\u001b[1;33m\u001b[0m\u001b[1;33m\u001b[0m\u001b[0m\n\u001b[1;32m--> 315\u001b[1;33m             \u001b[1;32mwith\u001b[0m \u001b[0mio\u001b[0m\u001b[1;33m.\u001b[0m\u001b[0mopen\u001b[0m\u001b[1;33m(\u001b[0m\u001b[0mfilename\u001b[0m\u001b[1;33m,\u001b[0m \u001b[1;34m'rb'\u001b[0m\u001b[1;33m)\u001b[0m \u001b[1;32mas\u001b[0m \u001b[0mfile\u001b[0m\u001b[1;33m:\u001b[0m\u001b[1;33m\u001b[0m\u001b[1;33m\u001b[0m\u001b[0m\n\u001b[0m\u001b[0;32m    316\u001b[0m                 \u001b[0mself\u001b[0m\u001b[1;33m.\u001b[0m\u001b[0m_load\u001b[0m\u001b[1;33m(\u001b[0m\u001b[0mfile\u001b[0m\u001b[1;33m)\u001b[0m\u001b[1;33m\u001b[0m\u001b[1;33m\u001b[0m\u001b[0m\n\u001b[0;32m    317\u001b[0m \u001b[1;33m\u001b[0m\u001b[0m\n",
      "\u001b[1;31mValueError\u001b[0m: embedded null character"
     ]
    }
   ],
   "source": [
    "mid = MidiFile(mfile)\n",
    "mid"
   ]
  },
  {
   "cell_type": "code",
   "execution_count": 6,
   "metadata": {},
   "outputs": [
    {
     "name": "stdout",
     "output_type": "stream",
     "text": [
      "Track 0: \n",
      "<meta message text text='ANOTHER MEGAMAN MIDI BY TANGO- AT TC@FXN.COM' time=0>\n",
      "<meta message set_tempo tempo=750000 time=0>\n",
      "control_change channel=0 control=7 value=100 time=0\n",
      "program_change channel=0 program=35 time=0\n",
      "note_on channel=0 note=76 velocity=120 time=1077\n",
      "note_on channel=0 note=76 velocity=0 time=111\n",
      "note_on channel=0 note=76 velocity=120 time=8\n",
      "note_on channel=0 note=76 velocity=0 time=111\n",
      "note_on channel=0 note=76 velocity=120 time=9\n",
      "note_on channel=0 note=76 velocity=0 time=112\n",
      "note_on channel=0 note=76 velocity=120 time=7\n",
      "note_on channel=0 note=76 velocity=0 time=53\n",
      "note_on channel=0 note=76 velocity=120 time=7\n",
      "note_on channel=0 note=76 velocity=0 time=53\n",
      "note_on channel=0 note=76 velocity=120 time=68\n",
      "note_on channel=0 note=76 velocity=0 time=51\n",
      "note_on channel=0 note=76 velocity=120 time=9\n",
      "note_on channel=0 note=76 velocity=0 time=52\n",
      "note_on channel=0 note=76 velocity=120 time=8\n",
      "note_on channel=0 note=76 velocity=0 time=51\n",
      "note_on channel=0 note=76 velocity=120 time=9\n",
      "note_on channel=0 note=76 velocity=0 time=111\n",
      "note_on channel=0 note=76 velocity=120 time=9\n",
      "note_on channel=0 note=76 velocity=0 time=112\n",
      "note_on channel=0 note=76 velocity=120 time=7\n",
      "note_on channel=0 note=76 velocity=0 time=113\n",
      "note_on channel=0 note=76 velocity=120 time=7\n",
      "note_on channel=0 note=76 velocity=0 time=112\n",
      "note_on channel=0 note=76 velocity=120 time=9\n",
      "note_on channel=0 note=76 velocity=0 time=51\n",
      "note_on channel=0 note=76 velocity=120 time=9\n",
      "note_on channel=0 note=76 velocity=0 time=51\n",
      "note_on channel=0 note=76 velocity=120 time=9\n",
      "note_on channel=0 note=76 velocity=0 time=51\n",
      "note_on channel=0 note=76 velocity=120 time=9\n",
      "note_on channel=0 note=76 velocity=0 time=52\n",
      "note_on channel=0 note=76 velocity=120 time=8\n",
      "note_on channel=0 note=76 velocity=0 time=52\n",
      "note_on channel=0 note=76 velocity=120 time=8\n",
      "note_on channel=0 note=76 velocity=0 time=52\n",
      "note_on channel=0 note=76 velocity=120 time=7\n",
      "note_on channel=0 note=76 velocity=0 time=53\n",
      "note_on channel=0 note=76 velocity=120 time=7\n",
      "note_on channel=0 note=76 velocity=0 time=53\n",
      "note_on channel=0 note=78 velocity=120 time=7\n",
      "note_on channel=0 note=78 velocity=0 time=112\n",
      "note_on channel=0 note=80 velocity=120 time=9\n",
      "note_on channel=0 note=80 velocity=0 time=112\n",
      "note_on channel=0 note=81 velocity=120 time=8\n",
      "note_on channel=0 note=81 velocity=0 time=22\n",
      "note_on channel=0 note=93 velocity=120 time=8\n",
      "note_on channel=0 note=93 velocity=0 time=22\n",
      "note_on channel=0 note=93 velocity=120 time=38\n",
      "note_on channel=0 note=93 velocity=0 time=21\n",
      "note_on channel=0 note=71 velocity=120 time=369\n",
      "note_on channel=0 note=71 velocity=0 time=51\n",
      "note_on channel=0 note=72 velocity=120 time=9\n",
      "note_on channel=0 note=72 velocity=0 time=52\n",
      "note_on channel=0 note=74 velocity=120 time=68\n",
      "note_on channel=0 note=74 velocity=0 time=51\n",
      "note_on channel=0 note=72 velocity=120 time=69\n",
      "note_on channel=0 note=72 velocity=0 time=52\n",
      "note_on channel=0 note=71 velocity=120 time=67\n",
      "note_on channel=0 note=71 velocity=0 time=53\n",
      "note_on channel=0 note=72 velocity=120 time=68\n",
      "note_on channel=0 note=72 velocity=0 time=52\n",
      "note_on channel=0 note=64 velocity=120 time=8\n",
      "note_on channel=0 note=64 velocity=0 time=832\n",
      "note_on channel=0 note=81 velocity=120 time=8\n",
      "note_on channel=0 note=81 velocity=0 time=22\n",
      "note_on channel=0 note=93 velocity=120 time=8\n",
      "note_on channel=0 note=93 velocity=0 time=22\n",
      "note_on channel=0 note=93 velocity=120 time=38\n",
      "note_on channel=0 note=93 velocity=0 time=22\n",
      "note_on channel=0 note=71 velocity=120 time=368\n",
      "note_on channel=0 note=71 velocity=0 time=52\n",
      "note_on channel=0 note=72 velocity=120 time=8\n",
      "note_on channel=0 note=72 velocity=0 time=52\n",
      "note_on channel=0 note=74 velocity=120 time=68\n",
      "note_on channel=0 note=74 velocity=0 time=51\n",
      "note_on channel=0 note=72 velocity=120 time=68\n",
      "note_on channel=0 note=72 velocity=0 time=53\n",
      "note_on channel=0 note=71 velocity=120 time=67\n",
      "note_on channel=0 note=71 velocity=0 time=54\n",
      "note_on channel=0 note=74 velocity=120 time=67\n",
      "note_on channel=0 note=74 velocity=0 time=52\n",
      "note_on channel=0 note=76 velocity=120 time=8\n",
      "note_on channel=0 note=76 velocity=0 time=831\n",
      "note_on channel=0 note=77 velocity=120 time=9\n",
      "note_on channel=0 note=77 velocity=0 time=52\n",
      "note_on channel=0 note=77 velocity=120 time=428\n",
      "note_on channel=0 note=77 velocity=0 time=52\n",
      "note_on channel=0 note=79 velocity=120 time=8\n",
      "note_on channel=0 note=79 velocity=0 time=52\n",
      "note_on channel=0 note=77 velocity=120 time=68\n",
      "note_on channel=0 note=77 velocity=0 time=52\n",
      "note_on channel=0 note=76 velocity=120 time=67\n",
      "note_on channel=0 note=76 velocity=0 time=53\n",
      "note_on channel=0 note=74 velocity=120 time=68\n",
      "note_on channel=0 note=74 velocity=0 time=52\n",
      "note_on channel=0 note=76 velocity=120 time=8\n",
      "note_on channel=0 note=76 velocity=0 time=52\n",
      "note_on channel=0 note=76 velocity=120 time=427\n",
      "note_on channel=0 note=76 velocity=0 time=53\n",
      "note_on channel=0 note=77 velocity=120 time=8\n",
      "note_on channel=0 note=77 velocity=0 time=51\n",
      "note_on channel=0 note=76 velocity=120 time=69\n",
      "note_on channel=0 note=76 velocity=0 time=52\n",
      "note_on channel=0 note=74 velocity=120 time=68\n",
      "note_on channel=0 note=74 velocity=0 time=52\n",
      "note_on channel=0 note=72 velocity=120 time=68\n",
      "note_on channel=0 note=72 velocity=0 time=52\n",
      "note_on channel=0 note=75 velocity=120 time=8\n",
      "note_on channel=0 note=75 velocity=0 time=112\n",
      "note_on channel=0 note=71 velocity=120 time=248\n",
      "note_on channel=0 note=71 velocity=0 time=232\n",
      "note_on channel=0 note=71 velocity=120 time=8\n",
      "note_on channel=0 note=71 velocity=0 time=112\n",
      "note_on channel=0 note=73 velocity=120 time=7\n",
      "note_on channel=0 note=73 velocity=0 time=113\n",
      "note_on channel=0 note=75 velocity=120 time=8\n",
      "note_on channel=0 note=75 velocity=0 time=112\n",
      "note_on channel=0 note=76 velocity=120 time=8\n",
      "note_on channel=0 note=76 velocity=0 time=952\n",
      "note_on channel=0 note=81 velocity=120 time=7\n",
      "note_on channel=0 note=81 velocity=0 time=23\n",
      "note_on channel=0 note=93 velocity=120 time=7\n",
      "note_on channel=0 note=93 velocity=0 time=23\n",
      "note_on channel=0 note=93 velocity=120 time=38\n",
      "note_on channel=0 note=93 velocity=0 time=22\n",
      "note_on channel=0 note=71 velocity=120 time=368\n",
      "note_on channel=0 note=71 velocity=0 time=52\n",
      "note_on channel=0 note=72 velocity=120 time=7\n",
      "note_on channel=0 note=72 velocity=0 time=53\n",
      "note_on channel=0 note=74 velocity=120 time=67\n",
      "note_on channel=0 note=74 velocity=0 time=53\n",
      "note_on channel=0 note=72 velocity=120 time=68\n",
      "note_on channel=0 note=72 velocity=0 time=52\n",
      "note_on channel=0 note=71 velocity=120 time=68\n",
      "note_on channel=0 note=71 velocity=0 time=52\n",
      "note_on channel=0 note=72 velocity=120 time=68\n",
      "note_on channel=0 note=72 velocity=0 time=52\n",
      "note_on channel=0 note=64 velocity=120 time=8\n",
      "note_on channel=0 note=64 velocity=0 time=832\n",
      "note_on channel=0 note=81 velocity=120 time=7\n",
      "note_on channel=0 note=81 velocity=0 time=23\n",
      "note_on channel=0 note=93 velocity=120 time=7\n",
      "note_on channel=0 note=93 velocity=0 time=23\n",
      "note_on channel=0 note=93 velocity=120 time=38\n",
      "note_on channel=0 note=93 velocity=0 time=22\n",
      "note_on channel=0 note=71 velocity=120 time=367\n",
      "note_on channel=0 note=71 velocity=0 time=53\n",
      "note_on channel=0 note=72 velocity=120 time=7\n",
      "note_on channel=0 note=72 velocity=0 time=53\n",
      "note_on channel=0 note=74 velocity=120 time=68\n",
      "note_on channel=0 note=74 velocity=0 time=52\n",
      "note_on channel=0 note=72 velocity=120 time=68\n",
      "note_on channel=0 note=72 velocity=0 time=51\n",
      "note_on channel=0 note=71 velocity=120 time=69\n",
      "note_on channel=0 note=71 velocity=0 time=52\n",
      "note_on channel=0 note=74 velocity=120 time=68\n",
      "note_on channel=0 note=74 velocity=0 time=52\n",
      "note_on channel=0 note=76 velocity=120 time=7\n",
      "note_on channel=0 note=76 velocity=0 time=833\n",
      "note_on channel=0 note=77 velocity=120 time=8\n",
      "note_on channel=0 note=77 velocity=0 time=52\n",
      "note_on channel=0 note=77 velocity=120 time=427\n",
      "note_on channel=0 note=77 velocity=0 time=54\n",
      "note_on channel=0 note=79 velocity=120 time=7\n",
      "note_on channel=0 note=79 velocity=0 time=53\n",
      "note_on channel=0 note=77 velocity=120 time=67\n",
      "note_on channel=0 note=77 velocity=0 time=51\n",
      "note_on channel=0 note=76 velocity=120 time=69\n",
      "note_on channel=0 note=76 velocity=0 time=52\n",
      "note_on channel=0 note=74 velocity=120 time=68\n",
      "note_on channel=0 note=74 velocity=0 time=52\n",
      "note_on channel=0 note=76 velocity=120 time=8\n",
      "note_on channel=0 note=76 velocity=0 time=52\n",
      "note_on channel=0 note=76 velocity=120 time=428\n",
      "note_on channel=0 note=76 velocity=0 time=52\n",
      "note_on channel=0 note=77 velocity=120 time=8\n",
      "note_on channel=0 note=77 velocity=0 time=51\n",
      "note_on channel=0 note=76 velocity=120 time=68\n",
      "note_on channel=0 note=76 velocity=0 time=53\n",
      "note_on channel=0 note=74 velocity=120 time=67\n",
      "note_on channel=0 note=74 velocity=0 time=53\n",
      "note_on channel=0 note=72 velocity=120 time=68\n",
      "note_on channel=0 note=72 velocity=0 time=52\n",
      "note_on channel=0 note=71 velocity=120 time=8\n",
      "note_on channel=0 note=71 velocity=0 time=112\n",
      "note_on channel=0 note=69 velocity=120 time=247\n",
      "note_on channel=0 note=69 velocity=0 time=233\n",
      "note_on channel=0 note=68 velocity=120 time=8\n",
      "note_on channel=0 note=68 velocity=0 time=112\n",
      "note_on channel=0 note=66 velocity=120 time=8\n",
      "note_on channel=0 note=66 velocity=0 time=112\n",
      "note_on channel=0 note=68 velocity=120 time=8\n",
      "note_on channel=0 note=68 velocity=0 time=112\n",
      "note_on channel=0 note=69 velocity=120 time=7\n",
      "note_on channel=0 note=69 velocity=0 time=473\n",
      "note_on channel=0 note=57 velocity=120 time=8\n",
      "note_on channel=0 note=57 velocity=0 time=9\n",
      "note_on channel=0 note=57 velocity=120 time=1\n",
      "note_on channel=0 note=57 velocity=0 time=2\n",
      "note_on channel=0 note=59 velocity=120 time=10\n",
      "note_on channel=0 note=59 velocity=0 time=8\n",
      "note_on channel=0 note=60 velocity=120 time=9\n",
      "note_on channel=0 note=60 velocity=0 time=13\n",
      "note_on channel=0 note=61 velocity=120 time=8\n",
      "note_on channel=0 note=61 velocity=0 time=9\n",
      "note_on channel=0 note=62 velocity=120 time=13\n",
      "note_on channel=0 note=62 velocity=0 time=8\n",
      "note_on channel=0 note=63 velocity=120 time=10\n",
      "note_on channel=0 note=63 velocity=0 time=12\n",
      "note_on channel=0 note=64 velocity=120 time=7\n",
      "note_on channel=0 note=64 velocity=0 time=11\n",
      "note_on channel=0 note=65 velocity=120 time=13\n",
      "note_on channel=0 note=65 velocity=0 time=6\n",
      "note_on channel=0 note=66 velocity=120 time=11\n",
      "note_on channel=0 note=66 velocity=0 time=13\n",
      "note_on channel=0 note=67 velocity=120 time=6\n",
      "note_on channel=0 note=67 velocity=0 time=11\n",
      "note_on channel=0 note=68 velocity=120 time=13\n",
      "note_on channel=0 note=68 velocity=0 time=6\n",
      "note_on channel=0 note=69 velocity=120 time=11\n",
      "note_on channel=0 note=69 velocity=0 time=13\n",
      "note_on channel=0 note=70 velocity=120 time=6\n",
      "note_on channel=0 note=70 velocity=0 time=11\n",
      "note_on channel=0 note=71 velocity=120 time=12\n",
      "note_on channel=0 note=71 velocity=0 time=8\n",
      "note_on channel=0 note=72 velocity=120 time=10\n",
      "note_on channel=0 note=72 velocity=0 time=13\n",
      "note_on channel=0 note=73 velocity=120 time=7\n",
      "note_on channel=0 note=73 velocity=0 time=10\n",
      "note_on channel=0 note=74 velocity=120 time=12\n",
      "note_on channel=0 note=74 velocity=0 time=8\n",
      "note_on channel=0 note=75 velocity=120 time=10\n",
      "note_on channel=0 note=75 velocity=0 time=11\n",
      "note_on channel=0 note=76 velocity=120 time=9\n",
      "note_on channel=0 note=76 velocity=0 time=10\n",
      "note_on channel=0 note=77 velocity=120 time=12\n",
      "note_on channel=0 note=77 velocity=0 time=8\n",
      "note_on channel=0 note=78 velocity=120 time=10\n",
      "note_on channel=0 note=78 velocity=0 time=11\n",
      "note_on channel=0 note=79 velocity=120 time=9\n",
      "note_on channel=0 note=79 velocity=0 time=10\n",
      "note_on channel=0 note=80 velocity=120 time=12\n",
      "note_on channel=0 note=80 velocity=0 time=8\n",
      "note_on channel=0 note=81 velocity=120 time=10\n",
      "note_on channel=0 note=81 velocity=0 time=13\n",
      "note_on channel=0 note=81 velocity=120 time=7\n",
      "note_on channel=0 note=81 velocity=0 time=472\n",
      "note_on channel=0 note=83 velocity=120 time=128\n",
      "note_on channel=0 note=83 velocity=0 time=232\n",
      "note_on channel=0 note=81 velocity=120 time=8\n",
      "note_on channel=0 note=81 velocity=0 time=112\n",
      "note_on channel=0 note=79 velocity=120 time=7\n",
      "note_on channel=0 note=79 velocity=0 time=953\n",
      "note_on channel=0 note=77 velocity=120 time=8\n",
      "note_on channel=0 note=77 velocity=0 time=471\n",
      "note_on channel=0 note=79 velocity=120 time=129\n",
      "note_on channel=0 note=79 velocity=0 time=232\n",
      "note_on channel=0 note=77 velocity=120 time=7\n",
      "note_on channel=0 note=77 velocity=0 time=114\n",
      "note_on channel=0 note=76 velocity=120 time=7\n",
      "note_on channel=0 note=76 velocity=0 time=112\n",
      "note_on channel=0 note=77 velocity=120 time=8\n",
      "note_on channel=0 note=77 velocity=0 time=112\n",
      "note_on channel=0 note=78 velocity=120 time=8\n",
      "note_on channel=0 note=78 velocity=0 time=112\n",
      "note_on channel=0 note=79 velocity=120 time=8\n",
      "note_on channel=0 note=79 velocity=0 time=112\n",
      "note_on channel=0 note=81 velocity=120 time=488\n",
      "note_on channel=0 note=81 velocity=0 time=472\n",
      "note_on channel=0 note=83 velocity=120 time=128\n",
      "note_on channel=0 note=83 velocity=0 time=232\n",
      "note_on channel=0 note=81 velocity=120 time=7\n",
      "note_on channel=0 note=81 velocity=0 time=113\n",
      "note_on channel=0 note=79 velocity=120 time=8\n",
      "note_on channel=0 note=79 velocity=0 time=112\n",
      "note_on channel=0 note=79 velocity=120 time=8\n",
      "note_on channel=0 note=79 velocity=0 time=112\n",
      "note_on channel=0 note=86 velocity=120 time=8\n",
      "note_on channel=0 note=86 velocity=0 time=112\n",
      "note_on channel=0 note=84 velocity=120 time=7\n",
      "note_on channel=0 note=84 velocity=0 time=353\n",
      "note_on channel=0 note=81 velocity=120 time=248\n",
      "note_on channel=0 note=81 velocity=0 time=52\n",
      "note_on channel=0 note=81 velocity=120 time=7\n",
      "note_on channel=0 note=81 velocity=0 time=53\n",
      "note_on channel=0 note=81 velocity=120 time=67\n",
      "note_on channel=0 note=81 velocity=0 time=52\n",
      "note_on channel=0 note=81 velocity=120 time=9\n",
      "note_on channel=0 note=81 velocity=0 time=52\n",
      "note_on channel=0 note=81 velocity=120 time=8\n",
      "note_on channel=0 note=81 velocity=0 time=52\n",
      "note_on channel=0 note=81 velocity=120 time=8\n",
      "note_on channel=0 note=81 velocity=0 time=52\n",
      "note_on channel=0 note=81 velocity=120 time=68\n",
      "note_on channel=0 note=81 velocity=0 time=52\n",
      "note_on channel=0 note=81 velocity=120 time=8\n",
      "note_on channel=0 note=81 velocity=0 time=111\n",
      "note_on channel=0 note=81 velocity=120 time=9\n",
      "note_on channel=0 note=81 velocity=0 time=52\n",
      "note_on channel=0 note=83 velocity=120 time=8\n",
      "note_on channel=0 note=83 velocity=0 time=111\n",
      "note_on channel=0 note=81 velocity=120 time=9\n",
      "note_on channel=0 note=81 velocity=0 time=592\n",
      "note_on channel=0 note=80 velocity=120 time=8\n",
      "note_on channel=0 note=80 velocity=0 time=473\n",
      "note_on channel=0 note=81 velocity=120 time=6\n",
      "note_on channel=0 note=81 velocity=0 time=23\n",
      "note_on channel=0 note=93 velocity=120 time=7\n",
      "note_on channel=0 note=93 velocity=0 time=23\n",
      "note_on channel=0 note=93 velocity=120 time=37\n",
      "note_on channel=0 note=93 velocity=0 time=24\n",
      "note_on channel=0 note=71 velocity=120 time=367\n",
      "note_on channel=0 note=71 velocity=0 time=52\n",
      "note_on channel=0 note=72 velocity=120 time=7\n",
      "note_on channel=0 note=72 velocity=0 time=53\n",
      "note_on channel=0 note=74 velocity=120 time=67\n",
      "note_on channel=0 note=74 velocity=0 time=53\n",
      "note_on channel=0 note=72 velocity=120 time=68\n",
      "note_on channel=0 note=72 velocity=0 time=52\n",
      "note_on channel=0 note=71 velocity=120 time=68\n",
      "note_on channel=0 note=71 velocity=0 time=52\n",
      "note_on channel=0 note=72 velocity=120 time=68\n",
      "note_on channel=0 note=72 velocity=0 time=52\n",
      "note_on channel=0 note=64 velocity=120 time=8\n",
      "note_on channel=0 note=64 velocity=0 time=832\n",
      "note_on channel=0 note=81 velocity=120 time=7\n",
      "note_on channel=0 note=81 velocity=0 time=23\n",
      "note_on channel=0 note=93 velocity=120 time=7\n",
      "note_on channel=0 note=93 velocity=0 time=23\n",
      "note_on channel=0 note=93 velocity=120 time=38\n",
      "note_on channel=0 note=93 velocity=0 time=22\n",
      "note_on channel=0 note=71 velocity=120 time=367\n",
      "note_on channel=0 note=71 velocity=0 time=53\n",
      "note_on channel=0 note=72 velocity=120 time=7\n",
      "note_on channel=0 note=72 velocity=0 time=54\n",
      "note_on channel=0 note=74 velocity=120 time=67\n",
      "note_on channel=0 note=74 velocity=0 time=52\n",
      "note_on channel=0 note=72 velocity=120 time=68\n",
      "note_on channel=0 note=72 velocity=0 time=52\n",
      "note_on channel=0 note=71 velocity=120 time=68\n",
      "note_on channel=0 note=71 velocity=0 time=52\n",
      "note_on channel=0 note=74 velocity=120 time=68\n",
      "note_on channel=0 note=74 velocity=0 time=52\n",
      "note_on channel=0 note=76 velocity=120 time=7\n",
      "note_on channel=0 note=76 velocity=0 time=833\n",
      "note_on channel=0 note=77 velocity=120 time=8\n",
      "note_on channel=0 note=77 velocity=0 time=52\n",
      "note_on channel=0 note=77 velocity=120 time=427\n",
      "note_on channel=0 note=77 velocity=0 time=53\n",
      "note_on channel=0 note=79 velocity=120 time=7\n",
      "note_on channel=0 note=79 velocity=0 time=54\n",
      "note_on channel=0 note=77 velocity=120 time=67\n",
      "note_on channel=0 note=77 velocity=0 time=52\n",
      "note_on channel=0 note=76 velocity=120 time=68\n",
      "note_on channel=0 note=76 velocity=0 time=52\n",
      "note_on channel=0 note=74 velocity=120 time=68\n",
      "note_on channel=0 note=74 velocity=0 time=52\n",
      "note_on channel=0 note=76 velocity=120 time=8\n",
      "note_on channel=0 note=76 velocity=0 time=52\n",
      "note_on channel=0 note=76 velocity=120 time=428\n",
      "note_on channel=0 note=76 velocity=0 time=52\n",
      "note_on channel=0 note=77 velocity=120 time=8\n",
      "note_on channel=0 note=77 velocity=0 time=52\n",
      "note_on channel=0 note=76 velocity=120 time=67\n",
      "note_on channel=0 note=76 velocity=0 time=54\n",
      "note_on channel=0 note=74 velocity=120 time=66\n",
      "note_on channel=0 note=74 velocity=0 time=53\n",
      "note_on channel=0 note=72 velocity=120 time=68\n",
      "note_on channel=0 note=72 velocity=0 time=52\n",
      "note_on channel=0 note=75 velocity=120 time=8\n",
      "note_on channel=0 note=75 velocity=0 time=111\n",
      "note_on channel=0 note=71 velocity=120 time=248\n",
      "note_on channel=0 note=71 velocity=0 time=232\n",
      "note_on channel=0 note=71 velocity=120 time=9\n",
      "note_on channel=0 note=71 velocity=0 time=112\n",
      "note_on channel=0 note=73 velocity=120 time=8\n",
      "note_on channel=0 note=73 velocity=0 time=112\n",
      "note_on channel=0 note=75 velocity=120 time=8\n",
      "note_on channel=0 note=75 velocity=0 time=112\n",
      "note_on channel=0 note=76 velocity=120 time=7\n",
      "note_on channel=0 note=76 velocity=0 time=953\n",
      "note_on channel=0 note=81 velocity=120 time=8\n",
      "note_on channel=0 note=81 velocity=0 time=21\n",
      "note_on channel=0 note=93 velocity=120 time=9\n",
      "note_on channel=0 note=93 velocity=0 time=22\n",
      "note_on channel=0 note=93 velocity=120 time=38\n",
      "note_on channel=0 note=93 velocity=0 time=22\n",
      "note_on channel=0 note=71 velocity=120 time=368\n",
      "note_on channel=0 note=71 velocity=0 time=52\n",
      "note_on channel=0 note=72 velocity=120 time=8\n",
      "note_on channel=0 note=72 velocity=0 time=52\n",
      "note_on channel=0 note=74 velocity=120 time=68\n",
      "note_on channel=0 note=74 velocity=0 time=52\n",
      "note_on channel=0 note=72 velocity=120 time=68\n",
      "note_on channel=0 note=72 velocity=0 time=52\n",
      "note_on channel=0 note=71 velocity=120 time=67\n",
      "note_on channel=0 note=71 velocity=0 time=54\n",
      "note_on channel=0 note=72 velocity=120 time=67\n",
      "note_on channel=0 note=72 velocity=0 time=51\n",
      "note_on channel=0 note=64 velocity=120 time=9\n",
      "note_on channel=0 note=64 velocity=0 time=832\n",
      "note_on channel=0 note=81 velocity=120 time=8\n",
      "note_on channel=0 note=81 velocity=0 time=22\n",
      "note_on channel=0 note=93 velocity=120 time=8\n",
      "note_on channel=0 note=93 velocity=0 time=22\n",
      "note_on channel=0 note=93 velocity=120 time=38\n",
      "note_on channel=0 note=93 velocity=0 time=22\n",
      "note_on channel=0 note=71 velocity=120 time=368\n",
      "note_on channel=0 note=71 velocity=0 time=52\n",
      "note_on channel=0 note=72 velocity=120 time=8\n",
      "note_on channel=0 note=72 velocity=0 time=51\n",
      "note_on channel=0 note=74 velocity=120 time=69\n",
      "note_on channel=0 note=74 velocity=0 time=52\n",
      "note_on channel=0 note=72 velocity=120 time=67\n",
      "note_on channel=0 note=72 velocity=0 time=53\n",
      "note_on channel=0 note=71 velocity=120 time=67\n",
      "note_on channel=0 note=71 velocity=0 time=53\n",
      "note_on channel=0 note=74 velocity=120 time=68\n",
      "note_on channel=0 note=74 velocity=0 time=52\n",
      "note_on channel=0 note=76 velocity=120 time=8\n",
      "note_on channel=0 note=76 velocity=0 time=832\n",
      "note_on channel=0 note=77 velocity=120 time=8\n",
      "note_on channel=0 note=77 velocity=0 time=52\n",
      "note_on channel=0 note=77 velocity=120 time=428\n",
      "note_on channel=0 note=77 velocity=0 time=52\n",
      "note_on channel=0 note=79 velocity=120 time=8\n",
      "note_on channel=0 note=79 velocity=0 time=52\n",
      "note_on channel=0 note=77 velocity=120 time=68\n",
      "note_on channel=0 note=77 velocity=0 time=52\n",
      "note_on channel=0 note=76 velocity=120 time=67\n",
      "note_on channel=0 note=76 velocity=0 time=53\n",
      "note_on channel=0 note=74 velocity=120 time=68\n",
      "note_on channel=0 note=74 velocity=0 time=52\n",
      "note_on channel=0 note=76 velocity=120 time=8\n",
      "note_on channel=0 note=76 velocity=0 time=52\n",
      "note_on channel=0 note=76 velocity=120 time=427\n",
      "note_on channel=0 note=76 velocity=0 time=54\n",
      "note_on channel=0 note=77 velocity=120 time=7\n",
      "note_on channel=0 note=77 velocity=0 time=52\n",
      "note_on channel=0 note=76 velocity=120 time=68\n",
      "note_on channel=0 note=76 velocity=0 time=51\n",
      "note_on channel=0 note=74 velocity=120 time=69\n",
      "note_on channel=0 note=74 velocity=0 time=52\n",
      "note_on channel=0 note=72 velocity=120 time=68\n",
      "note_on channel=0 note=72 velocity=0 time=52\n",
      "note_on channel=0 note=71 velocity=120 time=8\n",
      "note_on channel=0 note=71 velocity=0 time=112\n",
      "note_on channel=0 note=69 velocity=120 time=248\n",
      "note_on channel=0 note=69 velocity=0 time=232\n",
      "note_on channel=0 note=68 velocity=120 time=8\n",
      "note_on channel=0 note=68 velocity=0 time=112\n",
      "note_on channel=0 note=66 velocity=120 time=7\n",
      "note_on channel=0 note=66 velocity=0 time=113\n",
      "note_on channel=0 note=68 velocity=120 time=8\n",
      "note_on channel=0 note=68 velocity=0 time=112\n",
      "note_on channel=0 note=69 velocity=120 time=8\n",
      "note_on channel=0 note=69 velocity=0 time=473\n",
      "note_on channel=0 note=57 velocity=120 time=7\n",
      "note_on channel=0 note=57 velocity=0 time=10\n",
      "note_on channel=0 note=57 velocity=120 time=0\n",
      "note_on channel=0 note=57 velocity=0 time=2\n",
      "note_on channel=0 note=59 velocity=120 time=9\n",
      "note_on channel=0 note=59 velocity=0 time=9\n",
      "note_on channel=0 note=60 velocity=120 time=10\n",
      "note_on channel=0 note=60 velocity=0 time=12\n",
      "note_on channel=0 note=61 velocity=120 time=8\n",
      "note_on channel=0 note=61 velocity=0 time=10\n",
      "note_on channel=0 note=62 velocity=120 time=12\n",
      "note_on channel=0 note=62 velocity=0 time=8\n",
      "note_on channel=0 note=63 velocity=120 time=10\n",
      "note_on channel=0 note=63 velocity=0 time=12\n",
      "note_on channel=0 note=64 velocity=120 time=8\n",
      "note_on channel=0 note=64 velocity=0 time=10\n",
      "note_on channel=0 note=65 velocity=120 time=12\n",
      "note_on channel=0 note=65 velocity=0 time=8\n",
      "note_on channel=0 note=66 velocity=120 time=10\n",
      "note_on channel=0 note=66 velocity=0 time=11\n",
      "note_on channel=0 note=67 velocity=120 time=9\n",
      "note_on channel=0 note=67 velocity=0 time=10\n",
      "note_on channel=0 note=68 velocity=120 time=12\n",
      "note_on channel=0 note=68 velocity=0 time=8\n",
      "note_on channel=0 note=69 velocity=120 time=9\n",
      "note_on channel=0 note=69 velocity=0 time=13\n",
      "note_on channel=0 note=70 velocity=120 time=8\n",
      "note_on channel=0 note=70 velocity=0 time=9\n",
      "note_on channel=0 note=71 velocity=120 time=13\n",
      "note_on channel=0 note=71 velocity=0 time=8\n",
      "note_on channel=0 note=72 velocity=120 time=9\n",
      "note_on channel=0 note=72 velocity=0 time=13\n",
      "note_on channel=0 note=73 velocity=120 time=8\n",
      "note_on channel=0 note=73 velocity=0 time=10\n",
      "note_on channel=0 note=74 velocity=120 time=12\n",
      "note_on channel=0 note=74 velocity=0 time=9\n",
      "note_on channel=0 note=75 velocity=120 time=8\n",
      "note_on channel=0 note=75 velocity=0 time=13\n",
      "note_on channel=0 note=76 velocity=120 time=8\n",
      "note_on channel=0 note=76 velocity=0 time=10\n",
      "note_on channel=0 note=77 velocity=120 time=12\n",
      "note_on channel=0 note=77 velocity=0 time=8\n",
      "note_on channel=0 note=78 velocity=120 time=10\n",
      "note_on channel=0 note=78 velocity=0 time=12\n",
      "note_on channel=0 note=79 velocity=120 time=7\n",
      "note_on channel=0 note=79 velocity=0 time=11\n",
      "note_on channel=0 note=80 velocity=120 time=12\n",
      "note_on channel=0 note=80 velocity=0 time=7\n",
      "note_on channel=0 note=81 velocity=120 time=11\n",
      "note_on channel=0 note=81 velocity=0 time=13\n",
      "note_on channel=0 note=81 velocity=120 time=6\n",
      "note_on channel=0 note=81 velocity=0 time=473\n",
      "note_on channel=0 note=83 velocity=120 time=128\n",
      "note_on channel=0 note=83 velocity=0 time=232\n",
      "note_on channel=0 note=81 velocity=120 time=8\n",
      "note_on channel=0 note=81 velocity=0 time=112\n",
      "note_on channel=0 note=79 velocity=120 time=8\n",
      "note_on channel=0 note=79 velocity=0 time=952\n",
      "note_on channel=0 note=77 velocity=120 time=7\n",
      "note_on channel=0 note=77 velocity=0 time=473\n",
      "note_on channel=0 note=79 velocity=120 time=127\n",
      "note_on channel=0 note=79 velocity=0 time=233\n",
      "note_on channel=0 note=77 velocity=120 time=8\n",
      "note_on channel=0 note=77 velocity=0 time=111\n",
      "note_on channel=0 note=76 velocity=120 time=9\n",
      "note_on channel=0 note=76 velocity=0 time=112\n",
      "note_on channel=0 note=77 velocity=120 time=7\n",
      "note_on channel=0 note=77 velocity=0 time=113\n",
      "note_on channel=0 note=78 velocity=120 time=7\n",
      "note_on channel=0 note=78 velocity=0 time=112\n",
      "note_on channel=0 note=79 velocity=120 time=9\n",
      "note_on channel=0 note=79 velocity=0 time=111\n",
      "note_on channel=0 note=81 velocity=120 time=489\n",
      "note_on channel=0 note=81 velocity=0 time=472\n",
      "note_on channel=0 note=83 velocity=120 time=128\n",
      "note_on channel=0 note=83 velocity=0 time=232\n",
      "note_on channel=0 note=81 velocity=120 time=8\n",
      "note_on channel=0 note=81 velocity=0 time=112\n",
      "note_on channel=0 note=79 velocity=120 time=8\n",
      "note_on channel=0 note=79 velocity=0 time=112\n",
      "note_on channel=0 note=79 velocity=120 time=7\n",
      "note_on channel=0 note=79 velocity=0 time=114\n",
      "note_on channel=0 note=86 velocity=120 time=7\n",
      "note_on channel=0 note=86 velocity=0 time=112\n",
      "note_on channel=0 note=84 velocity=120 time=8\n",
      "note_on channel=0 note=84 velocity=0 time=351\n",
      "note_on channel=0 note=81 velocity=120 time=249\n",
      "note_on channel=0 note=81 velocity=0 time=52\n",
      "note_on channel=0 note=81 velocity=120 time=8\n",
      "note_on channel=0 note=81 velocity=0 time=52\n",
      "note_on channel=0 note=81 velocity=120 time=68\n",
      "note_on channel=0 note=81 velocity=0 time=52\n",
      "note_on channel=0 note=81 velocity=120 time=8\n",
      "note_on channel=0 note=81 velocity=0 time=52\n",
      "note_on channel=0 note=81 velocity=120 time=8\n",
      "note_on channel=0 note=81 velocity=0 time=52\n",
      "note_on channel=0 note=81 velocity=120 time=7\n",
      "note_on channel=0 note=81 velocity=0 time=53\n",
      "note_on channel=0 note=81 velocity=120 time=67\n",
      "note_on channel=0 note=81 velocity=0 time=53\n",
      "note_on channel=0 note=81 velocity=120 time=8\n",
      "note_on channel=0 note=81 velocity=0 time=112\n",
      "note_on channel=0 note=81 velocity=120 time=8\n",
      "note_on channel=0 note=81 velocity=0 time=52\n",
      "note_on channel=0 note=83 velocity=120 time=8\n",
      "note_on channel=0 note=83 velocity=0 time=112\n",
      "note_on channel=0 note=81 velocity=120 time=8\n",
      "note_on channel=0 note=81 velocity=0 time=592\n",
      "note_on channel=0 note=80 velocity=120 time=8\n",
      "note_on channel=0 note=80 velocity=0 time=472\n",
      "note_on channel=0 note=81 velocity=120 time=8\n",
      "note_on channel=0 note=81 velocity=0 time=22\n",
      "note_on channel=0 note=93 velocity=120 time=8\n",
      "note_on channel=0 note=93 velocity=0 time=22\n",
      "note_on channel=0 note=93 velocity=120 time=38\n",
      "note_on channel=0 note=93 velocity=0 time=22\n",
      "note_on channel=0 note=71 velocity=120 time=368\n",
      "note_on channel=0 note=71 velocity=0 time=52\n",
      "note_on channel=0 note=72 velocity=120 time=8\n",
      "note_on channel=0 note=72 velocity=0 time=51\n",
      "note_on channel=0 note=74 velocity=120 time=69\n",
      "note_on channel=0 note=74 velocity=0 time=52\n",
      "note_on channel=0 note=72 velocity=120 time=68\n",
      "note_on channel=0 note=72 velocity=0 time=51\n",
      "note_on channel=0 note=71 velocity=120 time=68\n",
      "note_on channel=0 note=71 velocity=0 time=53\n",
      "note_on channel=0 note=72 velocity=120 time=68\n",
      "note_on channel=0 note=72 velocity=0 time=52\n",
      "note_on channel=0 note=64 velocity=120 time=8\n",
      "note_on channel=0 note=64 velocity=0 time=832\n",
      "note_on channel=0 note=81 velocity=120 time=8\n",
      "note_on channel=0 note=81 velocity=0 time=22\n",
      "note_on channel=0 note=93 velocity=120 time=8\n",
      "note_on channel=0 note=93 velocity=0 time=22\n",
      "note_on channel=0 note=93 velocity=120 time=38\n",
      "note_on channel=0 note=93 velocity=0 time=22\n",
      "note_on channel=0 note=71 velocity=120 time=368\n",
      "note_on channel=0 note=71 velocity=0 time=52\n",
      "note_on channel=0 note=72 velocity=120 time=8\n",
      "note_on channel=0 note=72 velocity=0 time=52\n",
      "note_on channel=0 note=74 velocity=120 time=68\n",
      "note_on channel=0 note=74 velocity=0 time=52\n",
      "note_on channel=0 note=72 velocity=120 time=67\n",
      "note_on channel=0 note=72 velocity=0 time=53\n",
      "note_on channel=0 note=71 velocity=120 time=67\n",
      "note_on channel=0 note=71 velocity=0 time=53\n",
      "note_on channel=0 note=74 velocity=120 time=68\n",
      "note_on channel=0 note=74 velocity=0 time=52\n",
      "note_on channel=0 note=76 velocity=120 time=8\n",
      "note_on channel=0 note=76 velocity=0 time=832\n",
      "note_on channel=0 note=77 velocity=120 time=8\n",
      "note_on channel=0 note=77 velocity=0 time=52\n",
      "note_on channel=0 note=77 velocity=120 time=428\n",
      "note_on channel=0 note=77 velocity=0 time=52\n",
      "note_on channel=0 note=79 velocity=120 time=9\n",
      "note_on channel=0 note=79 velocity=0 time=51\n",
      "note_on channel=0 note=77 velocity=120 time=68\n",
      "note_on channel=0 note=77 velocity=0 time=51\n",
      "note_on channel=0 note=76 velocity=120 time=68\n",
      "note_on channel=0 note=76 velocity=0 time=53\n",
      "note_on channel=0 note=74 velocity=120 time=68\n",
      "note_on channel=0 note=74 velocity=0 time=51\n",
      "note_on channel=0 note=76 velocity=120 time=9\n",
      "note_on channel=0 note=76 velocity=0 time=52\n",
      "note_on channel=0 note=76 velocity=120 time=427\n",
      "note_on channel=0 note=76 velocity=0 time=53\n",
      "note_on channel=0 note=77 velocity=120 time=8\n",
      "note_on channel=0 note=77 velocity=0 time=51\n",
      "note_on channel=0 note=76 velocity=120 time=69\n",
      "note_on channel=0 note=76 velocity=0 time=52\n",
      "note_on channel=0 note=74 velocity=120 time=68\n",
      "note_on channel=0 note=74 velocity=0 time=53\n",
      "note_on channel=0 note=72 velocity=120 time=67\n",
      "note_on channel=0 note=72 velocity=0 time=52\n",
      "note_on channel=0 note=75 velocity=120 time=8\n",
      "note_on channel=0 note=75 velocity=0 time=112\n",
      "note_on channel=0 note=71 velocity=120 time=248\n",
      "note_on channel=0 note=71 velocity=0 time=232\n",
      "note_on channel=0 note=71 velocity=120 time=8\n",
      "note_on channel=0 note=71 velocity=0 time=112\n",
      "note_on channel=0 note=73 velocity=120 time=7\n",
      "note_on channel=0 note=73 velocity=0 time=113\n",
      "note_on channel=0 note=75 velocity=120 time=8\n",
      "note_on channel=0 note=75 velocity=0 time=112\n",
      "note_on channel=0 note=76 velocity=120 time=8\n",
      "note_on channel=0 note=76 velocity=0 time=952\n",
      "note_on channel=0 note=81 velocity=120 time=7\n",
      "note_on channel=0 note=81 velocity=0 time=23\n",
      "note_on channel=0 note=93 velocity=120 time=7\n",
      "note_on channel=0 note=93 velocity=0 time=23\n",
      "note_on channel=0 note=93 velocity=120 time=37\n",
      "note_on channel=0 note=93 velocity=0 time=24\n",
      "note_on channel=0 note=71 velocity=120 time=367\n",
      "note_on channel=0 note=71 velocity=0 time=52\n",
      "note_on channel=0 note=72 velocity=120 time=7\n",
      "note_on channel=0 note=72 velocity=0 time=53\n",
      "note_on channel=0 note=74 velocity=120 time=67\n",
      "note_on channel=0 note=74 velocity=0 time=53\n",
      "note_on channel=0 note=72 velocity=120 time=68\n",
      "note_on channel=0 note=72 velocity=0 time=52\n",
      "note_on channel=0 note=71 velocity=120 time=68\n",
      "note_on channel=0 note=71 velocity=0 time=52\n",
      "note_on channel=0 note=72 velocity=120 time=68\n",
      "note_on channel=0 note=72 velocity=0 time=52\n",
      "note_on channel=0 note=64 velocity=120 time=8\n",
      "note_on channel=0 note=64 velocity=0 time=832\n",
      "note_on channel=0 note=81 velocity=120 time=7\n",
      "note_on channel=0 note=81 velocity=0 time=24\n",
      "note_on channel=0 note=93 velocity=120 time=6\n",
      "note_on channel=0 note=93 velocity=0 time=23\n",
      "note_on channel=0 note=93 velocity=120 time=38\n",
      "note_on channel=0 note=93 velocity=0 time=21\n",
      "note_on channel=0 note=71 velocity=120 time=368\n",
      "note_on channel=0 note=71 velocity=0 time=53\n",
      "note_on channel=0 note=72 velocity=120 time=7\n",
      "note_on channel=0 note=72 velocity=0 time=54\n",
      "note_on channel=0 note=74 velocity=120 time=67\n",
      "note_on channel=0 note=74 velocity=0 time=52\n",
      "note_on channel=0 note=72 velocity=120 time=68\n",
      "note_on channel=0 note=72 velocity=0 time=52\n",
      "note_on channel=0 note=71 velocity=120 time=68\n",
      "note_on channel=0 note=71 velocity=0 time=52\n",
      "note_on channel=0 note=74 velocity=120 time=68\n",
      "note_on channel=0 note=74 velocity=0 time=52\n",
      "note_on channel=0 note=76 velocity=120 time=7\n",
      "note_on channel=0 note=76 velocity=0 time=833\n",
      "note_on channel=0 note=77 velocity=120 time=8\n",
      "note_on channel=0 note=77 velocity=0 time=52\n",
      "note_on channel=0 note=77 velocity=120 time=427\n",
      "note_on channel=0 note=77 velocity=0 time=53\n",
      "note_on channel=0 note=79 velocity=120 time=7\n",
      "note_on channel=0 note=79 velocity=0 time=53\n",
      "note_on channel=0 note=77 velocity=120 time=68\n",
      "note_on channel=0 note=77 velocity=0 time=52\n",
      "note_on channel=0 note=76 velocity=120 time=68\n",
      "note_on channel=0 note=76 velocity=0 time=52\n",
      "note_on channel=0 note=74 velocity=120 time=68\n",
      "note_on channel=0 note=74 velocity=0 time=52\n",
      "note_on channel=0 note=76 velocity=120 time=8\n",
      "note_on channel=0 note=76 velocity=0 time=52\n",
      "note_on channel=0 note=76 velocity=120 time=428\n",
      "note_on channel=0 note=76 velocity=0 time=52\n",
      "note_on channel=0 note=77 velocity=120 time=8\n",
      "note_on channel=0 note=77 velocity=0 time=52\n",
      "note_on channel=0 note=76 velocity=120 time=67\n",
      "note_on channel=0 note=76 velocity=0 time=53\n",
      "note_on channel=0 note=74 velocity=120 time=67\n",
      "note_on channel=0 note=74 velocity=0 time=53\n",
      "note_on channel=0 note=72 velocity=120 time=68\n",
      "note_on channel=0 note=72 velocity=0 time=51\n",
      "note_on channel=0 note=71 velocity=120 time=9\n",
      "note_on channel=0 note=71 velocity=0 time=112\n",
      "note_on channel=0 note=69 velocity=120 time=247\n",
      "note_on channel=0 note=69 velocity=0 time=233\n",
      "note_on channel=0 note=68 velocity=120 time=8\n",
      "note_on channel=0 note=68 velocity=0 time=112\n",
      "note_on channel=0 note=66 velocity=120 time=9\n",
      "note_on channel=0 note=66 velocity=0 time=111\n",
      "note_on channel=0 note=68 velocity=120 time=8\n",
      "note_on channel=0 note=68 velocity=0 time=112\n",
      "note_on channel=0 note=69 velocity=120 time=7\n",
      "note_on channel=0 note=69 velocity=0 time=473\n",
      "note_on channel=0 note=57 velocity=120 time=8\n",
      "note_on channel=0 note=57 velocity=0 time=9\n",
      "note_on channel=0 note=57 velocity=120 time=1\n",
      "note_on channel=0 note=57 velocity=0 time=1\n",
      "note_on channel=0 note=59 velocity=120 time=10\n",
      "note_on channel=0 note=59 velocity=0 time=10\n",
      "note_on channel=0 note=60 velocity=120 time=8\n",
      "note_on channel=0 note=60 velocity=0 time=13\n",
      "note_on channel=0 note=61 velocity=120 time=8\n",
      "note_on channel=0 note=61 velocity=0 time=9\n",
      "note_on channel=0 note=62 velocity=120 time=13\n",
      "note_on channel=0 note=62 velocity=0 time=8\n",
      "note_on channel=0 note=63 velocity=120 time=9\n",
      "note_on channel=0 note=63 velocity=0 time=13\n",
      "note_on channel=0 note=64 velocity=120 time=7\n",
      "note_on channel=0 note=64 velocity=0 time=11\n",
      "note_on channel=0 note=65 velocity=120 time=12\n",
      "note_on channel=0 note=65 velocity=0 time=7\n",
      "note_on channel=0 note=66 velocity=120 time=11\n",
      "note_on channel=0 note=66 velocity=0 time=13\n",
      "note_on channel=0 note=67 velocity=120 time=6\n",
      "note_on channel=0 note=67 velocity=0 time=11\n",
      "note_on channel=0 note=68 velocity=120 time=12\n",
      "note_on channel=0 note=68 velocity=0 time=7\n",
      "note_on channel=0 note=69 velocity=120 time=11\n",
      "note_on channel=0 note=69 velocity=0 time=13\n",
      "note_on channel=0 note=70 velocity=120 time=6\n",
      "note_on channel=0 note=70 velocity=0 time=11\n",
      "note_on channel=0 note=71 velocity=120 time=13\n",
      "note_on channel=0 note=71 velocity=0 time=6\n",
      "note_on channel=0 note=72 velocity=120 time=11\n",
      "note_on channel=0 note=72 velocity=0 time=13\n",
      "note_on channel=0 note=73 velocity=120 time=7\n",
      "note_on channel=0 note=73 velocity=0 time=10\n",
      "note_on channel=0 note=74 velocity=120 time=11\n",
      "note_on channel=0 note=74 velocity=0 time=9\n",
      "note_on channel=0 note=75 velocity=120 time=10\n",
      "note_on channel=0 note=75 velocity=0 time=11\n",
      "note_on channel=0 note=76 velocity=120 time=9\n",
      "note_on channel=0 note=76 velocity=0 time=10\n",
      "note_on channel=0 note=77 velocity=120 time=12\n",
      "note_on channel=0 note=77 velocity=0 time=8\n",
      "note_on channel=0 note=78 velocity=120 time=10\n",
      "note_on channel=0 note=78 velocity=0 time=12\n",
      "note_on channel=0 note=79 velocity=120 time=8\n",
      "note_on channel=0 note=79 velocity=0 time=10\n",
      "note_on channel=0 note=80 velocity=120 time=12\n",
      "note_on channel=0 note=80 velocity=0 time=8\n",
      "note_on channel=0 note=81 velocity=120 time=10\n",
      "note_on channel=0 note=81 velocity=0 time=12\n",
      "note_on channel=0 note=81 velocity=120 time=8\n",
      "note_on channel=0 note=81 velocity=0 time=472\n",
      "note_on channel=0 note=83 velocity=120 time=128\n",
      "note_on channel=0 note=83 velocity=0 time=232\n",
      "note_on channel=0 note=81 velocity=120 time=9\n",
      "note_on channel=0 note=81 velocity=0 time=112\n",
      "note_on channel=0 note=79 velocity=120 time=6\n",
      "note_on channel=0 note=79 velocity=0 time=953\n",
      "note_on channel=0 note=77 velocity=120 time=8\n",
      "note_on channel=0 note=77 velocity=0 time=472\n",
      "note_on channel=0 note=79 velocity=120 time=128\n",
      "note_on channel=0 note=79 velocity=0 time=232\n",
      "note_on channel=0 note=77 velocity=120 time=7\n",
      "note_on channel=0 note=77 velocity=0 time=113\n",
      "note_on channel=0 note=76 velocity=120 time=7\n",
      "note_on channel=0 note=76 velocity=0 time=112\n",
      "note_on channel=0 note=77 velocity=120 time=9\n",
      "note_on channel=0 note=77 velocity=0 time=111\n",
      "note_on channel=0 note=78 velocity=120 time=9\n",
      "note_on channel=0 note=78 velocity=0 time=111\n",
      "note_on channel=0 note=79 velocity=120 time=9\n",
      "note_on channel=0 note=79 velocity=0 time=112\n",
      "note_on channel=0 note=81 velocity=120 time=488\n",
      "note_on channel=0 note=81 velocity=0 time=472\n",
      "note_on channel=0 note=83 velocity=120 time=128\n",
      "note_on channel=0 note=83 velocity=0 time=232\n",
      "note_on channel=0 note=81 velocity=120 time=7\n",
      "note_on channel=0 note=81 velocity=0 time=113\n",
      "note_on channel=0 note=79 velocity=120 time=8\n",
      "note_on channel=0 note=79 velocity=0 time=111\n",
      "note_on channel=0 note=79 velocity=120 time=9\n",
      "note_on channel=0 note=79 velocity=0 time=112\n",
      "note_on channel=0 note=86 velocity=120 time=7\n",
      "note_on channel=0 note=86 velocity=0 time=113\n",
      "note_on channel=0 note=84 velocity=120 time=7\n",
      "note_on channel=0 note=84 velocity=0 time=353\n",
      "note_on channel=0 note=81 velocity=120 time=248\n",
      "note_on channel=0 note=81 velocity=0 time=52\n",
      "note_on channel=0 note=81 velocity=120 time=7\n",
      "note_on channel=0 note=81 velocity=0 time=53\n",
      "note_on channel=0 note=81 velocity=120 time=68\n",
      "note_on channel=0 note=81 velocity=0 time=52\n",
      "note_on channel=0 note=81 velocity=120 time=8\n",
      "note_on channel=0 note=81 velocity=0 time=51\n",
      "note_on channel=0 note=81 velocity=120 time=9\n",
      "note_on channel=0 note=81 velocity=0 time=51\n",
      "note_on channel=0 note=81 velocity=120 time=9\n",
      "note_on channel=0 note=81 velocity=0 time=52\n",
      "note_on channel=0 note=81 velocity=120 time=68\n",
      "note_on channel=0 note=81 velocity=0 time=52\n",
      "note_on channel=0 note=81 velocity=120 time=8\n",
      "note_on channel=0 note=81 velocity=0 time=112\n",
      "note_on channel=0 note=81 velocity=120 time=7\n",
      "note_on channel=0 note=81 velocity=0 time=53\n",
      "note_on channel=0 note=83 velocity=120 time=7\n",
      "note_on channel=0 note=83 velocity=0 time=112\n",
      "note_on channel=0 note=81 velocity=120 time=9\n",
      "note_on channel=0 note=81 velocity=0 time=592\n",
      "note_on channel=0 note=80 velocity=120 time=8\n",
      "note_on channel=0 note=80 velocity=0 time=6499\n",
      "control_change channel=0 control=120 value=0 time=0\n",
      "control_change channel=0 control=121 value=0 time=0\n",
      "control_change channel=0 control=123 value=0 time=0\n",
      "control_change channel=0 control=124 value=0 time=0\n",
      "control_change channel=0 control=64 value=0 time=0\n",
      "<meta message end_of_track time=0>\n",
      "Track 1: \n",
      "<meta message set_tempo tempo=750000 time=0>\n",
      "control_change channel=1 control=7 value=100 time=0\n",
      "program_change channel=1 program=27 time=0\n",
      "note_on channel=1 note=68 velocity=120 time=1080\n",
      "note_on channel=1 note=68 velocity=0 time=108\n",
      "note_on channel=1 note=68 velocity=120 time=10\n",
      "note_on channel=1 note=68 velocity=0 time=110\n",
      "note_on channel=1 note=68 velocity=120 time=10\n",
      "note_on channel=1 note=68 velocity=0 time=110\n",
      "note_on channel=1 note=68 velocity=120 time=9\n",
      "note_on channel=1 note=68 velocity=0 time=51\n",
      "note_on channel=1 note=68 velocity=120 time=9\n",
      "note_on channel=1 note=68 velocity=0 time=51\n",
      "note_on channel=1 note=68 velocity=120 time=69\n",
      "note_on channel=1 note=68 velocity=0 time=51\n",
      "note_on channel=1 note=68 velocity=120 time=10\n",
      "note_on channel=1 note=68 velocity=0 time=50\n",
      "note_on channel=1 note=68 velocity=120 time=10\n",
      "note_on channel=1 note=68 velocity=0 time=50\n",
      "note_on channel=1 note=68 velocity=120 time=10\n",
      "note_on channel=1 note=68 velocity=0 time=110\n",
      "note_on channel=1 note=68 velocity=120 time=10\n",
      "note_on channel=1 note=68 velocity=0 time=110\n",
      "note_on channel=1 note=68 velocity=120 time=10\n",
      "note_on channel=1 note=68 velocity=0 time=111\n",
      "note_on channel=1 note=68 velocity=120 time=8\n",
      "note_on channel=1 note=68 velocity=0 time=111\n",
      "note_on channel=1 note=68 velocity=120 time=10\n",
      "note_on channel=1 note=68 velocity=0 time=50\n",
      "note_on channel=1 note=68 velocity=120 time=10\n",
      "note_on channel=1 note=68 velocity=0 time=50\n",
      "note_on channel=1 note=68 velocity=120 time=10\n",
      "note_on channel=1 note=68 velocity=0 time=50\n",
      "note_on channel=1 note=68 velocity=120 time=10\n",
      "note_on channel=1 note=68 velocity=0 time=50\n",
      "note_on channel=1 note=68 velocity=120 time=10\n",
      "note_on channel=1 note=68 velocity=0 time=50\n",
      "note_on channel=1 note=68 velocity=120 time=10\n",
      "note_on channel=1 note=68 velocity=0 time=50\n",
      "note_on channel=1 note=68 velocity=120 time=9\n",
      "note_on channel=1 note=68 velocity=0 time=51\n",
      "note_on channel=1 note=68 velocity=120 time=10\n",
      "note_on channel=1 note=68 velocity=0 time=50\n",
      "note_on channel=1 note=69 velocity=120 time=9\n",
      "note_on channel=1 note=69 velocity=0 time=111\n",
      "note_on channel=1 note=71 velocity=120 time=9\n",
      "note_on channel=1 note=71 velocity=0 time=112\n",
      "note_on channel=1 note=69 velocity=120 time=9\n",
      "note_on channel=1 note=69 velocity=0 time=50\n",
      "note_on channel=1 note=69 velocity=120 time=8\n",
      "note_on channel=1 note=69 velocity=0 time=22\n",
      "note_on channel=1 note=82 velocity=120 time=10\n",
      "note_on channel=1 note=82 velocity=0 time=28\n",
      "note_on channel=1 note=93 velocity=120 time=23\n",
      "note_on channel=1 note=93 velocity=0 time=37\n",
      "note_on channel=1 note=67 velocity=120 time=10\n",
      "note_on channel=1 note=67 velocity=0 time=42\n",
      "note_on channel=1 note=69 velocity=120 time=67\n",
      "note_on channel=1 note=69 velocity=0 time=53\n",
      "note_on channel=1 note=64 velocity=120 time=7\n",
      "note_on channel=1 note=64 velocity=0 time=53\n",
      "note_on channel=1 note=67 velocity=120 time=8\n",
      "note_on channel=1 note=67 velocity=0 time=52\n",
      "note_on channel=1 note=69 velocity=120 time=70\n",
      "note_on channel=1 note=69 velocity=0 time=50\n",
      "note_on channel=1 note=64 velocity=120 time=8\n",
      "note_on channel=1 note=64 velocity=0 time=52\n",
      "note_on channel=1 note=67 velocity=120 time=10\n",
      "note_on channel=1 note=67 velocity=0 time=50\n",
      "note_on channel=1 note=69 velocity=120 time=8\n",
      "note_on channel=1 note=69 velocity=0 time=52\n",
      "note_on channel=1 note=69 velocity=120 time=10\n",
      "note_on channel=1 note=69 velocity=0 time=51\n",
      "note_on channel=1 note=69 velocity=120 time=68\n",
      "note_on channel=1 note=69 velocity=0 time=52\n",
      "note_on channel=1 note=69 velocity=120 time=6\n",
      "note_on channel=1 note=69 velocity=0 time=54\n",
      "note_on channel=1 note=69 velocity=120 time=9\n",
      "note_on channel=1 note=69 velocity=0 time=50\n",
      "note_on channel=1 note=64 velocity=120 time=10\n",
      "note_on channel=1 note=64 velocity=0 time=49\n",
      "note_on channel=1 note=67 velocity=120 time=9\n",
      "note_on channel=1 note=67 velocity=0 time=51\n",
      "note_on channel=1 note=69 velocity=120 time=69\n",
      "note_on channel=1 note=69 velocity=0 time=51\n",
      "note_on channel=1 note=64 velocity=120 time=9\n",
      "note_on channel=1 note=64 velocity=0 time=52\n",
      "note_on channel=1 note=67 velocity=120 time=8\n",
      "note_on channel=1 note=67 velocity=0 time=52\n",
      "note_on channel=1 note=69 velocity=120 time=67\n",
      "note_on channel=1 note=69 velocity=0 time=53\n",
      "note_on channel=1 note=64 velocity=120 time=7\n",
      "note_on channel=1 note=64 velocity=0 time=54\n",
      "note_on channel=1 note=67 velocity=120 time=7\n",
      "note_on channel=1 note=67 velocity=0 time=51\n",
      "note_on channel=1 note=69 velocity=120 time=9\n",
      "note_on channel=1 note=69 velocity=0 time=52\n",
      "note_on channel=1 note=69 velocity=120 time=8\n",
      "note_on channel=1 note=69 velocity=0 time=52\n",
      "note_on channel=1 note=69 velocity=120 time=68\n",
      "note_on channel=1 note=69 velocity=0 time=53\n",
      "note_on channel=1 note=69 velocity=120 time=9\n",
      "note_on channel=1 note=69 velocity=0 time=50\n",
      "note_on channel=1 note=69 velocity=120 time=8\n",
      "note_on channel=1 note=69 velocity=0 time=53\n",
      "note_on channel=1 note=64 velocity=120 time=7\n",
      "note_on channel=1 note=64 velocity=0 time=52\n",
      "note_on channel=1 note=67 velocity=120 time=7\n",
      "note_on channel=1 note=67 velocity=0 time=54\n",
      "note_on channel=1 note=69 velocity=120 time=66\n",
      "note_on channel=1 note=69 velocity=0 time=54\n",
      "note_on channel=1 note=64 velocity=120 time=7\n",
      "note_on channel=1 note=64 velocity=0 time=51\n",
      "note_on channel=1 note=67 velocity=120 time=9\n",
      "note_on channel=1 note=67 velocity=0 time=52\n",
      "note_on channel=1 note=69 velocity=120 time=70\n",
      "note_on channel=1 note=69 velocity=0 time=50\n",
      "note_on channel=1 note=64 velocity=120 time=8\n",
      "note_on channel=1 note=64 velocity=0 time=52\n",
      "note_on channel=1 note=67 velocity=120 time=10\n",
      "note_on channel=1 note=67 velocity=0 time=50\n",
      "note_on channel=1 note=69 velocity=120 time=8\n",
      "note_on channel=1 note=69 velocity=0 time=52\n",
      "note_on channel=1 note=69 velocity=120 time=9\n",
      "note_on channel=1 note=69 velocity=0 time=52\n",
      "note_on channel=1 note=69 velocity=120 time=68\n",
      "note_on channel=1 note=69 velocity=0 time=53\n",
      "note_on channel=1 note=69 velocity=120 time=5\n",
      "note_on channel=1 note=69 velocity=0 time=53\n",
      "note_on channel=1 note=69 velocity=120 time=10\n",
      "note_on channel=1 note=69 velocity=0 time=50\n",
      "note_on channel=1 note=64 velocity=120 time=10\n",
      "note_on channel=1 note=64 velocity=0 time=49\n",
      "note_on channel=1 note=67 velocity=120 time=9\n",
      "note_on channel=1 note=67 velocity=0 time=52\n",
      "note_on channel=1 note=69 velocity=120 time=68\n",
      "note_on channel=1 note=69 velocity=0 time=52\n",
      "note_on channel=1 note=64 velocity=120 time=8\n",
      "note_on channel=1 note=64 velocity=0 time=52\n",
      "note_on channel=1 note=67 velocity=120 time=8\n",
      "note_on channel=1 note=67 velocity=0 time=52\n",
      "note_on channel=1 note=69 velocity=120 time=67\n",
      "note_on channel=1 note=69 velocity=0 time=54\n",
      "note_on channel=1 note=64 velocity=120 time=7\n",
      "note_on channel=1 note=64 velocity=0 time=52\n",
      "note_on channel=1 note=67 velocity=120 time=8\n",
      "note_on channel=1 note=67 velocity=0 time=51\n",
      "note_on channel=1 note=69 velocity=120 time=9\n",
      "note_on channel=1 note=69 velocity=0 time=52\n",
      "note_on channel=1 note=69 velocity=120 time=8\n",
      "note_on channel=1 note=69 velocity=0 time=52\n",
      "note_on channel=1 note=69 velocity=120 time=68\n",
      "note_on channel=1 note=69 velocity=0 time=52\n",
      "note_on channel=1 note=62 velocity=120 time=10\n",
      "note_on channel=1 note=62 velocity=0 time=51\n",
      "note_on channel=1 note=62 velocity=120 time=7\n",
      "note_on channel=1 note=62 velocity=0 time=52\n",
      "note_on channel=1 note=57 velocity=120 time=7\n",
      "note_on channel=1 note=57 velocity=0 time=53\n",
      "note_on channel=1 note=60 velocity=120 time=7\n",
      "note_on channel=1 note=60 velocity=0 time=53\n",
      "note_on channel=1 note=62 velocity=120 time=68\n",
      "note_on channel=1 note=62 velocity=0 time=52\n",
      "note_on channel=1 note=57 velocity=120 time=8\n",
      "note_on channel=1 note=57 velocity=0 time=51\n",
      "note_on channel=1 note=60 velocity=120 time=9\n",
      "note_on channel=1 note=60 velocity=0 time=52\n",
      "note_on channel=1 note=62 velocity=120 time=70\n",
      "note_on channel=1 note=62 velocity=0 time=51\n",
      "note_on channel=1 note=57 velocity=120 time=7\n",
      "note_on channel=1 note=57 velocity=0 time=52\n",
      "note_on channel=1 note=60 velocity=120 time=10\n",
      "note_on channel=1 note=60 velocity=0 time=51\n",
      "note_on channel=1 note=62 velocity=120 time=6\n",
      "note_on channel=1 note=62 velocity=0 time=54\n",
      "note_on channel=1 note=62 velocity=120 time=8\n",
      "note_on channel=1 note=62 velocity=0 time=52\n",
      "note_on channel=1 note=62 velocity=120 time=68\n",
      "note_on channel=1 note=62 velocity=0 time=51\n",
      "note_on channel=1 note=69 velocity=120 time=10\n",
      "note_on channel=1 note=69 velocity=0 time=50\n",
      "note_on channel=1 note=69 velocity=120 time=8\n",
      "note_on channel=1 note=69 velocity=0 time=52\n",
      "note_on channel=1 note=64 velocity=120 time=8\n",
      "note_on channel=1 note=64 velocity=0 time=52\n",
      "note_on channel=1 note=67 velocity=120 time=8\n",
      "note_on channel=1 note=67 velocity=0 time=52\n",
      "note_on channel=1 note=69 velocity=120 time=68\n",
      "note_on channel=1 note=69 velocity=0 time=52\n",
      "note_on channel=1 note=64 velocity=120 time=7\n",
      "note_on channel=1 note=64 velocity=0 time=53\n",
      "note_on channel=1 note=67 velocity=120 time=7\n",
      "note_on channel=1 note=67 velocity=0 time=54\n",
      "note_on channel=1 note=69 velocity=120 time=69\n",
      "note_on channel=1 note=69 velocity=0 time=50\n",
      "note_on channel=1 note=64 velocity=120 time=8\n",
      "note_on channel=1 note=64 velocity=0 time=51\n",
      "note_on channel=1 note=67 velocity=120 time=11\n",
      "note_on channel=1 note=67 velocity=0 time=50\n",
      "note_on channel=1 note=69 velocity=120 time=8\n",
      "note_on channel=1 note=69 velocity=0 time=52\n",
      "note_on channel=1 note=69 velocity=120 time=10\n",
      "note_on channel=1 note=69 velocity=0 time=50\n",
      "note_on channel=1 note=69 velocity=120 time=70\n",
      "note_on channel=1 note=69 velocity=0 time=51\n",
      "note_on channel=1 note=59 velocity=120 time=9\n",
      "note_on channel=1 note=59 velocity=0 time=50\n",
      "note_on channel=1 note=59 velocity=120 time=7\n",
      "note_on channel=1 note=59 velocity=0 time=54\n",
      "note_on channel=1 note=54 velocity=120 time=6\n",
      "note_on channel=1 note=54 velocity=0 time=54\n",
      "note_on channel=1 note=57 velocity=120 time=7\n",
      "note_on channel=1 note=57 velocity=0 time=52\n",
      "note_on channel=1 note=59 velocity=120 time=68\n",
      "note_on channel=1 note=59 velocity=0 time=52\n",
      "note_on channel=1 note=54 velocity=120 time=10\n",
      "note_on channel=1 note=54 velocity=0 time=49\n",
      "note_on channel=1 note=57 velocity=120 time=9\n",
      "note_on channel=1 note=57 velocity=0 time=52\n",
      "note_on channel=1 note=59 velocity=120 time=68\n",
      "note_on channel=1 note=59 velocity=0 time=53\n",
      "note_on channel=1 note=54 velocity=120 time=9\n",
      "note_on channel=1 note=54 velocity=0 time=50\n",
      "note_on channel=1 note=57 velocity=120 time=7\n",
      "note_on channel=1 note=57 velocity=0 time=54\n",
      "note_on channel=1 note=59 velocity=120 time=8\n",
      "note_on channel=1 note=59 velocity=0 time=51\n",
      "note_on channel=1 note=59 velocity=120 time=8\n",
      "note_on channel=1 note=59 velocity=0 time=52\n",
      "note_on channel=1 note=59 velocity=120 time=68\n",
      "note_on channel=1 note=59 velocity=0 time=52\n",
      "note_on channel=1 note=64 velocity=120 time=10\n",
      "note_on channel=1 note=64 velocity=0 time=50\n",
      "note_on channel=1 note=64 velocity=120 time=8\n",
      "note_on channel=1 note=64 velocity=0 time=52\n",
      "note_on channel=1 note=59 velocity=120 time=8\n",
      "note_on channel=1 note=59 velocity=0 time=52\n",
      "note_on channel=1 note=62 velocity=120 time=8\n",
      "note_on channel=1 note=62 velocity=0 time=52\n",
      "note_on channel=1 note=64 velocity=120 time=67\n",
      "note_on channel=1 note=64 velocity=0 time=53\n",
      "note_on channel=1 note=59 velocity=120 time=8\n",
      "note_on channel=1 note=59 velocity=0 time=53\n",
      "note_on channel=1 note=62 velocity=120 time=7\n",
      "note_on channel=1 note=62 velocity=0 time=53\n",
      "note_on channel=1 note=64 velocity=120 time=67\n",
      "note_on channel=1 note=64 velocity=0 time=52\n",
      "note_on channel=1 note=59 velocity=120 time=8\n",
      "note_on channel=1 note=59 velocity=0 time=52\n",
      "note_on channel=1 note=62 velocity=120 time=8\n",
      "note_on channel=1 note=62 velocity=0 time=52\n",
      "note_on channel=1 note=64 velocity=120 time=8\n",
      "note_on channel=1 note=64 velocity=0 time=52\n",
      "note_on channel=1 note=64 velocity=120 time=8\n",
      "note_on channel=1 note=64 velocity=0 time=52\n",
      "note_on channel=1 note=64 velocity=120 time=67\n",
      "note_on channel=1 note=64 velocity=0 time=53\n",
      "note_on channel=1 note=69 velocity=120 time=9\n",
      "note_on channel=1 note=69 velocity=0 time=52\n",
      "note_on channel=1 note=69 velocity=120 time=6\n",
      "note_on channel=1 note=69 velocity=0 time=53\n",
      "note_on channel=1 note=64 velocity=120 time=8\n",
      "note_on channel=1 note=64 velocity=0 time=51\n",
      "note_on channel=1 note=67 velocity=120 time=9\n",
      "note_on channel=1 note=67 velocity=0 time=51\n",
      "note_on channel=1 note=69 velocity=120 time=69\n",
      "note_on channel=1 note=69 velocity=0 time=52\n",
      "note_on channel=1 note=64 velocity=120 time=8\n",
      "note_on channel=1 note=64 velocity=0 time=52\n",
      "note_on channel=1 note=67 velocity=120 time=8\n",
      "note_on channel=1 note=67 velocity=0 time=53\n",
      "note_on channel=1 note=69 velocity=120 time=68\n",
      "note_on channel=1 note=69 velocity=0 time=51\n",
      "note_on channel=1 note=64 velocity=120 time=7\n",
      "note_on channel=1 note=64 velocity=0 time=53\n",
      "note_on channel=1 note=67 velocity=120 time=9\n",
      "note_on channel=1 note=67 velocity=0 time=52\n",
      "note_on channel=1 note=69 velocity=120 time=7\n",
      "note_on channel=1 note=69 velocity=0 time=52\n",
      "note_on channel=1 note=69 velocity=120 time=10\n",
      "note_on channel=1 note=69 velocity=0 time=50\n",
      "note_on channel=1 note=69 velocity=120 time=70\n",
      "note_on channel=1 note=69 velocity=0 time=50\n",
      "note_on channel=1 note=69 velocity=120 time=8\n",
      "note_on channel=1 note=69 velocity=0 time=52\n",
      "note_on channel=1 note=69 velocity=120 time=10\n",
      "note_on channel=1 note=69 velocity=0 time=51\n",
      "note_on channel=1 note=64 velocity=120 time=9\n",
      "note_on channel=1 note=64 velocity=0 time=50\n",
      "note_on channel=1 note=67 velocity=120 time=8\n",
      "note_on channel=1 note=67 velocity=0 time=52\n",
      "note_on channel=1 note=69 velocity=120 time=68\n",
      "note_on channel=1 note=69 velocity=0 time=52\n",
      "note_on channel=1 note=64 velocity=120 time=8\n",
      "note_on channel=1 note=64 velocity=0 time=52\n",
      "note_on channel=1 note=67 velocity=120 time=8\n",
      "note_on channel=1 note=67 velocity=0 time=52\n",
      "note_on channel=1 note=69 velocity=120 time=68\n",
      "note_on channel=1 note=69 velocity=0 time=52\n",
      "note_on channel=1 note=64 velocity=120 time=8\n",
      "note_on channel=1 note=64 velocity=0 time=52\n",
      "note_on channel=1 note=67 velocity=120 time=8\n",
      "note_on channel=1 note=67 velocity=0 time=52\n",
      "note_on channel=1 note=69 velocity=120 time=8\n",
      "note_on channel=1 note=69 velocity=0 time=52\n",
      "note_on channel=1 note=69 velocity=120 time=8\n",
      "note_on channel=1 note=69 velocity=0 time=52\n",
      "note_on channel=1 note=69 velocity=120 time=68\n",
      "note_on channel=1 note=69 velocity=0 time=53\n",
      "note_on channel=1 note=69 velocity=120 time=8\n",
      "note_on channel=1 note=69 velocity=0 time=52\n",
      "note_on channel=1 note=69 velocity=120 time=7\n",
      "note_on channel=1 note=69 velocity=0 time=52\n",
      "note_on channel=1 note=64 velocity=120 time=8\n",
      "note_on channel=1 note=64 velocity=0 time=51\n",
      "note_on channel=1 note=67 velocity=120 time=9\n",
      "note_on channel=1 note=67 velocity=0 time=52\n",
      "note_on channel=1 note=69 velocity=120 time=68\n",
      "note_on channel=1 note=69 velocity=0 time=52\n",
      "note_on channel=1 note=64 velocity=120 time=8\n",
      "note_on channel=1 note=64 velocity=0 time=52\n",
      "note_on channel=1 note=67 velocity=120 time=8\n",
      "note_on channel=1 note=67 velocity=0 time=52\n",
      "note_on channel=1 note=69 velocity=120 time=69\n",
      "note_on channel=1 note=69 velocity=0 time=52\n",
      "note_on channel=1 note=64 velocity=120 time=6\n",
      "note_on channel=1 note=64 velocity=0 time=54\n",
      "note_on channel=1 note=67 velocity=120 time=8\n",
      "note_on channel=1 note=67 velocity=0 time=51\n",
      "note_on channel=1 note=69 velocity=120 time=8\n",
      "note_on channel=1 note=69 velocity=0 time=52\n",
      "note_on channel=1 note=69 velocity=120 time=10\n",
      "note_on channel=1 note=69 velocity=0 time=50\n",
      "note_on channel=1 note=69 velocity=120 time=70\n",
      "note_on channel=1 note=69 velocity=0 time=51\n",
      "note_on channel=1 note=69 velocity=120 time=7\n",
      "note_on channel=1 note=69 velocity=0 time=52\n",
      "note_on channel=1 note=69 velocity=120 time=10\n",
      "note_on channel=1 note=69 velocity=0 time=50\n",
      "note_on channel=1 note=64 velocity=120 time=9\n",
      "note_on channel=1 note=64 velocity=0 time=52\n",
      "note_on channel=1 note=67 velocity=120 time=6\n",
      "note_on channel=1 note=67 velocity=0 time=54\n",
      "note_on channel=1 note=69 velocity=120 time=67\n",
      "note_on channel=1 note=69 velocity=0 time=51\n",
      "note_on channel=1 note=64 velocity=120 time=9\n",
      "note_on channel=1 note=64 velocity=0 time=52\n",
      "note_on channel=1 note=67 velocity=120 time=8\n",
      "note_on channel=1 note=67 velocity=0 time=52\n",
      "note_on channel=1 note=69 velocity=120 time=68\n",
      "note_on channel=1 note=69 velocity=0 time=52\n",
      "note_on channel=1 note=64 velocity=120 time=8\n",
      "note_on channel=1 note=64 velocity=0 time=52\n",
      "note_on channel=1 note=67 velocity=120 time=8\n",
      "note_on channel=1 note=67 velocity=0 time=52\n",
      "note_on channel=1 note=69 velocity=120 time=8\n",
      "note_on channel=1 note=69 velocity=0 time=52\n",
      "note_on channel=1 note=69 velocity=120 time=8\n",
      "note_on channel=1 note=69 velocity=0 time=53\n",
      "note_on channel=1 note=69 velocity=120 time=67\n",
      "note_on channel=1 note=69 velocity=0 time=52\n",
      "note_on channel=1 note=62 velocity=120 time=9\n",
      "note_on channel=1 note=62 velocity=0 time=51\n",
      "note_on channel=1 note=62 velocity=120 time=8\n",
      "note_on channel=1 note=62 velocity=0 time=51\n",
      "note_on channel=1 note=57 velocity=120 time=9\n",
      "note_on channel=1 note=57 velocity=0 time=52\n",
      "note_on channel=1 note=60 velocity=120 time=8\n",
      "note_on channel=1 note=60 velocity=0 time=52\n",
      "note_on channel=1 note=62 velocity=120 time=68\n",
      "note_on channel=1 note=62 velocity=0 time=51\n",
      "note_on channel=1 note=57 velocity=120 time=9\n",
      "note_on channel=1 note=57 velocity=0 time=52\n",
      "note_on channel=1 note=60 velocity=120 time=7\n",
      "note_on channel=1 note=60 velocity=0 time=53\n",
      "note_on channel=1 note=62 velocity=120 time=70\n",
      "note_on channel=1 note=62 velocity=0 time=51\n",
      "note_on channel=1 note=57 velocity=120 time=7\n",
      "note_on channel=1 note=57 velocity=0 time=52\n",
      "note_on channel=1 note=60 velocity=120 time=10\n",
      "note_on channel=1 note=60 velocity=0 time=50\n",
      "note_on channel=1 note=62 velocity=120 time=8\n",
      "note_on channel=1 note=62 velocity=0 time=52\n",
      "note_on channel=1 note=62 velocity=120 time=10\n",
      "note_on channel=1 note=62 velocity=0 time=51\n",
      "note_on channel=1 note=62 velocity=120 time=69\n",
      "note_on channel=1 note=62 velocity=0 time=51\n",
      "note_on channel=1 note=69 velocity=120 time=9\n",
      "note_on channel=1 note=69 velocity=0 time=51\n",
      "note_on channel=1 note=69 velocity=120 time=6\n",
      "note_on channel=1 note=69 velocity=0 time=54\n",
      "note_on channel=1 note=64 velocity=120 time=6\n",
      "note_on channel=1 note=64 velocity=0 time=54\n",
      "note_on channel=1 note=67 velocity=120 time=6\n",
      "note_on channel=1 note=67 velocity=0 time=54\n",
      "note_on channel=1 note=69 velocity=120 time=67\n",
      "note_on channel=1 note=69 velocity=0 time=52\n",
      "note_on channel=1 note=64 velocity=120 time=8\n",
      "note_on channel=1 note=64 velocity=0 time=52\n",
      "note_on channel=1 note=67 velocity=120 time=8\n",
      "note_on channel=1 note=67 velocity=0 time=52\n",
      "note_on channel=1 note=69 velocity=120 time=70\n",
      "note_on channel=1 note=69 velocity=0 time=50\n",
      "note_on channel=1 note=64 velocity=120 time=8\n",
      "note_on channel=1 note=64 velocity=0 time=52\n",
      "note_on channel=1 note=67 velocity=120 time=9\n",
      "note_on channel=1 note=67 velocity=0 time=52\n",
      "note_on channel=1 note=69 velocity=120 time=6\n",
      "note_on channel=1 note=69 velocity=0 time=53\n",
      "note_on channel=1 note=69 velocity=120 time=10\n",
      "note_on channel=1 note=69 velocity=0 time=51\n",
      "note_on channel=1 note=69 velocity=120 time=69\n",
      "note_on channel=1 note=69 velocity=0 time=50\n",
      "note_on channel=1 note=59 velocity=120 time=10\n",
      "note_on channel=1 note=59 velocity=0 time=49\n",
      "note_on channel=1 note=59 velocity=120 time=9\n",
      "note_on channel=1 note=59 velocity=0 time=52\n",
      "note_on channel=1 note=54 velocity=120 time=8\n",
      "note_on channel=1 note=54 velocity=0 time=52\n",
      "note_on channel=1 note=57 velocity=120 time=8\n",
      "note_on channel=1 note=57 velocity=0 time=52\n",
      "note_on channel=1 note=59 velocity=120 time=68\n",
      "note_on channel=1 note=59 velocity=0 time=52\n",
      "note_on channel=1 note=54 velocity=120 time=9\n",
      "note_on channel=1 note=54 velocity=0 time=51\n",
      "note_on channel=1 note=57 velocity=120 time=7\n",
      "note_on channel=1 note=57 velocity=0 time=53\n",
      "note_on channel=1 note=64 velocity=120 time=8\n",
      "note_on channel=1 note=64 velocity=0 time=52\n",
      "note_on channel=1 note=64 velocity=120 time=8\n",
      "note_on channel=1 note=64 velocity=0 time=52\n",
      "note_on channel=1 note=59 velocity=120 time=10\n",
      "note_on channel=1 note=59 velocity=0 time=50\n",
      "note_on channel=1 note=62 velocity=120 time=8\n",
      "note_on channel=1 note=62 velocity=0 time=52\n",
      "note_on channel=1 note=64 velocity=120 time=10\n",
      "note_on channel=1 note=64 velocity=0 time=50\n",
      "note_on channel=1 note=64 velocity=120 time=8\n",
      "note_on channel=1 note=64 velocity=0 time=53\n",
      "note_on channel=1 note=64 velocity=120 time=67\n",
      "note_on channel=1 note=64 velocity=0 time=53\n",
      "note_on channel=1 note=69 velocity=120 time=8\n",
      "note_on channel=1 note=69 velocity=0 time=51\n",
      "note_on channel=1 note=69 velocity=120 time=8\n",
      "note_on channel=1 note=69 velocity=0 time=53\n",
      "note_on channel=1 note=64 velocity=120 time=7\n",
      "note_on channel=1 note=64 velocity=0 time=52\n",
      "note_on channel=1 note=67 velocity=120 time=8\n",
      "note_on channel=1 note=67 velocity=0 time=51\n",
      "note_on channel=1 note=69 velocity=120 time=69\n",
      "note_on channel=1 note=69 velocity=0 time=51\n",
      "note_on channel=1 note=64 velocity=120 time=9\n",
      "note_on channel=1 note=64 velocity=0 time=52\n",
      "note_on channel=1 note=67 velocity=120 time=8\n",
      "note_on channel=1 note=67 velocity=0 time=53\n",
      "note_on channel=1 note=69 velocity=120 time=69\n",
      "note_on channel=1 note=69 velocity=0 time=50\n",
      "note_on channel=1 note=64 velocity=120 time=9\n",
      "note_on channel=1 note=64 velocity=0 time=52\n",
      "note_on channel=1 note=67 velocity=120 time=8\n",
      "note_on channel=1 note=67 velocity=0 time=52\n",
      "note_on channel=1 note=69 velocity=120 time=8\n",
      "note_on channel=1 note=69 velocity=0 time=52\n",
      "note_on channel=1 note=69 velocity=120 time=9\n",
      "note_on channel=1 note=69 velocity=0 time=50\n",
      "note_on channel=1 note=81 velocity=120 time=218\n",
      "note_on channel=1 note=81 velocity=0 time=472\n",
      "note_on channel=1 note=83 velocity=120 time=128\n",
      "note_on channel=1 note=83 velocity=0 time=232\n",
      "note_on channel=1 note=81 velocity=120 time=7\n",
      "note_on channel=1 note=81 velocity=0 time=114\n",
      "note_on channel=1 note=79 velocity=120 time=7\n",
      "note_on channel=1 note=79 velocity=0 time=952\n",
      "note_on channel=1 note=77 velocity=120 time=8\n",
      "note_on channel=1 note=77 velocity=0 time=472\n",
      "note_on channel=1 note=79 velocity=120 time=128\n",
      "note_on channel=1 note=79 velocity=0 time=232\n",
      "note_on channel=1 note=77 velocity=120 time=8\n",
      "note_on channel=1 note=77 velocity=0 time=112\n",
      "note_on channel=1 note=76 velocity=120 time=8\n",
      "note_on channel=1 note=76 velocity=0 time=112\n",
      "note_on channel=1 note=77 velocity=120 time=8\n",
      "note_on channel=1 note=77 velocity=0 time=112\n",
      "note_on channel=1 note=78 velocity=120 time=8\n",
      "note_on channel=1 note=78 velocity=0 time=112\n",
      "note_on channel=1 note=79 velocity=120 time=7\n",
      "note_on channel=1 note=79 velocity=0 time=113\n",
      "note_on channel=1 note=81 velocity=120 time=487\n",
      "note_on channel=1 note=81 velocity=0 time=473\n",
      "note_on channel=1 note=83 velocity=120 time=128\n",
      "note_on channel=1 note=83 velocity=0 time=232\n",
      "note_on channel=1 note=81 velocity=120 time=8\n",
      "note_on channel=1 note=81 velocity=0 time=112\n",
      "note_on channel=1 note=79 velocity=120 time=8\n",
      "note_on channel=1 note=79 velocity=0 time=112\n",
      "note_on channel=1 note=79 velocity=120 time=8\n",
      "note_on channel=1 note=79 velocity=0 time=112\n",
      "note_on channel=1 note=86 velocity=120 time=8\n",
      "note_on channel=1 note=86 velocity=0 time=112\n",
      "note_on channel=1 note=84 velocity=120 time=8\n",
      "note_on channel=1 note=84 velocity=0 time=352\n",
      "note_on channel=1 note=81 velocity=120 time=248\n",
      "note_on channel=1 note=81 velocity=0 time=52\n",
      "note_on channel=1 note=81 velocity=120 time=7\n",
      "note_on channel=1 note=81 velocity=0 time=54\n",
      "note_on channel=1 note=81 velocity=120 time=67\n",
      "note_on channel=1 note=81 velocity=0 time=52\n",
      "note_on channel=1 note=81 velocity=120 time=8\n",
      "note_on channel=1 note=81 velocity=0 time=52\n",
      "note_on channel=1 note=81 velocity=120 time=8\n",
      "note_on channel=1 note=81 velocity=0 time=52\n",
      "note_on channel=1 note=81 velocity=120 time=8\n",
      "note_on channel=1 note=81 velocity=0 time=52\n",
      "note_on channel=1 note=81 velocity=120 time=68\n",
      "note_on channel=1 note=81 velocity=0 time=52\n",
      "note_on channel=1 note=81 velocity=120 time=7\n",
      "note_on channel=1 note=81 velocity=0 time=114\n",
      "note_on channel=1 note=81 velocity=120 time=7\n",
      "note_on channel=1 note=81 velocity=0 time=53\n",
      "note_on channel=1 note=83 velocity=120 time=7\n",
      "note_on channel=1 note=83 velocity=0 time=112\n",
      "note_on channel=1 note=81 velocity=120 time=8\n",
      "note_on channel=1 note=81 velocity=0 time=592\n",
      "note_on channel=1 note=80 velocity=120 time=8\n",
      "note_on channel=1 note=80 velocity=0 time=352\n",
      "note_on channel=1 note=80 velocity=120 time=7\n",
      "note_on channel=1 note=80 velocity=0 time=24\n",
      "note_on channel=1 note=69 velocity=120 time=8\n",
      "note_on channel=1 note=69 velocity=0 time=51\n",
      "note_on channel=1 note=69 velocity=120 time=7\n",
      "note_on channel=1 note=69 velocity=0 time=54\n",
      "note_on channel=1 note=64 velocity=120 time=7\n",
      "note_on channel=1 note=64 velocity=0 time=52\n",
      "note_on channel=1 note=67 velocity=120 time=8\n",
      "note_on channel=1 note=67 velocity=0 time=52\n",
      "note_on channel=1 note=69 velocity=120 time=68\n",
      "note_on channel=1 note=69 velocity=0 time=52\n",
      "note_on channel=1 note=64 velocity=120 time=8\n",
      "note_on channel=1 note=64 velocity=0 time=52\n",
      "note_on channel=1 note=67 velocity=120 time=8\n",
      "note_on channel=1 note=67 velocity=0 time=52\n",
      "note_on channel=1 note=69 velocity=120 time=69\n",
      "note_on channel=1 note=69 velocity=0 time=52\n",
      "note_on channel=1 note=64 velocity=120 time=6\n",
      "note_on channel=1 note=64 velocity=0 time=53\n",
      "note_on channel=1 note=67 velocity=120 time=9\n",
      "note_on channel=1 note=67 velocity=0 time=52\n",
      "note_on channel=1 note=69 velocity=120 time=7\n",
      "note_on channel=1 note=69 velocity=0 time=52\n",
      "note_on channel=1 note=69 velocity=120 time=10\n",
      "note_on channel=1 note=69 velocity=0 time=50\n",
      "note_on channel=1 note=69 velocity=120 time=70\n",
      "note_on channel=1 note=69 velocity=0 time=50\n",
      "note_on channel=1 note=69 velocity=120 time=8\n",
      "note_on channel=1 note=69 velocity=0 time=52\n",
      "note_on channel=1 note=69 velocity=120 time=10\n",
      "note_on channel=1 note=69 velocity=0 time=51\n",
      "note_on channel=1 note=64 velocity=120 time=9\n",
      "note_on channel=1 note=64 velocity=0 time=50\n",
      "note_on channel=1 note=67 velocity=120 time=8\n",
      "note_on channel=1 note=67 velocity=0 time=53\n",
      "note_on channel=1 note=69 velocity=120 time=67\n",
      "note_on channel=1 note=69 velocity=0 time=52\n",
      "note_on channel=1 note=64 velocity=120 time=8\n",
      "note_on channel=1 note=64 velocity=0 time=52\n",
      "note_on channel=1 note=67 velocity=120 time=8\n",
      "note_on channel=1 note=67 velocity=0 time=52\n",
      "note_on channel=1 note=69 velocity=120 time=68\n",
      "note_on channel=1 note=69 velocity=0 time=52\n",
      "note_on channel=1 note=64 velocity=120 time=8\n",
      "note_on channel=1 note=64 velocity=0 time=52\n",
      "note_on channel=1 note=67 velocity=120 time=8\n",
      "note_on channel=1 note=67 velocity=0 time=52\n",
      "note_on channel=1 note=69 velocity=120 time=8\n",
      "note_on channel=1 note=69 velocity=0 time=52\n",
      "note_on channel=1 note=69 velocity=120 time=8\n",
      "note_on channel=1 note=69 velocity=0 time=53\n",
      "note_on channel=1 note=69 velocity=120 time=67\n",
      "note_on channel=1 note=69 velocity=0 time=53\n",
      "note_on channel=1 note=69 velocity=120 time=8\n",
      "note_on channel=1 note=69 velocity=0 time=52\n",
      "note_on channel=1 note=69 velocity=120 time=7\n",
      "note_on channel=1 note=69 velocity=0 time=52\n",
      "note_on channel=1 note=64 velocity=120 time=8\n",
      "note_on channel=1 note=64 velocity=0 time=51\n",
      "note_on channel=1 note=67 velocity=120 time=9\n",
      "note_on channel=1 note=67 velocity=0 time=51\n",
      "note_on channel=1 note=69 velocity=120 time=69\n",
      "note_on channel=1 note=69 velocity=0 time=52\n",
      "note_on channel=1 note=64 velocity=120 time=8\n",
      "note_on channel=1 note=64 velocity=0 time=52\n",
      "note_on channel=1 note=67 velocity=120 time=8\n",
      "note_on channel=1 note=67 velocity=0 time=52\n",
      "note_on channel=1 note=69 velocity=120 time=69\n",
      "note_on channel=1 note=69 velocity=0 time=52\n",
      "note_on channel=1 note=64 velocity=120 time=6\n",
      "note_on channel=1 note=64 velocity=0 time=54\n",
      "note_on channel=1 note=67 velocity=120 time=8\n",
      "note_on channel=1 note=67 velocity=0 time=51\n",
      "note_on channel=1 note=69 velocity=120 time=8\n",
      "note_on channel=1 note=69 velocity=0 time=52\n",
      "note_on channel=1 note=69 velocity=120 time=10\n",
      "note_on channel=1 note=69 velocity=0 time=51\n",
      "note_on channel=1 note=69 velocity=120 time=69\n",
      "note_on channel=1 note=69 velocity=0 time=50\n",
      "note_on channel=1 note=69 velocity=120 time=8\n",
      "note_on channel=1 note=69 velocity=0 time=52\n",
      "note_on channel=1 note=69 velocity=120 time=10\n",
      "note_on channel=1 note=69 velocity=0 time=51\n",
      "note_on channel=1 note=64 velocity=120 time=8\n",
      "note_on channel=1 note=64 velocity=0 time=51\n",
      "note_on channel=1 note=67 velocity=120 time=7\n",
      "note_on channel=1 note=67 velocity=0 time=53\n",
      "note_on channel=1 note=69 velocity=120 time=68\n",
      "note_on channel=1 note=69 velocity=0 time=52\n",
      "note_on channel=1 note=64 velocity=120 time=8\n",
      "note_on channel=1 note=64 velocity=0 time=52\n",
      "note_on channel=1 note=67 velocity=120 time=8\n",
      "note_on channel=1 note=67 velocity=0 time=51\n",
      "note_on channel=1 note=69 velocity=120 time=69\n",
      "note_on channel=1 note=69 velocity=0 time=52\n",
      "note_on channel=1 note=64 velocity=120 time=8\n",
      "note_on channel=1 note=64 velocity=0 time=53\n",
      "note_on channel=1 note=67 velocity=120 time=7\n",
      "note_on channel=1 note=67 velocity=0 time=52\n",
      "note_on channel=1 note=69 velocity=120 time=8\n",
      "note_on channel=1 note=69 velocity=0 time=52\n",
      "note_on channel=1 note=69 velocity=120 time=7\n",
      "note_on channel=1 note=69 velocity=0 time=53\n",
      "note_on channel=1 note=69 velocity=120 time=68\n",
      "note_on channel=1 note=69 velocity=0 time=52\n",
      "note_on channel=1 note=62 velocity=120 time=9\n",
      "note_on channel=1 note=62 velocity=0 time=51\n",
      "note_on channel=1 note=62 velocity=120 time=8\n",
      "note_on channel=1 note=62 velocity=0 time=52\n",
      "note_on channel=1 note=57 velocity=120 time=8\n",
      "note_on channel=1 note=57 velocity=0 time=52\n",
      "note_on channel=1 note=60 velocity=120 time=8\n",
      "note_on channel=1 note=60 velocity=0 time=52\n",
      "note_on channel=1 note=62 velocity=120 time=68\n",
      "note_on channel=1 note=62 velocity=0 time=52\n",
      "note_on channel=1 note=57 velocity=120 time=8\n",
      "note_on channel=1 note=57 velocity=0 time=52\n",
      "note_on channel=1 note=60 velocity=120 time=7\n",
      "note_on channel=1 note=60 velocity=0 time=54\n",
      "note_on channel=1 note=62 velocity=120 time=68\n",
      "note_on channel=1 note=62 velocity=0 time=52\n",
      "note_on channel=1 note=57 velocity=120 time=7\n",
      "note_on channel=1 note=57 velocity=0 time=52\n",
      "note_on channel=1 note=60 velocity=120 time=10\n",
      "note_on channel=1 note=60 velocity=0 time=50\n",
      "note_on channel=1 note=62 velocity=120 time=8\n",
      "note_on channel=1 note=62 velocity=0 time=52\n",
      "note_on channel=1 note=62 velocity=120 time=10\n",
      "note_on channel=1 note=62 velocity=0 time=50\n",
      "note_on channel=1 note=62 velocity=120 time=70\n",
      "note_on channel=1 note=62 velocity=0 time=51\n",
      "note_on channel=1 note=69 velocity=120 time=9\n",
      "note_on channel=1 note=69 velocity=0 time=50\n",
      "note_on channel=1 note=69 velocity=120 time=7\n",
      "note_on channel=1 note=69 velocity=0 time=53\n",
      "note_on channel=1 note=64 velocity=120 time=7\n",
      "note_on channel=1 note=64 velocity=0 time=53\n",
      "note_on channel=1 note=67 velocity=120 time=8\n",
      "note_on channel=1 note=67 velocity=0 time=53\n",
      "note_on channel=1 note=69 velocity=120 time=67\n",
      "note_on channel=1 note=69 velocity=0 time=52\n",
      "note_on channel=1 note=64 velocity=120 time=8\n",
      "note_on channel=1 note=64 velocity=0 time=52\n",
      "note_on channel=1 note=67 velocity=120 time=8\n",
      "note_on channel=1 note=67 velocity=0 time=52\n",
      "note_on channel=1 note=69 velocity=120 time=70\n",
      "note_on channel=1 note=69 velocity=0 time=51\n",
      "note_on channel=1 note=64 velocity=120 time=7\n",
      "note_on channel=1 note=64 velocity=0 time=52\n",
      "note_on channel=1 note=67 velocity=120 time=9\n",
      "note_on channel=1 note=67 velocity=0 time=52\n",
      "note_on channel=1 note=69 velocity=120 time=6\n",
      "note_on channel=1 note=69 velocity=0 time=54\n",
      "note_on channel=1 note=69 velocity=120 time=8\n",
      "note_on channel=1 note=69 velocity=0 time=52\n",
      "note_on channel=1 note=69 velocity=120 time=69\n",
      "note_on channel=1 note=69 velocity=0 time=50\n",
      "note_on channel=1 note=59 velocity=120 time=10\n",
      "note_on channel=1 note=59 velocity=0 time=50\n",
      "note_on channel=1 note=59 velocity=120 time=8\n",
      "note_on channel=1 note=59 velocity=0 time=52\n",
      "note_on channel=1 note=54 velocity=120 time=8\n",
      "note_on channel=1 note=54 velocity=0 time=52\n",
      "note_on channel=1 note=57 velocity=120 time=8\n",
      "note_on channel=1 note=57 velocity=0 time=52\n",
      "note_on channel=1 note=59 velocity=120 time=68\n",
      "note_on channel=1 note=59 velocity=0 time=52\n",
      "note_on channel=1 note=54 velocity=120 time=9\n",
      "note_on channel=1 note=54 velocity=0 time=52\n",
      "note_on channel=1 note=57 velocity=120 time=7\n",
      "note_on channel=1 note=57 velocity=0 time=52\n",
      "note_on channel=1 note=59 velocity=120 time=68\n",
      "note_on channel=1 note=59 velocity=0 time=51\n",
      "note_on channel=1 note=54 velocity=120 time=11\n",
      "note_on channel=1 note=54 velocity=0 time=50\n",
      "note_on channel=1 note=57 velocity=120 time=8\n",
      "note_on channel=1 note=57 velocity=0 time=52\n",
      "note_on channel=1 note=59 velocity=120 time=10\n",
      "note_on channel=1 note=59 velocity=0 time=50\n",
      "note_on channel=1 note=59 velocity=120 time=8\n",
      "note_on channel=1 note=59 velocity=0 time=52\n",
      "note_on channel=1 note=59 velocity=120 time=68\n",
      "note_on channel=1 note=59 velocity=0 time=52\n",
      "note_on channel=1 note=64 velocity=120 time=9\n",
      "note_on channel=1 note=64 velocity=0 time=51\n",
      "note_on channel=1 note=64 velocity=120 time=8\n",
      "note_on channel=1 note=64 velocity=0 time=53\n",
      "note_on channel=1 note=59 velocity=120 time=7\n",
      "note_on channel=1 note=59 velocity=0 time=52\n",
      "note_on channel=1 note=62 velocity=120 time=8\n",
      "note_on channel=1 note=62 velocity=0 time=52\n",
      "note_on channel=1 note=64 velocity=120 time=68\n",
      "note_on channel=1 note=64 velocity=0 time=52\n",
      "note_on channel=1 note=59 velocity=120 time=8\n",
      "note_on channel=1 note=59 velocity=0 time=52\n",
      "note_on channel=1 note=62 velocity=120 time=8\n",
      "note_on channel=1 note=62 velocity=0 time=52\n",
      "note_on channel=1 note=64 velocity=120 time=68\n",
      "note_on channel=1 note=64 velocity=0 time=52\n",
      "note_on channel=1 note=59 velocity=120 time=7\n",
      "note_on channel=1 note=59 velocity=0 time=53\n",
      "note_on channel=1 note=62 velocity=120 time=8\n",
      "note_on channel=1 note=62 velocity=0 time=52\n",
      "note_on channel=1 note=64 velocity=120 time=8\n",
      "note_on channel=1 note=64 velocity=0 time=53\n",
      "note_on channel=1 note=64 velocity=120 time=7\n",
      "note_on channel=1 note=64 velocity=0 time=52\n",
      "note_on channel=1 note=64 velocity=120 time=68\n",
      "note_on channel=1 note=64 velocity=0 time=52\n",
      "note_on channel=1 note=69 velocity=120 time=10\n",
      "note_on channel=1 note=69 velocity=0 time=51\n",
      "note_on channel=1 note=69 velocity=120 time=7\n",
      "note_on channel=1 note=69 velocity=0 time=53\n",
      "note_on channel=1 note=64 velocity=120 time=7\n",
      "note_on channel=1 note=64 velocity=0 time=52\n",
      "note_on channel=1 note=67 velocity=120 time=8\n",
      "note_on channel=1 note=67 velocity=0 time=52\n",
      "note_on channel=1 note=69 velocity=120 time=67\n",
      "note_on channel=1 note=69 velocity=0 time=53\n",
      "note_on channel=1 note=64 velocity=120 time=7\n",
      "note_on channel=1 note=64 velocity=0 time=53\n",
      "note_on channel=1 note=67 velocity=120 time=7\n",
      "note_on channel=1 note=67 velocity=0 time=53\n",
      "note_on channel=1 note=69 velocity=120 time=70\n",
      "note_on channel=1 note=69 velocity=0 time=50\n",
      "note_on channel=1 note=64 velocity=120 time=8\n",
      "note_on channel=1 note=64 velocity=0 time=52\n",
      "note_on channel=1 note=67 velocity=120 time=10\n",
      "note_on channel=1 note=67 velocity=0 time=50\n",
      "note_on channel=1 note=69 velocity=120 time=8\n",
      "note_on channel=1 note=69 velocity=0 time=52\n",
      "note_on channel=1 note=69 velocity=120 time=10\n",
      "note_on channel=1 note=69 velocity=0 time=50\n",
      "note_on channel=1 note=69 velocity=120 time=69\n",
      "note_on channel=1 note=69 velocity=0 time=52\n",
      "note_on channel=1 note=69 velocity=120 time=6\n",
      "note_on channel=1 note=69 velocity=0 time=54\n",
      "note_on channel=1 note=69 velocity=120 time=9\n",
      "note_on channel=1 note=69 velocity=0 time=49\n",
      "note_on channel=1 note=64 velocity=120 time=11\n",
      "note_on channel=1 note=64 velocity=0 time=50\n",
      "note_on channel=1 note=67 velocity=120 time=8\n",
      "note_on channel=1 note=67 velocity=0 time=52\n",
      "note_on channel=1 note=69 velocity=120 time=68\n",
      "note_on channel=1 note=69 velocity=0 time=52\n",
      "note_on channel=1 note=64 velocity=120 time=8\n",
      "note_on channel=1 note=64 velocity=0 time=52\n",
      "note_on channel=1 note=67 velocity=120 time=8\n",
      "note_on channel=1 note=67 velocity=0 time=52\n",
      "note_on channel=1 note=69 velocity=120 time=68\n",
      "note_on channel=1 note=69 velocity=0 time=52\n",
      "note_on channel=1 note=64 velocity=120 time=8\n",
      "note_on channel=1 note=64 velocity=0 time=53\n",
      "note_on channel=1 note=67 velocity=120 time=7\n",
      "note_on channel=1 note=67 velocity=0 time=52\n",
      "note_on channel=1 note=69 velocity=120 time=8\n",
      "note_on channel=1 note=69 velocity=0 time=52\n",
      "note_on channel=1 note=69 velocity=120 time=9\n",
      "note_on channel=1 note=69 velocity=0 time=51\n",
      "note_on channel=1 note=69 velocity=120 time=68\n",
      "note_on channel=1 note=69 velocity=0 time=53\n",
      "note_on channel=1 note=69 velocity=120 time=9\n",
      "note_on channel=1 note=69 velocity=0 time=51\n",
      "note_on channel=1 note=69 velocity=120 time=7\n",
      "note_on channel=1 note=69 velocity=0 time=53\n",
      "note_on channel=1 note=64 velocity=120 time=7\n",
      "note_on channel=1 note=64 velocity=0 time=52\n",
      "note_on channel=1 note=67 velocity=120 time=7\n",
      "note_on channel=1 note=67 velocity=0 time=53\n",
      "note_on channel=1 note=69 velocity=120 time=68\n",
      "note_on channel=1 note=69 velocity=0 time=53\n",
      "note_on channel=1 note=64 velocity=120 time=7\n",
      "note_on channel=1 note=64 velocity=0 time=52\n",
      "note_on channel=1 note=67 velocity=120 time=8\n",
      "note_on channel=1 note=67 velocity=0 time=52\n",
      "note_on channel=1 note=69 velocity=120 time=70\n",
      "note_on channel=1 note=69 velocity=0 time=50\n",
      "note_on channel=1 note=64 velocity=120 time=8\n",
      "note_on channel=1 note=64 velocity=0 time=51\n",
      "note_on channel=1 note=67 velocity=120 time=11\n",
      "note_on channel=1 note=67 velocity=0 time=51\n",
      "note_on channel=1 note=69 velocity=120 time=7\n",
      "note_on channel=1 note=69 velocity=0 time=52\n",
      "note_on channel=1 note=69 velocity=120 time=9\n",
      "note_on channel=1 note=69 velocity=0 time=51\n",
      "note_on channel=1 note=69 velocity=120 time=70\n",
      "note_on channel=1 note=69 velocity=0 time=51\n",
      "note_on channel=1 note=69 velocity=120 time=7\n",
      "note_on channel=1 note=69 velocity=0 time=51\n",
      "note_on channel=1 note=69 velocity=120 time=11\n",
      "note_on channel=1 note=69 velocity=0 time=50\n",
      "note_on channel=1 note=64 velocity=120 time=10\n",
      "note_on channel=1 note=64 velocity=0 time=50\n",
      "note_on channel=1 note=67 velocity=120 time=9\n",
      "note_on channel=1 note=67 velocity=0 time=51\n",
      "note_on channel=1 note=69 velocity=120 time=68\n",
      "note_on channel=1 note=69 velocity=0 time=52\n",
      "note_on channel=1 note=64 velocity=120 time=9\n",
      "note_on channel=1 note=64 velocity=0 time=51\n",
      "note_on channel=1 note=67 velocity=120 time=8\n",
      "note_on channel=1 note=67 velocity=0 time=52\n",
      "note_on channel=1 note=69 velocity=120 time=68\n",
      "note_on channel=1 note=69 velocity=0 time=53\n",
      "note_on channel=1 note=64 velocity=120 time=7\n",
      "note_on channel=1 note=64 velocity=0 time=52\n",
      "note_on channel=1 note=67 velocity=120 time=8\n",
      "note_on channel=1 note=67 velocity=0 time=51\n",
      "note_on channel=1 note=69 velocity=120 time=9\n",
      "note_on channel=1 note=69 velocity=0 time=52\n",
      "note_on channel=1 note=69 velocity=120 time=8\n",
      "note_on channel=1 note=69 velocity=0 time=52\n",
      "note_on channel=1 note=69 velocity=120 time=68\n",
      "note_on channel=1 note=69 velocity=0 time=53\n",
      "note_on channel=1 note=62 velocity=120 time=9\n",
      "note_on channel=1 note=62 velocity=0 time=51\n",
      "note_on channel=1 note=62 velocity=120 time=7\n",
      "note_on channel=1 note=62 velocity=0 time=52\n",
      "note_on channel=1 note=57 velocity=120 time=7\n",
      "note_on channel=1 note=57 velocity=0 time=53\n",
      "note_on channel=1 note=60 velocity=120 time=7\n",
      "note_on channel=1 note=60 velocity=0 time=54\n",
      "note_on channel=1 note=62 velocity=120 time=67\n",
      "note_on channel=1 note=62 velocity=0 time=52\n",
      "note_on channel=1 note=57 velocity=120 time=8\n",
      "note_on channel=1 note=57 velocity=0 time=51\n",
      "note_on channel=1 note=60 velocity=120 time=9\n",
      "note_on channel=1 note=60 velocity=0 time=52\n",
      "note_on channel=1 note=62 velocity=120 time=70\n",
      "note_on channel=1 note=62 velocity=0 time=51\n",
      "note_on channel=1 note=57 velocity=120 time=7\n",
      "note_on channel=1 note=57 velocity=0 time=53\n",
      "note_on channel=1 note=60 velocity=120 time=9\n",
      "note_on channel=1 note=60 velocity=0 time=51\n",
      "note_on channel=1 note=62 velocity=120 time=6\n",
      "note_on channel=1 note=62 velocity=0 time=54\n",
      "note_on channel=1 note=62 velocity=120 time=8\n",
      "note_on channel=1 note=62 velocity=0 time=52\n",
      "note_on channel=1 note=62 velocity=120 time=70\n",
      "note_on channel=1 note=62 velocity=0 time=49\n",
      "note_on channel=1 note=69 velocity=120 time=10\n",
      "note_on channel=1 note=69 velocity=0 time=51\n",
      "note_on channel=1 note=69 velocity=120 time=7\n",
      "note_on channel=1 note=69 velocity=0 time=51\n",
      "note_on channel=1 note=64 velocity=120 time=9\n",
      "note_on channel=1 note=64 velocity=0 time=52\n",
      "note_on channel=1 note=67 velocity=120 time=8\n",
      "note_on channel=1 note=67 velocity=0 time=52\n",
      "note_on channel=1 note=69 velocity=120 time=68\n",
      "note_on channel=1 note=69 velocity=0 time=52\n",
      "note_on channel=1 note=64 velocity=120 time=7\n",
      "note_on channel=1 note=64 velocity=0 time=53\n",
      "note_on channel=1 note=67 velocity=120 time=7\n",
      "note_on channel=1 note=67 velocity=0 time=53\n",
      "note_on channel=1 note=69 velocity=120 time=69\n",
      "note_on channel=1 note=69 velocity=0 time=51\n",
      "note_on channel=1 note=64 velocity=120 time=8\n",
      "note_on channel=1 note=64 velocity=0 time=51\n",
      "note_on channel=1 note=67 velocity=120 time=11\n",
      "note_on channel=1 note=67 velocity=0 time=50\n",
      "note_on channel=1 note=69 velocity=120 time=8\n",
      "note_on channel=1 note=69 velocity=0 time=52\n",
      "note_on channel=1 note=69 velocity=120 time=10\n",
      "note_on channel=1 note=69 velocity=0 time=50\n",
      "note_on channel=1 note=69 velocity=120 time=70\n",
      "note_on channel=1 note=69 velocity=0 time=50\n",
      "note_on channel=1 note=59 velocity=120 time=10\n",
      "note_on channel=1 note=59 velocity=0 time=50\n",
      "note_on channel=1 note=59 velocity=120 time=8\n",
      "note_on channel=1 note=59 velocity=0 time=53\n",
      "note_on channel=1 note=54 velocity=120 time=6\n",
      "note_on channel=1 note=54 velocity=0 time=53\n",
      "note_on channel=1 note=57 velocity=120 time=8\n",
      "note_on channel=1 note=57 velocity=0 time=52\n",
      "note_on channel=1 note=59 velocity=120 time=68\n",
      "note_on channel=1 note=59 velocity=0 time=52\n",
      "note_on channel=1 note=54 velocity=120 time=10\n",
      "note_on channel=1 note=54 velocity=0 time=50\n",
      "note_on channel=1 note=57 velocity=120 time=8\n",
      "note_on channel=1 note=57 velocity=0 time=52\n",
      "note_on channel=1 note=64 velocity=120 time=8\n",
      "note_on channel=1 note=64 velocity=0 time=51\n",
      "note_on channel=1 note=64 velocity=120 time=9\n",
      "note_on channel=1 note=64 velocity=0 time=53\n",
      "note_on channel=1 note=59 velocity=120 time=9\n",
      "note_on channel=1 note=59 velocity=0 time=50\n",
      "note_on channel=1 note=62 velocity=120 time=7\n",
      "note_on channel=1 note=62 velocity=0 time=54\n",
      "note_on channel=1 note=64 velocity=120 time=8\n",
      "note_on channel=1 note=64 velocity=0 time=51\n",
      "note_on channel=1 note=64 velocity=120 time=8\n",
      "note_on channel=1 note=64 velocity=0 time=52\n",
      "note_on channel=1 note=64 velocity=120 time=68\n",
      "note_on channel=1 note=64 velocity=0 time=52\n",
      "note_on channel=1 note=69 velocity=120 time=10\n",
      "note_on channel=1 note=69 velocity=0 time=50\n",
      "note_on channel=1 note=69 velocity=120 time=9\n",
      "note_on channel=1 note=69 velocity=0 time=51\n",
      "note_on channel=1 note=64 velocity=120 time=8\n",
      "note_on channel=1 note=64 velocity=0 time=52\n",
      "note_on channel=1 note=67 velocity=120 time=8\n",
      "note_on channel=1 note=67 velocity=0 time=52\n",
      "note_on channel=1 note=69 velocity=120 time=67\n",
      "note_on channel=1 note=69 velocity=0 time=54\n",
      "note_on channel=1 note=64 velocity=120 time=6\n",
      "note_on channel=1 note=64 velocity=0 time=53\n",
      "note_on channel=1 note=67 velocity=120 time=8\n",
      "note_on channel=1 note=67 velocity=0 time=53\n",
      "note_on channel=1 note=69 velocity=120 time=69\n",
      "note_on channel=1 note=69 velocity=0 time=50\n",
      "note_on channel=1 note=64 velocity=120 time=10\n",
      "note_on channel=1 note=64 velocity=0 time=50\n",
      "note_on channel=1 note=67 velocity=120 time=10\n",
      "note_on channel=1 note=67 velocity=0 time=51\n",
      "note_on channel=1 note=69 velocity=120 time=9\n",
      "note_on channel=1 note=69 velocity=0 time=50\n",
      "note_on channel=1 note=69 velocity=120 time=10\n",
      "note_on channel=1 note=69 velocity=0 time=50\n",
      "note_on channel=1 note=81 velocity=120 time=218\n",
      "note_on channel=1 note=81 velocity=0 time=472\n",
      "note_on channel=1 note=83 velocity=120 time=128\n",
      "note_on channel=1 note=83 velocity=0 time=232\n",
      "note_on channel=1 note=81 velocity=120 time=8\n",
      "note_on channel=1 note=81 velocity=0 time=112\n",
      "note_on channel=1 note=79 velocity=120 time=8\n",
      "note_on channel=1 note=79 velocity=0 time=952\n",
      "note_on channel=1 note=77 velocity=120 time=8\n",
      "note_on channel=1 note=77 velocity=0 time=472\n",
      "note_on channel=1 note=79 velocity=120 time=128\n",
      "note_on channel=1 note=79 velocity=0 time=232\n",
      "note_on channel=1 note=77 velocity=120 time=8\n",
      "note_on channel=1 note=77 velocity=0 time=112\n",
      "note_on channel=1 note=76 velocity=120 time=8\n",
      "note_on channel=1 note=76 velocity=0 time=112\n",
      "note_on channel=1 note=77 velocity=120 time=8\n",
      "note_on channel=1 note=77 velocity=0 time=113\n",
      "note_on channel=1 note=78 velocity=120 time=7\n",
      "note_on channel=1 note=78 velocity=0 time=112\n",
      "note_on channel=1 note=79 velocity=120 time=8\n",
      "note_on channel=1 note=79 velocity=0 time=112\n",
      "note_on channel=1 note=81 velocity=120 time=488\n",
      "note_on channel=1 note=81 velocity=0 time=473\n",
      "note_on channel=1 note=83 velocity=120 time=127\n",
      "note_on channel=1 note=83 velocity=0 time=232\n",
      "note_on channel=1 note=81 velocity=120 time=8\n",
      "note_on channel=1 note=81 velocity=0 time=112\n",
      "note_on channel=1 note=79 velocity=120 time=7\n",
      "note_on channel=1 note=79 velocity=0 time=114\n",
      "note_on channel=1 note=79 velocity=120 time=7\n",
      "note_on channel=1 note=79 velocity=0 time=112\n",
      "note_on channel=1 note=86 velocity=120 time=8\n",
      "note_on channel=1 note=86 velocity=0 time=112\n",
      "note_on channel=1 note=84 velocity=120 time=8\n",
      "note_on channel=1 note=84 velocity=0 time=352\n",
      "note_on channel=1 note=81 velocity=120 time=248\n",
      "note_on channel=1 note=81 velocity=0 time=52\n",
      "note_on channel=1 note=81 velocity=120 time=8\n",
      "note_on channel=1 note=81 velocity=0 time=53\n",
      "note_on channel=1 note=81 velocity=120 time=67\n",
      "note_on channel=1 note=81 velocity=0 time=52\n",
      "note_on channel=1 note=81 velocity=120 time=7\n",
      "note_on channel=1 note=81 velocity=0 time=53\n",
      "note_on channel=1 note=81 velocity=120 time=8\n",
      "note_on channel=1 note=81 velocity=0 time=52\n",
      "note_on channel=1 note=81 velocity=120 time=8\n",
      "note_on channel=1 note=81 velocity=0 time=53\n",
      "note_on channel=1 note=81 velocity=120 time=67\n",
      "note_on channel=1 note=81 velocity=0 time=52\n",
      "note_on channel=1 note=81 velocity=120 time=8\n",
      "note_on channel=1 note=81 velocity=0 time=112\n",
      "note_on channel=1 note=81 velocity=120 time=8\n",
      "note_on channel=1 note=81 velocity=0 time=52\n",
      "note_on channel=1 note=83 velocity=120 time=8\n",
      "note_on channel=1 note=83 velocity=0 time=112\n",
      "note_on channel=1 note=81 velocity=120 time=7\n",
      "note_on channel=1 note=81 velocity=0 time=593\n",
      "note_on channel=1 note=80 velocity=120 time=8\n",
      "note_on channel=1 note=80 velocity=0 time=352\n",
      "note_on channel=1 note=80 velocity=120 time=8\n",
      "note_on channel=1 note=80 velocity=0 time=23\n",
      "note_on channel=1 note=69 velocity=120 time=9\n",
      "note_on channel=1 note=69 velocity=0 time=50\n",
      "note_on channel=1 note=69 velocity=120 time=8\n",
      "note_on channel=1 note=69 velocity=0 time=53\n",
      "note_on channel=1 note=64 velocity=120 time=7\n",
      "note_on channel=1 note=64 velocity=0 time=51\n",
      "note_on channel=1 note=67 velocity=120 time=9\n",
      "note_on channel=1 note=67 velocity=0 time=51\n",
      "note_on channel=1 note=69 velocity=120 time=68\n",
      "note_on channel=1 note=69 velocity=0 time=54\n",
      "note_on channel=1 note=64 velocity=120 time=6\n",
      "note_on channel=1 note=64 velocity=0 time=53\n",
      "note_on channel=1 note=67 velocity=120 time=8\n",
      "note_on channel=1 note=67 velocity=0 time=52\n",
      "note_on channel=1 note=69 velocity=120 time=70\n",
      "note_on channel=1 note=69 velocity=0 time=50\n",
      "note_on channel=1 note=64 velocity=120 time=8\n",
      "note_on channel=1 note=64 velocity=0 time=51\n",
      "note_on channel=1 note=67 velocity=120 time=11\n",
      "note_on channel=1 note=67 velocity=0 time=51\n",
      "note_on channel=1 note=69 velocity=120 time=7\n",
      "note_on channel=1 note=69 velocity=0 time=52\n",
      "note_on channel=1 note=69 velocity=120 time=10\n",
      "note_on channel=1 note=69 velocity=0 time=50\n",
      "note_on channel=1 note=69 velocity=120 time=69\n",
      "note_on channel=1 note=69 velocity=0 time=52\n",
      "note_on channel=1 note=69 velocity=120 time=6\n",
      "note_on channel=1 note=69 velocity=0 time=54\n",
      "note_on channel=1 note=69 velocity=120 time=8\n",
      "note_on channel=1 note=69 velocity=0 time=51\n",
      "note_on channel=1 note=64 velocity=120 time=9\n",
      "note_on channel=1 note=64 velocity=0 time=50\n",
      "note_on channel=1 note=67 velocity=120 time=9\n",
      "note_on channel=1 note=67 velocity=0 time=52\n",
      "note_on channel=1 note=69 velocity=120 time=68\n",
      "note_on channel=1 note=69 velocity=0 time=52\n",
      "note_on channel=1 note=64 velocity=120 time=9\n",
      "note_on channel=1 note=64 velocity=0 time=51\n",
      "note_on channel=1 note=67 velocity=120 time=8\n",
      "note_on channel=1 note=67 velocity=0 time=52\n",
      "note_on channel=1 note=69 velocity=120 time=67\n",
      "note_on channel=1 note=69 velocity=0 time=53\n",
      "note_on channel=1 note=64 velocity=120 time=7\n",
      "note_on channel=1 note=64 velocity=0 time=54\n",
      "note_on channel=1 note=67 velocity=120 time=7\n",
      "note_on channel=1 note=67 velocity=0 time=52\n",
      "note_on channel=1 note=69 velocity=120 time=8\n",
      "note_on channel=1 note=69 velocity=0 time=52\n",
      "note_on channel=1 note=69 velocity=120 time=8\n",
      "note_on channel=1 note=69 velocity=0 time=52\n",
      "note_on channel=1 note=69 velocity=120 time=68\n",
      "note_on channel=1 note=69 velocity=0 time=53\n",
      "note_on channel=1 note=69 velocity=120 time=9\n",
      "note_on channel=1 note=69 velocity=0 time=51\n",
      "note_on channel=1 note=69 velocity=120 time=7\n",
      "note_on channel=1 note=69 velocity=0 time=53\n",
      "note_on channel=1 note=64 velocity=120 time=7\n",
      "note_on channel=1 note=64 velocity=0 time=52\n",
      "note_on channel=1 note=67 velocity=120 time=7\n",
      "note_on channel=1 note=67 velocity=0 time=53\n",
      "note_on channel=1 note=69 velocity=120 time=67\n",
      "note_on channel=1 note=69 velocity=0 time=54\n",
      "note_on channel=1 note=64 velocity=120 time=7\n",
      "note_on channel=1 note=64 velocity=0 time=51\n",
      "note_on channel=1 note=67 velocity=120 time=9\n",
      "note_on channel=1 note=67 velocity=0 time=52\n",
      "note_on channel=1 note=69 velocity=120 time=70\n",
      "note_on channel=1 note=69 velocity=0 time=51\n",
      "note_on channel=1 note=64 velocity=120 time=7\n",
      "note_on channel=1 note=64 velocity=0 time=52\n",
      "note_on channel=1 note=67 velocity=120 time=10\n",
      "note_on channel=1 note=67 velocity=0 time=51\n",
      "note_on channel=1 note=69 velocity=120 time=7\n",
      "note_on channel=1 note=69 velocity=0 time=52\n",
      "note_on channel=1 note=69 velocity=120 time=9\n",
      "note_on channel=1 note=69 velocity=0 time=52\n",
      "note_on channel=1 note=69 velocity=120 time=69\n",
      "note_on channel=1 note=69 velocity=0 time=51\n",
      "note_on channel=1 note=69 velocity=120 time=7\n",
      "note_on channel=1 note=69 velocity=0 time=52\n",
      "note_on channel=1 note=69 velocity=120 time=10\n",
      "note_on channel=1 note=69 velocity=0 time=50\n",
      "note_on channel=1 note=64 velocity=120 time=10\n",
      "note_on channel=1 note=64 velocity=0 time=49\n",
      "note_on channel=1 note=67 velocity=120 time=9\n",
      "note_on channel=1 note=67 velocity=0 time=52\n",
      "note_on channel=1 note=69 velocity=120 time=68\n",
      "note_on channel=1 note=69 velocity=0 time=52\n",
      "note_on channel=1 note=64 velocity=120 time=8\n",
      "note_on channel=1 note=64 velocity=0 time=52\n",
      "note_on channel=1 note=67 velocity=120 time=8\n",
      "note_on channel=1 note=67 velocity=0 time=53\n",
      "note_on channel=1 note=69 velocity=120 time=67\n",
      "note_on channel=1 note=69 velocity=0 time=53\n",
      "note_on channel=1 note=64 velocity=120 time=7\n",
      "note_on channel=1 note=64 velocity=0 time=51\n",
      "note_on channel=1 note=67 velocity=120 time=9\n",
      "note_on channel=1 note=67 velocity=0 time=52\n",
      "note_on channel=1 note=69 velocity=120 time=8\n",
      "note_on channel=1 note=69 velocity=0 time=52\n",
      "note_on channel=1 note=69 velocity=120 time=8\n",
      "note_on channel=1 note=69 velocity=0 time=52\n",
      "note_on channel=1 note=69 velocity=120 time=68\n",
      "note_on channel=1 note=69 velocity=0 time=53\n",
      "note_on channel=1 note=62 velocity=120 time=9\n",
      "note_on channel=1 note=62 velocity=0 time=50\n",
      "note_on channel=1 note=62 velocity=120 time=8\n",
      "note_on channel=1 note=62 velocity=0 time=52\n",
      "note_on channel=1 note=57 velocity=120 time=7\n",
      "note_on channel=1 note=57 velocity=0 time=54\n",
      "note_on channel=1 note=60 velocity=120 time=6\n",
      "note_on channel=1 note=60 velocity=0 time=54\n",
      "note_on channel=1 note=62 velocity=120 time=67\n",
      "note_on channel=1 note=62 velocity=0 time=52\n",
      "note_on channel=1 note=57 velocity=120 time=8\n",
      "note_on channel=1 note=57 velocity=0 time=51\n",
      "note_on channel=1 note=60 velocity=120 time=9\n",
      "note_on channel=1 note=60 velocity=0 time=52\n",
      "note_on channel=1 note=62 velocity=120 time=71\n",
      "note_on channel=1 note=62 velocity=0 time=49\n",
      "note_on channel=1 note=57 velocity=120 time=8\n",
      "note_on channel=1 note=57 velocity=0 time=52\n",
      "note_on channel=1 note=60 velocity=120 time=10\n",
      "note_on channel=1 note=60 velocity=0 time=50\n",
      "note_on channel=1 note=62 velocity=120 time=7\n",
      "note_on channel=1 note=62 velocity=0 time=53\n",
      "note_on channel=1 note=62 velocity=120 time=9\n",
      "note_on channel=1 note=62 velocity=0 time=52\n",
      "note_on channel=1 note=62 velocity=120 time=68\n",
      "note_on channel=1 note=62 velocity=0 time=50\n",
      "note_on channel=1 note=69 velocity=120 time=11\n",
      "note_on channel=1 note=69 velocity=0 time=50\n",
      "note_on channel=1 note=69 velocity=120 time=8\n",
      "note_on channel=1 note=69 velocity=0 time=52\n",
      "note_on channel=1 note=64 velocity=120 time=8\n",
      "note_on channel=1 note=64 velocity=0 time=52\n",
      "note_on channel=1 note=67 velocity=120 time=8\n",
      "note_on channel=1 note=67 velocity=0 time=52\n",
      "note_on channel=1 note=69 velocity=120 time=68\n",
      "note_on channel=1 note=69 velocity=0 time=52\n",
      "note_on channel=1 note=64 velocity=120 time=7\n",
      "note_on channel=1 note=64 velocity=0 time=53\n",
      "note_on channel=1 note=67 velocity=120 time=7\n",
      "note_on channel=1 note=67 velocity=0 time=53\n",
      "note_on channel=1 note=69 velocity=120 time=70\n",
      "note_on channel=1 note=69 velocity=0 time=50\n",
      "note_on channel=1 note=64 velocity=120 time=8\n",
      "note_on channel=1 note=64 velocity=0 time=52\n",
      "note_on channel=1 note=67 velocity=120 time=10\n",
      "note_on channel=1 note=67 velocity=0 time=50\n",
      "note_on channel=1 note=69 velocity=120 time=8\n",
      "note_on channel=1 note=69 velocity=0 time=52\n",
      "note_on channel=1 note=69 velocity=120 time=10\n",
      "note_on channel=1 note=69 velocity=0 time=51\n",
      "note_on channel=1 note=69 velocity=120 time=69\n",
      "note_on channel=1 note=69 velocity=0 time=50\n",
      "note_on channel=1 note=59 velocity=120 time=10\n",
      "note_on channel=1 note=59 velocity=0 time=50\n",
      "note_on channel=1 note=59 velocity=120 time=7\n",
      "note_on channel=1 note=59 velocity=0 time=54\n",
      "note_on channel=1 note=54 velocity=120 time=6\n",
      "note_on channel=1 note=54 velocity=0 time=54\n",
      "note_on channel=1 note=57 velocity=120 time=7\n",
      "note_on channel=1 note=57 velocity=0 time=52\n",
      "note_on channel=1 note=59 velocity=120 time=68\n",
      "note_on channel=1 note=59 velocity=0 time=52\n",
      "note_on channel=1 note=54 velocity=120 time=10\n",
      "note_on channel=1 note=54 velocity=0 time=50\n",
      "note_on channel=1 note=57 velocity=120 time=8\n",
      "note_on channel=1 note=57 velocity=0 time=52\n",
      "note_on channel=1 note=59 velocity=120 time=68\n",
      "note_on channel=1 note=59 velocity=0 time=52\n",
      "note_on channel=1 note=54 velocity=120 time=10\n",
      "note_on channel=1 note=54 velocity=0 time=50\n",
      "note_on channel=1 note=57 velocity=120 time=7\n",
      "note_on channel=1 note=57 velocity=0 time=54\n",
      "note_on channel=1 note=59 velocity=120 time=8\n",
      "note_on channel=1 note=59 velocity=0 time=51\n",
      "note_on channel=1 note=59 velocity=120 time=8\n",
      "note_on channel=1 note=59 velocity=0 time=52\n",
      "note_on channel=1 note=59 velocity=120 time=68\n",
      "note_on channel=1 note=59 velocity=0 time=52\n",
      "note_on channel=1 note=64 velocity=120 time=10\n",
      "note_on channel=1 note=64 velocity=0 time=50\n",
      "note_on channel=1 note=64 velocity=120 time=8\n",
      "note_on channel=1 note=64 velocity=0 time=52\n",
      "note_on channel=1 note=59 velocity=120 time=8\n",
      "note_on channel=1 note=59 velocity=0 time=52\n",
      "note_on channel=1 note=62 velocity=120 time=8\n",
      "note_on channel=1 note=62 velocity=0 time=52\n",
      "note_on channel=1 note=64 velocity=120 time=67\n",
      "note_on channel=1 note=64 velocity=0 time=54\n",
      "note_on channel=1 note=59 velocity=120 time=6\n",
      "note_on channel=1 note=59 velocity=0 time=54\n",
      "note_on channel=1 note=62 velocity=120 time=7\n",
      "note_on channel=1 note=62 velocity=0 time=52\n",
      "note_on channel=1 note=64 velocity=120 time=68\n",
      "note_on channel=1 note=64 velocity=0 time=52\n",
      "note_on channel=1 note=59 velocity=120 time=8\n",
      "note_on channel=1 note=59 velocity=0 time=52\n",
      "note_on channel=1 note=62 velocity=120 time=8\n",
      "note_on channel=1 note=62 velocity=0 time=52\n",
      "note_on channel=1 note=64 velocity=120 time=8\n",
      "note_on channel=1 note=64 velocity=0 time=52\n",
      "note_on channel=1 note=64 velocity=120 time=8\n",
      "note_on channel=1 note=64 velocity=0 time=52\n",
      "note_on channel=1 note=64 velocity=120 time=67\n",
      "note_on channel=1 note=64 velocity=0 time=54\n",
      "note_on channel=1 note=69 velocity=120 time=8\n",
      "note_on channel=1 note=69 velocity=0 time=51\n",
      "note_on channel=1 note=69 velocity=120 time=7\n",
      "note_on channel=1 note=69 velocity=0 time=54\n",
      "note_on channel=1 note=64 velocity=120 time=7\n",
      "note_on channel=1 note=64 velocity=0 time=51\n",
      "note_on channel=1 note=67 velocity=120 time=9\n",
      "note_on channel=1 note=67 velocity=0 time=51\n",
      "note_on channel=1 note=69 velocity=120 time=69\n",
      "note_on channel=1 note=69 velocity=0 time=52\n",
      "note_on channel=1 note=64 velocity=120 time=8\n",
      "note_on channel=1 note=64 velocity=0 time=52\n",
      "note_on channel=1 note=67 velocity=120 time=8\n",
      "note_on channel=1 note=67 velocity=0 time=52\n",
      "note_on channel=1 note=69 velocity=120 time=69\n",
      "note_on channel=1 note=69 velocity=0 time=52\n",
      "note_on channel=1 note=64 velocity=120 time=6\n",
      "note_on channel=1 note=64 velocity=0 time=53\n",
      "note_on channel=1 note=67 velocity=120 time=9\n",
      "note_on channel=1 note=67 velocity=0 time=52\n",
      "note_on channel=1 note=69 velocity=120 time=7\n",
      "note_on channel=1 note=69 velocity=0 time=52\n",
      "note_on channel=1 note=69 velocity=120 time=10\n",
      "note_on channel=1 note=69 velocity=0 time=50\n",
      "note_on channel=1 note=69 velocity=120 time=70\n",
      "note_on channel=1 note=69 velocity=0 time=51\n",
      "note_on channel=1 note=69 velocity=120 time=7\n",
      "note_on channel=1 note=69 velocity=0 time=52\n",
      "note_on channel=1 note=69 velocity=120 time=10\n",
      "note_on channel=1 note=69 velocity=0 time=51\n",
      "note_on channel=1 note=64 velocity=120 time=9\n",
      "note_on channel=1 note=64 velocity=0 time=50\n",
      "note_on channel=1 note=67 velocity=120 time=8\n",
      "note_on channel=1 note=67 velocity=0 time=53\n",
      "note_on channel=1 note=69 velocity=120 time=67\n",
      "note_on channel=1 note=69 velocity=0 time=52\n",
      "note_on channel=1 note=64 velocity=120 time=8\n",
      "note_on channel=1 note=64 velocity=0 time=51\n",
      "note_on channel=1 note=67 velocity=120 time=9\n",
      "note_on channel=1 note=67 velocity=0 time=52\n",
      "note_on channel=1 note=69 velocity=120 time=68\n",
      "note_on channel=1 note=69 velocity=0 time=52\n",
      "note_on channel=1 note=64 velocity=120 time=8\n",
      "note_on channel=1 note=64 velocity=0 time=51\n",
      "note_on channel=1 note=67 velocity=120 time=9\n",
      "note_on channel=1 note=67 velocity=0 time=52\n",
      "note_on channel=1 note=69 velocity=120 time=8\n",
      "note_on channel=1 note=69 velocity=0 time=52\n",
      "note_on channel=1 note=69 velocity=120 time=8\n",
      "note_on channel=1 note=69 velocity=0 time=52\n",
      "note_on channel=1 note=69 velocity=120 time=68\n",
      "note_on channel=1 note=69 velocity=0 time=53\n",
      "note_on channel=1 note=69 velocity=120 time=8\n",
      "note_on channel=1 note=69 velocity=0 time=51\n",
      "note_on channel=1 note=69 velocity=120 time=8\n",
      "note_on channel=1 note=69 velocity=0 time=52\n",
      "note_on channel=1 note=64 velocity=120 time=8\n",
      "note_on channel=1 note=64 velocity=0 time=51\n",
      "note_on channel=1 note=67 velocity=120 time=9\n",
      "note_on channel=1 note=67 velocity=0 time=52\n",
      "note_on channel=1 note=69 velocity=120 time=68\n",
      "note_on channel=1 note=69 velocity=0 time=52\n",
      "note_on channel=1 note=64 velocity=120 time=8\n",
      "note_on channel=1 note=64 velocity=0 time=52\n",
      "note_on channel=1 note=67 velocity=120 time=8\n",
      "note_on channel=1 note=67 velocity=0 time=52\n",
      "note_on channel=1 note=69 velocity=120 time=70\n",
      "note_on channel=1 note=69 velocity=0 time=51\n",
      "note_on channel=1 note=64 velocity=120 time=6\n",
      "note_on channel=1 note=64 velocity=0 time=54\n",
      "note_on channel=1 note=67 velocity=120 time=8\n",
      "note_on channel=1 note=67 velocity=0 time=51\n",
      "note_on channel=1 note=69 velocity=120 time=8\n",
      "note_on channel=1 note=69 velocity=0 time=52\n",
      "note_on channel=1 note=69 velocity=120 time=10\n",
      "note_on channel=1 note=69 velocity=0 time=50\n",
      "note_on channel=1 note=69 velocity=120 time=70\n",
      "note_on channel=1 note=69 velocity=0 time=51\n",
      "note_on channel=1 note=69 velocity=120 time=7\n",
      "note_on channel=1 note=69 velocity=0 time=52\n",
      "note_on channel=1 note=69 velocity=120 time=10\n",
      "note_on channel=1 note=69 velocity=0 time=50\n",
      "note_on channel=1 note=64 velocity=120 time=9\n",
      "note_on channel=1 note=64 velocity=0 time=51\n",
      "note_on channel=1 note=67 velocity=120 time=7\n",
      "note_on channel=1 note=67 velocity=0 time=54\n",
      "note_on channel=1 note=69 velocity=120 time=67\n",
      "note_on channel=1 note=69 velocity=0 time=54\n",
      "note_on channel=1 note=64 velocity=120 time=6\n",
      "note_on channel=1 note=64 velocity=0 time=52\n",
      "note_on channel=1 note=67 velocity=120 time=8\n",
      "note_on channel=1 note=67 velocity=0 time=52\n",
      "note_on channel=1 note=69 velocity=120 time=68\n",
      "note_on channel=1 note=69 velocity=0 time=52\n",
      "note_on channel=1 note=64 velocity=120 time=9\n",
      "note_on channel=1 note=64 velocity=0 time=51\n",
      "note_on channel=1 note=67 velocity=120 time=8\n",
      "note_on channel=1 note=67 velocity=0 time=52\n",
      "note_on channel=1 note=69 velocity=120 time=8\n",
      "note_on channel=1 note=69 velocity=0 time=52\n",
      "note_on channel=1 note=69 velocity=120 time=7\n",
      "note_on channel=1 note=69 velocity=0 time=53\n",
      "note_on channel=1 note=69 velocity=120 time=68\n",
      "note_on channel=1 note=69 velocity=0 time=52\n",
      "note_on channel=1 note=62 velocity=120 time=10\n",
      "note_on channel=1 note=62 velocity=0 time=50\n",
      "note_on channel=1 note=62 velocity=120 time=8\n",
      "note_on channel=1 note=62 velocity=0 time=52\n",
      "note_on channel=1 note=57 velocity=120 time=8\n",
      "note_on channel=1 note=57 velocity=0 time=52\n",
      "note_on channel=1 note=60 velocity=120 time=9\n",
      "note_on channel=1 note=60 velocity=0 time=51\n",
      "note_on channel=1 note=62 velocity=120 time=68\n",
      "note_on channel=1 note=62 velocity=0 time=52\n",
      "note_on channel=1 note=57 velocity=120 time=8\n",
      "note_on channel=1 note=57 velocity=0 time=52\n",
      "note_on channel=1 note=60 velocity=120 time=7\n",
      "note_on channel=1 note=60 velocity=0 time=54\n",
      "note_on channel=1 note=62 velocity=120 time=69\n",
      "note_on channel=1 note=62 velocity=0 time=51\n",
      "note_on channel=1 note=57 velocity=120 time=7\n",
      "note_on channel=1 note=57 velocity=0 time=52\n",
      "note_on channel=1 note=60 velocity=120 time=10\n",
      "note_on channel=1 note=60 velocity=0 time=50\n",
      "note_on channel=1 note=62 velocity=120 time=8\n",
      "note_on channel=1 note=62 velocity=0 time=52\n",
      "note_on channel=1 note=62 velocity=120 time=10\n",
      "note_on channel=1 note=62 velocity=0 time=51\n",
      "note_on channel=1 note=62 velocity=120 time=69\n",
      "note_on channel=1 note=62 velocity=0 time=51\n",
      "note_on channel=1 note=69 velocity=120 time=9\n",
      "note_on channel=1 note=69 velocity=0 time=51\n",
      "note_on channel=1 note=69 velocity=120 time=6\n",
      "note_on channel=1 note=69 velocity=0 time=53\n",
      "note_on channel=1 note=64 velocity=120 time=7\n",
      "note_on channel=1 note=64 velocity=0 time=53\n",
      "note_on channel=1 note=67 velocity=120 time=8\n",
      "note_on channel=1 note=67 velocity=0 time=53\n",
      "note_on channel=1 note=69 velocity=120 time=67\n",
      "note_on channel=1 note=69 velocity=0 time=52\n",
      "note_on channel=1 note=64 velocity=120 time=8\n",
      "note_on channel=1 note=64 velocity=0 time=52\n",
      "note_on channel=1 note=67 velocity=120 time=8\n",
      "note_on channel=1 note=67 velocity=0 time=51\n",
      "note_on channel=1 note=69 velocity=120 time=71\n",
      "note_on channel=1 note=69 velocity=0 time=51\n",
      "note_on channel=1 note=64 velocity=120 time=7\n",
      "note_on channel=1 note=64 velocity=0 time=52\n",
      "note_on channel=1 note=67 velocity=120 time=9\n",
      "note_on channel=1 note=67 velocity=0 time=52\n",
      "note_on channel=1 note=69 velocity=120 time=6\n",
      "note_on channel=1 note=69 velocity=0 time=53\n",
      "note_on channel=1 note=69 velocity=120 time=9\n",
      "note_on channel=1 note=69 velocity=0 time=52\n",
      "note_on channel=1 note=69 velocity=120 time=69\n",
      "note_on channel=1 note=69 velocity=0 time=49\n",
      "note_on channel=1 note=59 velocity=120 time=11\n",
      "note_on channel=1 note=59 velocity=0 time=50\n",
      "note_on channel=1 note=59 velocity=120 time=8\n",
      "note_on channel=1 note=59 velocity=0 time=52\n",
      "note_on channel=1 note=54 velocity=120 time=8\n",
      "note_on channel=1 note=54 velocity=0 time=52\n",
      "note_on channel=1 note=57 velocity=120 time=8\n",
      "note_on channel=1 note=57 velocity=0 time=51\n",
      "note_on channel=1 note=59 velocity=120 time=69\n",
      "note_on channel=1 note=59 velocity=0 time=52\n",
      "note_on channel=1 note=54 velocity=120 time=9\n",
      "note_on channel=1 note=54 velocity=0 time=52\n",
      "note_on channel=1 note=57 velocity=120 time=7\n",
      "note_on channel=1 note=57 velocity=0 time=53\n",
      "note_on channel=1 note=64 velocity=120 time=7\n",
      "note_on channel=1 note=64 velocity=0 time=52\n",
      "note_on channel=1 note=64 velocity=120 time=8\n",
      "note_on channel=1 note=64 velocity=0 time=52\n",
      "note_on channel=1 note=59 velocity=120 time=10\n",
      "note_on channel=1 note=59 velocity=0 time=50\n",
      "note_on channel=1 note=62 velocity=120 time=8\n",
      "note_on channel=1 note=62 velocity=0 time=52\n",
      "note_on channel=1 note=64 velocity=120 time=10\n",
      "note_on channel=1 note=64 velocity=0 time=50\n",
      "note_on channel=1 note=64 velocity=120 time=8\n",
      "note_on channel=1 note=64 velocity=0 time=53\n",
      "note_on channel=1 note=64 velocity=120 time=67\n",
      "note_on channel=1 note=64 velocity=0 time=53\n",
      "note_on channel=1 note=69 velocity=120 time=8\n",
      "note_on channel=1 note=69 velocity=0 time=51\n",
      "note_on channel=1 note=69 velocity=120 time=7\n",
      "note_on channel=1 note=69 velocity=0 time=54\n",
      "note_on channel=1 note=64 velocity=120 time=7\n",
      "note_on channel=1 note=64 velocity=0 time=51\n",
      "note_on channel=1 note=67 velocity=120 time=9\n",
      "note_on channel=1 note=67 velocity=0 time=52\n",
      "note_on channel=1 note=69 velocity=120 time=68\n",
      "note_on channel=1 note=69 velocity=0 time=52\n",
      "note_on channel=1 note=64 velocity=120 time=8\n",
      "note_on channel=1 note=64 velocity=0 time=52\n",
      "note_on channel=1 note=67 velocity=120 time=8\n",
      "note_on channel=1 note=67 velocity=0 time=53\n",
      "note_on channel=1 note=69 velocity=120 time=69\n",
      "note_on channel=1 note=69 velocity=0 time=50\n",
      "note_on channel=1 note=64 velocity=120 time=9\n",
      "note_on channel=1 note=64 velocity=0 time=52\n",
      "note_on channel=1 note=67 velocity=120 time=8\n",
      "note_on channel=1 note=67 velocity=0 time=52\n",
      "note_on channel=1 note=69 velocity=120 time=8\n",
      "note_on channel=1 note=69 velocity=0 time=52\n",
      "note_on channel=1 note=69 velocity=120 time=9\n",
      "note_on channel=1 note=69 velocity=0 time=50\n",
      "note_on channel=1 note=81 velocity=120 time=218\n",
      "note_on channel=1 note=81 velocity=0 time=472\n",
      "note_on channel=1 note=83 velocity=120 time=128\n",
      "note_on channel=1 note=83 velocity=0 time=232\n",
      "note_on channel=1 note=81 velocity=120 time=8\n",
      "note_on channel=1 note=81 velocity=0 time=113\n",
      "note_on channel=1 note=79 velocity=120 time=7\n",
      "note_on channel=1 note=79 velocity=0 time=952\n",
      "note_on channel=1 note=77 velocity=120 time=8\n",
      "note_on channel=1 note=77 velocity=0 time=472\n",
      "note_on channel=1 note=79 velocity=120 time=128\n",
      "note_on channel=1 note=79 velocity=0 time=233\n",
      "note_on channel=1 note=77 velocity=120 time=7\n",
      "note_on channel=1 note=77 velocity=0 time=112\n",
      "note_on channel=1 note=76 velocity=120 time=8\n",
      "note_on channel=1 note=76 velocity=0 time=112\n",
      "note_on channel=1 note=77 velocity=120 time=8\n",
      "note_on channel=1 note=77 velocity=0 time=112\n",
      "note_on channel=1 note=78 velocity=120 time=8\n",
      "note_on channel=1 note=78 velocity=0 time=112\n",
      "note_on channel=1 note=79 velocity=120 time=7\n",
      "note_on channel=1 note=79 velocity=0 time=113\n",
      "note_on channel=1 note=81 velocity=120 time=487\n",
      "note_on channel=1 note=81 velocity=0 time=474\n",
      "note_on channel=1 note=83 velocity=120 time=127\n",
      "note_on channel=1 note=83 velocity=0 time=232\n",
      "note_on channel=1 note=81 velocity=120 time=8\n",
      "note_on channel=1 note=81 velocity=0 time=112\n",
      "note_on channel=1 note=79 velocity=120 time=8\n",
      "note_on channel=1 note=79 velocity=0 time=112\n",
      "note_on channel=1 note=79 velocity=120 time=8\n",
      "note_on channel=1 note=79 velocity=0 time=112\n",
      "note_on channel=1 note=86 velocity=120 time=8\n",
      "note_on channel=1 note=86 velocity=0 time=113\n",
      "note_on channel=1 note=84 velocity=120 time=7\n",
      "note_on channel=1 note=84 velocity=0 time=351\n",
      "note_on channel=1 note=81 velocity=120 time=249\n",
      "note_on channel=1 note=81 velocity=0 time=53\n",
      "note_on channel=1 note=81 velocity=120 time=6\n",
      "note_on channel=1 note=81 velocity=0 time=54\n",
      "note_on channel=1 note=81 velocity=120 time=67\n",
      "note_on channel=1 note=81 velocity=0 time=52\n",
      "note_on channel=1 note=81 velocity=120 time=8\n",
      "note_on channel=1 note=81 velocity=0 time=52\n",
      "note_on channel=1 note=81 velocity=120 time=8\n",
      "note_on channel=1 note=81 velocity=0 time=52\n",
      "note_on channel=1 note=81 velocity=120 time=8\n",
      "note_on channel=1 note=81 velocity=0 time=52\n",
      "note_on channel=1 note=81 velocity=120 time=68\n",
      "note_on channel=1 note=81 velocity=0 time=52\n",
      "note_on channel=1 note=81 velocity=120 time=7\n",
      "note_on channel=1 note=81 velocity=0 time=114\n",
      "note_on channel=1 note=81 velocity=120 time=7\n",
      "note_on channel=1 note=81 velocity=0 time=53\n",
      "note_on channel=1 note=83 velocity=120 time=7\n",
      "note_on channel=1 note=83 velocity=0 time=112\n",
      "note_on channel=1 note=81 velocity=120 time=8\n",
      "note_on channel=1 note=81 velocity=0 time=591\n",
      "note_on channel=1 note=80 velocity=120 time=9\n",
      "note_on channel=1 note=80 velocity=0 time=1\n",
      "control_change channel=1 control=120 value=0 time=0\n",
      "control_change channel=1 control=121 value=0 time=0\n",
      "control_change channel=1 control=123 value=0 time=0\n",
      "control_change channel=1 control=124 value=0 time=0\n",
      "control_change channel=1 control=64 value=0 time=0\n",
      "<meta message end_of_track time=0>\n",
      "Track 2: \n",
      "<meta message set_tempo tempo=750000 time=0>\n",
      "control_change channel=2 control=7 value=100 time=0\n",
      "program_change channel=2 program=0 time=0\n",
      "note_on channel=2 note=40 velocity=120 time=1082\n",
      "note_on channel=2 note=40 velocity=0 time=106\n",
      "note_on channel=2 note=40 velocity=120 time=12\n",
      "note_on channel=2 note=40 velocity=0 time=108\n",
      "note_on channel=2 note=47 velocity=120 time=12\n",
      "note_on channel=2 note=47 velocity=0 time=48\n",
      "note_on channel=2 note=47 velocity=120 time=8\n",
      "note_on channel=2 note=47 velocity=0 time=113\n",
      "note_on channel=2 note=47 velocity=120 time=10\n",
      "note_on channel=2 note=47 velocity=0 time=50\n",
      "note_on channel=2 note=40 velocity=120 time=7\n",
      "note_on channel=2 note=40 velocity=0 time=52\n",
      "note_on channel=2 note=40 velocity=120 time=11\n",
      "note_on channel=2 note=40 velocity=0 time=109\n",
      "note_on channel=2 note=40 velocity=120 time=12\n",
      "note_on channel=2 note=40 velocity=0 time=48\n",
      "note_on channel=2 note=52 velocity=120 time=12\n",
      "note_on channel=2 note=52 velocity=0 time=108\n",
      "note_on channel=2 note=40 velocity=120 time=12\n",
      "note_on channel=2 note=40 velocity=0 time=108\n",
      "note_on channel=2 note=40 velocity=120 time=11\n",
      "note_on channel=2 note=40 velocity=0 time=110\n",
      "note_on channel=2 note=40 velocity=120 time=10\n",
      "note_on channel=2 note=40 velocity=0 time=109\n",
      "note_on channel=2 note=47 velocity=120 time=12\n",
      "note_on channel=2 note=47 velocity=0 time=48\n",
      "note_on channel=2 note=47 velocity=120 time=11\n",
      "note_on channel=2 note=47 velocity=0 time=109\n",
      "note_on channel=2 note=47 velocity=120 time=12\n",
      "note_on channel=2 note=47 velocity=0 time=49\n",
      "note_on channel=2 note=40 velocity=120 time=11\n",
      "note_on channel=2 note=40 velocity=0 time=48\n",
      "note_on channel=2 note=40 velocity=120 time=12\n",
      "note_on channel=2 note=40 velocity=0 time=108\n",
      "note_on channel=2 note=40 velocity=120 time=11\n",
      "note_on channel=2 note=40 velocity=0 time=50\n",
      "note_on channel=2 note=52 velocity=120 time=10\n",
      "note_on channel=2 note=52 velocity=0 time=109\n",
      "note_on channel=2 note=40 velocity=120 time=11\n",
      "note_on channel=2 note=40 velocity=0 time=110\n",
      "note_on channel=2 note=45 velocity=120 time=11\n",
      "note_on channel=2 note=45 velocity=0 time=6\n",
      "note_on channel=2 note=45 velocity=120 time=1\n",
      "note_on channel=2 note=45 velocity=0 time=12\n",
      "note_on channel=2 note=45 velocity=120 time=0\n",
      "note_on channel=2 note=45 velocity=0 time=71\n",
      "note_on channel=2 note=45 velocity=120 time=0\n",
      "note_on channel=2 note=45 velocity=0 time=5\n",
      "note_on channel=2 note=45 velocity=120 time=1\n",
      "note_on channel=2 note=45 velocity=0 time=12\n",
      "note_on channel=2 note=45 velocity=120 time=8\n",
      "note_on channel=2 note=45 velocity=0 time=10\n",
      "note_on channel=2 note=45 velocity=120 time=0\n",
      "note_on channel=2 note=45 velocity=0 time=15\n",
      "note_on channel=2 note=45 velocity=120 time=0\n",
      "note_on channel=2 note=45 velocity=0 time=65\n",
      "note_on channel=2 note=45 velocity=120 time=1\n",
      "note_on channel=2 note=45 velocity=0 time=9\n",
      "note_on channel=2 note=45 velocity=120 time=0\n",
      "note_on channel=2 note=45 velocity=0 time=13\n",
      "note_on channel=2 note=52 velocity=120 time=6\n",
      "note_on channel=2 note=52 velocity=0 time=53\n",
      "note_on channel=2 note=52 velocity=120 time=9\n",
      "note_on channel=2 note=52 velocity=0 time=112\n",
      "note_on channel=2 note=52 velocity=120 time=8\n",
      "note_on channel=2 note=52 velocity=0 time=52\n",
      "note_on channel=2 note=45 velocity=120 time=9\n",
      "note_on channel=2 note=45 velocity=0 time=8\n",
      "note_on channel=2 note=45 velocity=120 time=0\n",
      "note_on channel=2 note=45 velocity=0 time=12\n",
      "note_on channel=2 note=45 velocity=120 time=1\n",
      "note_on channel=2 note=45 velocity=0 time=29\n",
      "note_on channel=2 note=45 velocity=120 time=11\n",
      "note_on channel=2 note=45 velocity=0 time=7\n",
      "note_on channel=2 note=45 velocity=120 time=0\n",
      "note_on channel=2 note=45 velocity=0 time=12\n",
      "note_on channel=2 note=45 velocity=120 time=0\n",
      "note_on channel=2 note=45 velocity=0 time=68\n",
      "note_on channel=2 note=45 velocity=120 time=0\n",
      "note_on channel=2 note=45 velocity=0 time=10\n",
      "note_on channel=2 note=45 velocity=120 time=0\n",
      "note_on channel=2 note=45 velocity=0 time=13\n",
      "note_on channel=2 note=45 velocity=120 time=11\n",
      "note_on channel=2 note=45 velocity=0 time=5\n",
      "note_on channel=2 note=45 velocity=120 time=1\n",
      "note_on channel=2 note=45 velocity=0 time=12\n",
      "note_on channel=2 note=45 velocity=120 time=1\n",
      "note_on channel=2 note=45 velocity=0 time=29\n",
      "note_on channel=2 note=52 velocity=120 time=10\n",
      "note_on channel=2 note=52 velocity=0 time=111\n",
      "note_on channel=2 note=40 velocity=120 time=7\n",
      "note_on channel=2 note=40 velocity=0 time=113\n",
      "note_on channel=2 note=45 velocity=120 time=8\n",
      "note_on channel=2 note=45 velocity=0 time=9\n",
      "note_on channel=2 note=45 velocity=120 time=0\n",
      "note_on channel=2 note=45 velocity=0 time=13\n",
      "note_on channel=2 note=45 velocity=120 time=0\n",
      "note_on channel=2 note=45 velocity=0 time=67\n",
      "note_on channel=2 note=45 velocity=120 time=0\n",
      "note_on channel=2 note=45 velocity=0 time=10\n",
      "note_on channel=2 note=45 velocity=120 time=0\n",
      "note_on channel=2 note=45 velocity=0 time=12\n",
      "note_on channel=2 note=45 velocity=120 time=11\n",
      "note_on channel=2 note=45 velocity=0 time=7\n",
      "note_on channel=2 note=45 velocity=120 time=0\n",
      "note_on channel=2 note=45 velocity=0 time=12\n",
      "note_on channel=2 note=45 velocity=120 time=0\n",
      "note_on channel=2 note=45 velocity=0 time=68\n",
      "note_on channel=2 note=45 velocity=120 time=0\n",
      "note_on channel=2 note=45 velocity=0 time=10\n",
      "note_on channel=2 note=45 velocity=120 time=0\n",
      "note_on channel=2 note=45 velocity=0 time=12\n",
      "note_on channel=2 note=52 velocity=120 time=8\n",
      "note_on channel=2 note=52 velocity=0 time=52\n",
      "note_on channel=2 note=52 velocity=120 time=10\n",
      "note_on channel=2 note=52 velocity=0 time=111\n",
      "note_on channel=2 note=52 velocity=120 time=9\n",
      "note_on channel=2 note=52 velocity=0 time=51\n",
      "note_on channel=2 note=45 velocity=120 time=7\n",
      "note_on channel=2 note=45 velocity=0 time=10\n",
      "note_on channel=2 note=45 velocity=120 time=0\n",
      "note_on channel=2 note=45 velocity=0 time=13\n",
      "note_on channel=2 note=45 velocity=120 time=0\n",
      "note_on channel=2 note=45 velocity=0 time=30\n",
      "note_on channel=2 note=45 velocity=120 time=8\n",
      "note_on channel=2 note=45 velocity=0 time=9\n",
      "note_on channel=2 note=45 velocity=120 time=0\n",
      "note_on channel=2 note=45 velocity=0 time=13\n",
      "note_on channel=2 note=45 velocity=120 time=0\n",
      "note_on channel=2 note=45 velocity=0 time=67\n",
      "note_on channel=2 note=45 velocity=120 time=0\n",
      "note_on channel=2 note=45 velocity=0 time=10\n",
      "note_on channel=2 note=45 velocity=120 time=0\n",
      "note_on channel=2 note=45 velocity=0 time=13\n",
      "note_on channel=2 note=45 velocity=120 time=9\n",
      "note_on channel=2 note=45 velocity=0 time=8\n",
      "note_on channel=2 note=45 velocity=120 time=0\n",
      "note_on channel=2 note=45 velocity=0 time=13\n",
      "note_on channel=2 note=45 velocity=120 time=0\n",
      "note_on channel=2 note=45 velocity=0 time=29\n",
      "note_on channel=2 note=52 velocity=120 time=10\n",
      "note_on channel=2 note=52 velocity=0 time=110\n",
      "note_on channel=2 note=40 velocity=120 time=8\n",
      "note_on channel=2 note=40 velocity=0 time=113\n",
      "note_on channel=2 note=45 velocity=120 time=11\n",
      "note_on channel=2 note=45 velocity=0 time=5\n",
      "note_on channel=2 note=45 velocity=120 time=1\n",
      "note_on channel=2 note=45 velocity=0 time=13\n",
      "note_on channel=2 note=45 velocity=120 time=0\n",
      "note_on channel=2 note=45 velocity=0 time=69\n",
      "note_on channel=2 note=45 velocity=120 time=0\n",
      "note_on channel=2 note=45 velocity=0 time=8\n",
      "note_on channel=2 note=45 velocity=120 time=0\n",
      "note_on channel=2 note=45 velocity=0 time=13\n",
      "note_on channel=2 note=45 velocity=120 time=9\n",
      "note_on channel=2 note=45 velocity=0 time=8\n",
      "note_on channel=2 note=45 velocity=120 time=0\n",
      "note_on channel=2 note=45 velocity=0 time=13\n",
      "note_on channel=2 note=45 velocity=120 time=1\n",
      "note_on channel=2 note=45 velocity=0 time=66\n",
      "note_on channel=2 note=45 velocity=120 time=0\n",
      "note_on channel=2 note=45 velocity=0 time=10\n",
      "note_on channel=2 note=45 velocity=120 time=0\n",
      "note_on channel=2 note=45 velocity=0 time=13\n",
      "note_on channel=2 note=52 velocity=120 time=6\n",
      "note_on channel=2 note=52 velocity=0 time=53\n",
      "note_on channel=2 note=52 velocity=120 time=9\n",
      "note_on channel=2 note=52 velocity=0 time=110\n",
      "note_on channel=2 note=52 velocity=120 time=11\n",
      "note_on channel=2 note=52 velocity=0 time=51\n",
      "note_on channel=2 note=45 velocity=120 time=9\n",
      "note_on channel=2 note=45 velocity=0 time=8\n",
      "note_on channel=2 note=45 velocity=120 time=0\n",
      "note_on channel=2 note=45 velocity=0 time=11\n",
      "note_on channel=2 note=45 velocity=120 time=0\n",
      "note_on channel=2 note=45 velocity=0 time=31\n",
      "note_on channel=2 note=45 velocity=120 time=12\n",
      "note_on channel=2 note=45 velocity=0 time=6\n",
      "note_on channel=2 note=45 velocity=120 time=0\n",
      "note_on channel=2 note=45 velocity=0 time=12\n",
      "note_on channel=2 note=45 velocity=120 time=1\n",
      "note_on channel=2 note=45 velocity=0 time=67\n",
      "note_on channel=2 note=45 velocity=120 time=0\n",
      "note_on channel=2 note=45 velocity=0 time=9\n",
      "note_on channel=2 note=45 velocity=120 time=1\n",
      "note_on channel=2 note=45 velocity=0 time=12\n",
      "note_on channel=2 note=45 velocity=120 time=12\n",
      "note_on channel=2 note=45 velocity=0 time=5\n",
      "note_on channel=2 note=45 velocity=120 time=1\n",
      "note_on channel=2 note=45 velocity=0 time=12\n",
      "note_on channel=2 note=45 velocity=120 time=1\n",
      "note_on channel=2 note=45 velocity=0 time=29\n",
      "note_on channel=2 note=52 velocity=120 time=10\n",
      "note_on channel=2 note=52 velocity=0 time=111\n",
      "note_on channel=2 note=40 velocity=120 time=6\n",
      "note_on channel=2 note=40 velocity=0 time=115\n",
      "note_on channel=2 note=45 velocity=120 time=7\n",
      "note_on channel=2 note=45 velocity=0 time=9\n",
      "note_on channel=2 note=45 velocity=120 time=0\n",
      "note_on channel=2 note=45 velocity=0 time=12\n",
      "note_on channel=2 note=45 velocity=120 time=0\n",
      "note_on channel=2 note=45 velocity=0 time=68\n",
      "note_on channel=2 note=45 velocity=120 time=0\n",
      "note_on channel=2 note=45 velocity=0 time=10\n",
      "note_on channel=2 note=45 velocity=120 time=0\n",
      "note_on channel=2 note=45 velocity=0 time=13\n",
      "note_on channel=2 note=45 velocity=120 time=11\n",
      "note_on channel=2 note=45 velocity=0 time=6\n",
      "note_on channel=2 note=45 velocity=120 time=0\n",
      "note_on channel=2 note=45 velocity=0 time=12\n",
      "note_on channel=2 note=45 velocity=120 time=0\n",
      "note_on channel=2 note=45 velocity=0 time=68\n",
      "note_on channel=2 note=45 velocity=120 time=0\n",
      "note_on channel=2 note=45 velocity=0 time=9\n",
      "note_on channel=2 note=45 velocity=120 time=1\n",
      "note_on channel=2 note=45 velocity=0 time=13\n",
      "note_on channel=2 note=52 velocity=120 time=7\n",
      "note_on channel=2 note=52 velocity=0 time=52\n",
      "note_on channel=2 note=52 velocity=120 time=10\n",
      "note_on channel=2 note=52 velocity=0 time=111\n",
      "note_on channel=2 note=52 velocity=120 time=9\n",
      "note_on channel=2 note=52 velocity=0 time=51\n",
      "note_on channel=2 note=45 velocity=120 time=7\n",
      "note_on channel=2 note=45 velocity=0 time=10\n",
      "note_on channel=2 note=45 velocity=120 time=0\n",
      "note_on channel=2 note=45 velocity=0 time=12\n",
      "note_on channel=2 note=45 velocity=120 time=0\n",
      "note_on channel=2 note=45 velocity=0 time=31\n",
      "note_on channel=2 note=45 velocity=120 time=8\n",
      "note_on channel=2 note=45 velocity=0 time=9\n",
      "note_on channel=2 note=45 velocity=120 time=0\n",
      "note_on channel=2 note=45 velocity=0 time=13\n",
      "note_on channel=2 note=45 velocity=120 time=0\n",
      "note_on channel=2 note=45 velocity=0 time=67\n",
      "note_on channel=2 note=45 velocity=120 time=0\n",
      "note_on channel=2 note=45 velocity=0 time=10\n",
      "note_on channel=2 note=45 velocity=120 time=0\n",
      "note_on channel=2 note=45 velocity=0 time=12\n",
      "note_on channel=2 note=45 velocity=120 time=10\n",
      "note_on channel=2 note=45 velocity=0 time=8\n",
      "note_on channel=2 note=45 velocity=120 time=0\n",
      "note_on channel=2 note=45 velocity=0 time=12\n",
      "note_on channel=2 note=45 velocity=120 time=0\n",
      "note_on channel=2 note=45 velocity=0 time=30\n",
      "note_on channel=2 note=52 velocity=120 time=10\n",
      "note_on channel=2 note=52 velocity=0 time=111\n",
      "note_on channel=2 note=40 velocity=120 time=7\n",
      "note_on channel=2 note=40 velocity=0 time=112\n",
      "note_on channel=2 note=38 velocity=120 time=12\n",
      "note_on channel=2 note=38 velocity=0 time=6\n",
      "note_on channel=2 note=38 velocity=120 time=0\n",
      "note_on channel=2 note=38 velocity=0 time=12\n",
      "note_on channel=2 note=38 velocity=120 time=1\n",
      "note_on channel=2 note=38 velocity=0 time=67\n",
      "note_on channel=2 note=38 velocity=120 time=0\n",
      "note_on channel=2 note=38 velocity=0 time=10\n",
      "note_on channel=2 note=38 velocity=120 time=0\n",
      "note_on channel=2 note=38 velocity=0 time=13\n",
      "note_on channel=2 note=38 velocity=120 time=8\n",
      "note_on channel=2 note=38 velocity=0 time=9\n",
      "note_on channel=2 note=38 velocity=120 time=0\n",
      "note_on channel=2 note=38 velocity=0 time=12\n",
      "note_on channel=2 note=38 velocity=120 time=1\n",
      "note_on channel=2 note=38 velocity=0 time=67\n",
      "note_on channel=2 note=38 velocity=120 time=0\n",
      "note_on channel=2 note=38 velocity=0 time=10\n",
      "note_on channel=2 note=38 velocity=120 time=0\n",
      "note_on channel=2 note=38 velocity=0 time=12\n",
      "note_on channel=2 note=45 velocity=120 time=8\n",
      "note_on channel=2 note=45 velocity=0 time=10\n",
      "note_on channel=2 note=45 velocity=120 time=0\n",
      "note_on channel=2 note=45 velocity=0 time=13\n",
      "note_on channel=2 note=45 velocity=120 time=0\n",
      "note_on channel=2 note=45 velocity=0 time=29\n",
      "note_on channel=2 note=45 velocity=120 time=9\n",
      "note_on channel=2 note=45 velocity=0 time=9\n",
      "note_on channel=2 note=45 velocity=120 time=4\n",
      "note_on channel=2 note=45 velocity=0 time=7\n",
      "note_on channel=2 note=45 velocity=120 time=0\n",
      "note_on channel=2 note=45 velocity=0 time=69\n",
      "note_on channel=2 note=45 velocity=120 time=0\n",
      "note_on channel=2 note=45 velocity=0 time=10\n",
      "note_on channel=2 note=45 velocity=120 time=0\n",
      "note_on channel=2 note=45 velocity=0 time=12\n",
      "note_on channel=2 note=45 velocity=120 time=10\n",
      "note_on channel=2 note=45 velocity=0 time=8\n",
      "note_on channel=2 note=45 velocity=120 time=0\n"
     ]
    },
    {
     "name": "stdout",
     "output_type": "stream",
     "text": [
      "note_on channel=2 note=45 velocity=0 time=12\n",
      "note_on channel=2 note=45 velocity=120 time=0\n",
      "note_on channel=2 note=45 velocity=0 time=30\n",
      "note_on channel=2 note=38 velocity=120 time=10\n",
      "note_on channel=2 note=38 velocity=0 time=7\n",
      "note_on channel=2 note=38 velocity=120 time=1\n",
      "note_on channel=2 note=38 velocity=0 time=12\n",
      "note_on channel=2 note=38 velocity=120 time=0\n",
      "note_on channel=2 note=38 velocity=0 time=31\n",
      "note_on channel=2 note=38 velocity=120 time=11\n",
      "note_on channel=2 note=38 velocity=0 time=5\n",
      "note_on channel=2 note=38 velocity=120 time=1\n",
      "note_on channel=2 note=38 velocity=0 time=12\n",
      "note_on channel=2 note=38 velocity=120 time=1\n",
      "note_on channel=2 note=38 velocity=0 time=67\n",
      "note_on channel=2 note=38 velocity=120 time=0\n",
      "note_on channel=2 note=38 velocity=0 time=10\n",
      "note_on channel=2 note=38 velocity=120 time=0\n",
      "note_on channel=2 note=38 velocity=0 time=12\n",
      "note_on channel=2 note=38 velocity=120 time=12\n",
      "note_on channel=2 note=38 velocity=0 time=6\n",
      "note_on channel=2 note=38 velocity=120 time=0\n",
      "note_on channel=2 note=38 velocity=0 time=13\n",
      "note_on channel=2 note=38 velocity=120 time=0\n",
      "note_on channel=2 note=38 velocity=0 time=30\n",
      "note_on channel=2 note=45 velocity=120 time=8\n",
      "note_on channel=2 note=45 velocity=0 time=9\n",
      "note_on channel=2 note=45 velocity=120 time=0\n",
      "note_on channel=2 note=45 velocity=0 time=12\n",
      "note_on channel=2 note=45 velocity=120 time=0\n",
      "note_on channel=2 note=45 velocity=0 time=68\n",
      "note_on channel=2 note=45 velocity=120 time=0\n",
      "note_on channel=2 note=45 velocity=0 time=10\n",
      "note_on channel=2 note=45 velocity=120 time=0\n",
      "note_on channel=2 note=45 velocity=0 time=13\n",
      "note_on channel=2 note=38 velocity=120 time=7\n",
      "note_on channel=2 note=38 velocity=0 time=10\n",
      "note_on channel=2 note=38 velocity=120 time=0\n",
      "note_on channel=2 note=38 velocity=0 time=12\n",
      "note_on channel=2 note=38 velocity=120 time=0\n",
      "note_on channel=2 note=38 velocity=0 time=68\n",
      "note_on channel=2 note=38 velocity=120 time=0\n",
      "note_on channel=2 note=38 velocity=0 time=10\n",
      "note_on channel=2 note=38 velocity=120 time=0\n",
      "note_on channel=2 note=38 velocity=0 time=13\n",
      "note_on channel=2 note=45 velocity=120 time=10\n",
      "note_on channel=2 note=45 velocity=0 time=7\n",
      "note_on channel=2 note=45 velocity=120 time=1\n",
      "note_on channel=2 note=45 velocity=0 time=11\n",
      "note_on channel=2 note=45 velocity=120 time=0\n",
      "note_on channel=2 note=45 velocity=0 time=68\n",
      "note_on channel=2 note=45 velocity=120 time=0\n",
      "note_on channel=2 note=45 velocity=0 time=10\n",
      "note_on channel=2 note=45 velocity=120 time=0\n",
      "note_on channel=2 note=45 velocity=0 time=12\n",
      "note_on channel=2 note=45 velocity=120 time=10\n",
      "note_on channel=2 note=45 velocity=0 time=8\n",
      "note_on channel=2 note=45 velocity=120 time=0\n",
      "note_on channel=2 note=45 velocity=0 time=12\n",
      "note_on channel=2 note=45 velocity=120 time=0\n",
      "note_on channel=2 note=45 velocity=0 time=68\n",
      "note_on channel=2 note=45 velocity=120 time=0\n",
      "note_on channel=2 note=45 velocity=0 time=9\n",
      "note_on channel=2 note=45 velocity=120 time=1\n",
      "note_on channel=2 note=45 velocity=0 time=12\n",
      "note_on channel=2 note=52 velocity=120 time=8\n",
      "note_on channel=2 note=52 velocity=0 time=52\n",
      "note_on channel=2 note=52 velocity=120 time=10\n",
      "note_on channel=2 note=52 velocity=0 time=111\n",
      "note_on channel=2 note=52 velocity=120 time=8\n",
      "note_on channel=2 note=52 velocity=0 time=52\n",
      "note_on channel=2 note=45 velocity=120 time=8\n",
      "note_on channel=2 note=45 velocity=0 time=9\n",
      "note_on channel=2 note=45 velocity=120 time=0\n",
      "note_on channel=2 note=45 velocity=0 time=12\n",
      "note_on channel=2 note=45 velocity=120 time=0\n",
      "note_on channel=2 note=45 velocity=0 time=31\n",
      "note_on channel=2 note=45 velocity=120 time=10\n",
      "note_on channel=2 note=45 velocity=0 time=7\n",
      "note_on channel=2 note=45 velocity=120 time=0\n",
      "note_on channel=2 note=45 velocity=0 time=11\n",
      "note_on channel=2 note=45 velocity=120 time=0\n",
      "note_on channel=2 note=45 velocity=0 time=69\n",
      "note_on channel=2 note=45 velocity=120 time=0\n",
      "note_on channel=2 note=45 velocity=0 time=10\n",
      "note_on channel=2 note=45 velocity=120 time=0\n",
      "note_on channel=2 note=45 velocity=0 time=12\n",
      "note_on channel=2 note=45 velocity=120 time=11\n",
      "note_on channel=2 note=45 velocity=0 time=7\n",
      "note_on channel=2 note=45 velocity=120 time=0\n",
      "note_on channel=2 note=45 velocity=0 time=12\n",
      "note_on channel=2 note=45 velocity=120 time=0\n",
      "note_on channel=2 note=45 velocity=0 time=31\n",
      "note_on channel=2 note=52 velocity=120 time=9\n",
      "note_on channel=2 note=52 velocity=0 time=111\n",
      "note_on channel=2 note=40 velocity=120 time=7\n",
      "note_on channel=2 note=40 velocity=0 time=113\n",
      "note_on channel=2 note=42 velocity=120 time=11\n",
      "note_on channel=2 note=42 velocity=0 time=109\n",
      "note_on channel=2 note=42 velocity=120 time=8\n",
      "note_on channel=2 note=42 velocity=0 time=111\n",
      "note_on channel=2 note=51 velocity=120 time=8\n",
      "note_on channel=2 note=51 velocity=0 time=52\n",
      "note_on channel=2 note=51 velocity=120 time=10\n",
      "note_on channel=2 note=51 velocity=0 time=110\n",
      "note_on channel=2 note=51 velocity=120 time=10\n",
      "note_on channel=2 note=51 velocity=0 time=50\n",
      "note_on channel=2 note=42 velocity=120 time=8\n",
      "note_on channel=2 note=42 velocity=0 time=52\n",
      "note_on channel=2 note=42 velocity=120 time=10\n",
      "note_on channel=2 note=42 velocity=0 time=110\n",
      "note_on channel=2 note=42 velocity=120 time=9\n",
      "note_on channel=2 note=42 velocity=0 time=52\n",
      "note_on channel=2 note=51 velocity=120 time=10\n",
      "note_on channel=2 note=51 velocity=0 time=109\n",
      "note_on channel=2 note=39 velocity=120 time=10\n",
      "note_on channel=2 note=39 velocity=0 time=110\n",
      "note_on channel=2 note=40 velocity=120 time=12\n",
      "note_on channel=2 note=40 velocity=0 time=108\n",
      "note_on channel=2 note=40 velocity=120 time=10\n",
      "note_on channel=2 note=40 velocity=0 time=111\n",
      "note_on channel=2 note=47 velocity=120 time=7\n",
      "note_on channel=2 note=47 velocity=0 time=52\n",
      "note_on channel=2 note=47 velocity=120 time=9\n",
      "note_on channel=2 note=47 velocity=0 time=112\n",
      "note_on channel=2 note=47 velocity=120 time=8\n",
      "note_on channel=2 note=47 velocity=0 time=52\n",
      "note_on channel=2 note=40 velocity=120 time=7\n",
      "note_on channel=2 note=40 velocity=0 time=52\n",
      "note_on channel=2 note=40 velocity=120 time=10\n",
      "note_on channel=2 note=40 velocity=0 time=110\n",
      "note_on channel=2 note=40 velocity=120 time=10\n",
      "note_on channel=2 note=40 velocity=0 time=50\n",
      "note_on channel=2 note=52 velocity=120 time=10\n",
      "note_on channel=2 note=52 velocity=0 time=111\n",
      "note_on channel=2 note=40 velocity=120 time=7\n",
      "note_on channel=2 note=40 velocity=0 time=112\n",
      "note_on channel=2 note=45 velocity=120 time=11\n",
      "note_on channel=2 note=45 velocity=0 time=7\n",
      "note_on channel=2 note=45 velocity=120 time=0\n",
      "note_on channel=2 note=45 velocity=0 time=13\n",
      "note_on channel=2 note=45 velocity=120 time=0\n",
      "note_on channel=2 note=45 velocity=0 time=69\n",
      "note_on channel=2 note=45 velocity=120 time=0\n",
      "note_on channel=2 note=45 velocity=0 time=9\n",
      "note_on channel=2 note=45 velocity=120 time=0\n",
      "note_on channel=2 note=45 velocity=0 time=12\n",
      "note_on channel=2 note=45 velocity=120 time=9\n",
      "note_on channel=2 note=45 velocity=0 time=8\n",
      "note_on channel=2 note=45 velocity=120 time=0\n",
      "note_on channel=2 note=45 velocity=0 time=12\n",
      "note_on channel=2 note=45 velocity=120 time=0\n",
      "note_on channel=2 note=45 velocity=0 time=68\n",
      "note_on channel=2 note=45 velocity=120 time=0\n",
      "note_on channel=2 note=45 velocity=0 time=10\n",
      "note_on channel=2 note=45 velocity=120 time=0\n",
      "note_on channel=2 note=45 velocity=0 time=12\n",
      "note_on channel=2 note=52 velocity=120 time=8\n",
      "note_on channel=2 note=52 velocity=0 time=52\n",
      "note_on channel=2 note=52 velocity=120 time=10\n",
      "note_on channel=2 note=52 velocity=0 time=111\n",
      "note_on channel=2 note=52 velocity=120 time=9\n",
      "note_on channel=2 note=52 velocity=0 time=52\n",
      "note_on channel=2 note=45 velocity=120 time=8\n",
      "note_on channel=2 note=45 velocity=0 time=8\n",
      "note_on channel=2 note=45 velocity=120 time=0\n",
      "note_on channel=2 note=45 velocity=0 time=12\n",
      "note_on channel=2 note=45 velocity=120 time=0\n",
      "note_on channel=2 note=45 velocity=0 time=31\n",
      "note_on channel=2 note=45 velocity=120 time=10\n",
      "note_on channel=2 note=45 velocity=0 time=7\n",
      "note_on channel=2 note=45 velocity=120 time=0\n",
      "note_on channel=2 note=45 velocity=0 time=12\n",
      "note_on channel=2 note=45 velocity=120 time=1\n",
      "note_on channel=2 note=45 velocity=0 time=67\n",
      "note_on channel=2 note=45 velocity=120 time=0\n",
      "note_on channel=2 note=45 velocity=0 time=10\n",
      "note_on channel=2 note=45 velocity=120 time=0\n",
      "note_on channel=2 note=45 velocity=0 time=12\n",
      "note_on channel=2 note=45 velocity=120 time=11\n",
      "note_on channel=2 note=45 velocity=0 time=7\n",
      "note_on channel=2 note=45 velocity=120 time=0\n",
      "note_on channel=2 note=45 velocity=0 time=13\n",
      "note_on channel=2 note=45 velocity=120 time=0\n",
      "note_on channel=2 note=45 velocity=0 time=30\n",
      "note_on channel=2 note=52 velocity=120 time=8\n",
      "note_on channel=2 note=52 velocity=0 time=111\n",
      "note_on channel=2 note=40 velocity=120 time=8\n",
      "note_on channel=2 note=40 velocity=0 time=113\n",
      "note_on channel=2 note=45 velocity=120 time=9\n",
      "note_on channel=2 note=45 velocity=0 time=7\n",
      "note_on channel=2 note=45 velocity=120 time=1\n",
      "note_on channel=2 note=45 velocity=0 time=12\n",
      "note_on channel=2 note=45 velocity=120 time=0\n",
      "note_on channel=2 note=45 velocity=0 time=68\n",
      "note_on channel=2 note=45 velocity=120 time=1\n",
      "note_on channel=2 note=45 velocity=0 time=9\n",
      "note_on channel=2 note=45 velocity=120 time=0\n",
      "note_on channel=2 note=45 velocity=0 time=13\n",
      "note_on channel=2 note=45 velocity=120 time=11\n",
      "note_on channel=2 note=45 velocity=0 time=5\n",
      "note_on channel=2 note=45 velocity=120 time=1\n",
      "note_on channel=2 note=45 velocity=0 time=12\n",
      "note_on channel=2 note=45 velocity=120 time=1\n",
      "note_on channel=2 note=45 velocity=0 time=67\n",
      "note_on channel=2 note=45 velocity=120 time=0\n",
      "note_on channel=2 note=45 velocity=0 time=10\n",
      "note_on channel=2 note=45 velocity=120 time=0\n",
      "note_on channel=2 note=45 velocity=0 time=13\n",
      "note_on channel=2 note=52 velocity=120 time=7\n",
      "note_on channel=2 note=52 velocity=0 time=52\n",
      "note_on channel=2 note=52 velocity=120 time=9\n",
      "note_on channel=2 note=52 velocity=0 time=111\n",
      "note_on channel=2 note=52 velocity=120 time=10\n",
      "note_on channel=2 note=52 velocity=0 time=50\n",
      "note_on channel=2 note=45 velocity=120 time=8\n",
      "note_on channel=2 note=45 velocity=0 time=10\n",
      "note_on channel=2 note=45 velocity=120 time=0\n",
      "note_on channel=2 note=45 velocity=0 time=12\n",
      "note_on channel=2 note=45 velocity=120 time=0\n",
      "note_on channel=2 note=45 velocity=0 time=30\n",
      "note_on channel=2 note=45 velocity=120 time=10\n",
      "note_on channel=2 note=45 velocity=0 time=8\n",
      "note_on channel=2 note=45 velocity=120 time=0\n",
      "note_on channel=2 note=45 velocity=0 time=12\n",
      "note_on channel=2 note=45 velocity=120 time=0\n",
      "note_on channel=2 note=45 velocity=0 time=68\n",
      "note_on channel=2 note=45 velocity=120 time=0\n",
      "note_on channel=2 note=45 velocity=0 time=10\n",
      "note_on channel=2 note=45 velocity=120 time=0\n",
      "note_on channel=2 note=45 velocity=0 time=13\n",
      "note_on channel=2 note=45 velocity=120 time=9\n",
      "note_on channel=2 note=45 velocity=0 time=8\n",
      "note_on channel=2 note=45 velocity=120 time=0\n",
      "note_on channel=2 note=45 velocity=0 time=12\n",
      "note_on channel=2 note=45 velocity=120 time=1\n",
      "note_on channel=2 note=45 velocity=0 time=30\n",
      "note_on channel=2 note=52 velocity=120 time=9\n",
      "note_on channel=2 note=52 velocity=0 time=111\n",
      "note_on channel=2 note=40 velocity=120 time=7\n",
      "note_on channel=2 note=40 velocity=0 time=114\n",
      "note_on channel=2 note=45 velocity=120 time=9\n",
      "note_on channel=2 note=45 velocity=0 time=7\n",
      "note_on channel=2 note=45 velocity=120 time=0\n",
      "note_on channel=2 note=45 velocity=0 time=13\n",
      "note_on channel=2 note=45 velocity=120 time=0\n",
      "note_on channel=2 note=45 velocity=0 time=69\n",
      "note_on channel=2 note=45 velocity=120 time=0\n",
      "note_on channel=2 note=45 velocity=0 time=8\n",
      "note_on channel=2 note=45 velocity=120 time=0\n",
      "note_on channel=2 note=45 velocity=0 time=13\n",
      "note_on channel=2 note=45 velocity=120 time=9\n",
      "note_on channel=2 note=45 velocity=0 time=8\n",
      "note_on channel=2 note=45 velocity=120 time=0\n",
      "note_on channel=2 note=45 velocity=0 time=12\n",
      "note_on channel=2 note=45 velocity=120 time=0\n",
      "note_on channel=2 note=45 velocity=0 time=68\n",
      "note_on channel=2 note=45 velocity=120 time=0\n",
      "note_on channel=2 note=45 velocity=0 time=10\n",
      "note_on channel=2 note=45 velocity=120 time=0\n",
      "note_on channel=2 note=45 velocity=0 time=12\n",
      "note_on channel=2 note=52 velocity=120 time=8\n",
      "note_on channel=2 note=52 velocity=0 time=52\n",
      "note_on channel=2 note=52 velocity=120 time=10\n",
      "note_on channel=2 note=52 velocity=0 time=111\n",
      "note_on channel=2 note=52 velocity=120 time=9\n",
      "note_on channel=2 note=52 velocity=0 time=51\n",
      "note_on channel=2 note=45 velocity=120 time=8\n",
      "note_on channel=2 note=45 velocity=0 time=9\n",
      "note_on channel=2 note=45 velocity=120 time=0\n",
      "note_on channel=2 note=45 velocity=0 time=12\n",
      "note_on channel=2 note=45 velocity=120 time=0\n",
      "note_on channel=2 note=45 velocity=0 time=31\n",
      "note_on channel=2 note=45 velocity=120 time=10\n",
      "note_on channel=2 note=45 velocity=0 time=7\n",
      "note_on channel=2 note=45 velocity=120 time=0\n",
      "note_on channel=2 note=45 velocity=0 time=12\n",
      "note_on channel=2 note=45 velocity=120 time=0\n",
      "note_on channel=2 note=45 velocity=0 time=68\n",
      "note_on channel=2 note=45 velocity=120 time=0\n",
      "note_on channel=2 note=45 velocity=0 time=10\n",
      "note_on channel=2 note=45 velocity=120 time=0\n",
      "note_on channel=2 note=45 velocity=0 time=13\n",
      "note_on channel=2 note=45 velocity=120 time=10\n",
      "note_on channel=2 note=45 velocity=0 time=7\n",
      "note_on channel=2 note=45 velocity=120 time=0\n",
      "note_on channel=2 note=45 velocity=0 time=12\n",
      "note_on channel=2 note=45 velocity=120 time=0\n",
      "note_on channel=2 note=45 velocity=0 time=31\n",
      "note_on channel=2 note=52 velocity=120 time=9\n",
      "note_on channel=2 note=52 velocity=0 time=110\n",
      "note_on channel=2 note=40 velocity=120 time=8\n",
      "note_on channel=2 note=40 velocity=0 time=113\n",
      "note_on channel=2 note=45 velocity=120 time=9\n",
      "note_on channel=2 note=45 velocity=0 time=8\n",
      "note_on channel=2 note=45 velocity=120 time=0\n",
      "note_on channel=2 note=45 velocity=0 time=12\n",
      "note_on channel=2 note=45 velocity=120 time=1\n",
      "note_on channel=2 note=45 velocity=0 time=67\n",
      "note_on channel=2 note=45 velocity=120 time=1\n",
      "note_on channel=2 note=45 velocity=0 time=9\n",
      "note_on channel=2 note=45 velocity=120 time=0\n",
      "note_on channel=2 note=45 velocity=0 time=12\n",
      "note_on channel=2 note=45 velocity=120 time=11\n",
      "note_on channel=2 note=45 velocity=0 time=7\n",
      "note_on channel=2 note=45 velocity=120 time=0\n",
      "note_on channel=2 note=45 velocity=0 time=13\n",
      "note_on channel=2 note=45 velocity=120 time=0\n",
      "note_on channel=2 note=45 velocity=0 time=67\n",
      "note_on channel=2 note=45 velocity=120 time=0\n",
      "note_on channel=2 note=45 velocity=0 time=10\n",
      "note_on channel=2 note=45 velocity=120 time=0\n",
      "note_on channel=2 note=45 velocity=0 time=13\n",
      "note_on channel=2 note=52 velocity=120 time=7\n",
      "note_on channel=2 note=52 velocity=0 time=53\n",
      "note_on channel=2 note=52 velocity=120 time=9\n",
      "note_on channel=2 note=52 velocity=0 time=110\n",
      "note_on channel=2 note=52 velocity=120 time=10\n",
      "note_on channel=2 note=52 velocity=0 time=50\n",
      "note_on channel=2 note=45 velocity=120 time=8\n",
      "note_on channel=2 note=45 velocity=0 time=10\n",
      "note_on channel=2 note=45 velocity=120 time=0\n",
      "note_on channel=2 note=45 velocity=0 time=12\n",
      "note_on channel=2 note=45 velocity=120 time=1\n",
      "note_on channel=2 note=45 velocity=0 time=29\n",
      "note_on channel=2 note=45 velocity=120 time=10\n",
      "note_on channel=2 note=45 velocity=0 time=8\n",
      "note_on channel=2 note=45 velocity=120 time=0\n",
      "note_on channel=2 note=45 velocity=0 time=12\n",
      "note_on channel=2 note=45 velocity=120 time=0\n",
      "note_on channel=2 note=45 velocity=0 time=68\n",
      "note_on channel=2 note=45 velocity=120 time=0\n",
      "note_on channel=2 note=45 velocity=0 time=10\n",
      "note_on channel=2 note=45 velocity=120 time=0\n",
      "note_on channel=2 note=45 velocity=0 time=13\n",
      "note_on channel=2 note=45 velocity=120 time=9\n",
      "note_on channel=2 note=45 velocity=0 time=8\n",
      "note_on channel=2 note=45 velocity=120 time=0\n",
      "note_on channel=2 note=45 velocity=0 time=12\n",
      "note_on channel=2 note=45 velocity=120 time=0\n",
      "note_on channel=2 note=45 velocity=0 time=31\n",
      "note_on channel=2 note=52 velocity=120 time=9\n",
      "note_on channel=2 note=52 velocity=0 time=111\n",
      "note_on channel=2 note=40 velocity=120 time=7\n",
      "note_on channel=2 note=40 velocity=0 time=113\n",
      "note_on channel=2 note=38 velocity=120 time=10\n",
      "note_on channel=2 note=38 velocity=0 time=7\n",
      "note_on channel=2 note=38 velocity=120 time=0\n",
      "note_on channel=2 note=38 velocity=0 time=12\n",
      "note_on channel=2 note=38 velocity=120 time=0\n",
      "note_on channel=2 note=38 velocity=0 time=68\n",
      "note_on channel=2 note=38 velocity=120 time=0\n",
      "note_on channel=2 note=38 velocity=0 time=10\n",
      "note_on channel=2 note=38 velocity=120 time=0\n",
      "note_on channel=2 note=38 velocity=0 time=12\n",
      "note_on channel=2 note=38 velocity=120 time=10\n",
      "note_on channel=2 note=38 velocity=0 time=8\n",
      "note_on channel=2 note=38 velocity=120 time=0\n",
      "note_on channel=2 note=38 velocity=0 time=12\n",
      "note_on channel=2 note=38 velocity=120 time=0\n",
      "note_on channel=2 note=38 velocity=0 time=68\n",
      "note_on channel=2 note=38 velocity=120 time=0\n",
      "note_on channel=2 note=38 velocity=0 time=9\n",
      "note_on channel=2 note=38 velocity=120 time=1\n",
      "note_on channel=2 note=38 velocity=0 time=12\n",
      "note_on channel=2 note=45 velocity=120 time=8\n",
      "note_on channel=2 note=45 velocity=0 time=9\n",
      "note_on channel=2 note=45 velocity=120 time=1\n",
      "note_on channel=2 note=45 velocity=0 time=12\n",
      "note_on channel=2 note=45 velocity=120 time=0\n",
      "note_on channel=2 note=45 velocity=0 time=30\n",
      "note_on channel=2 note=45 velocity=120 time=10\n",
      "note_on channel=2 note=45 velocity=0 time=8\n",
      "note_on channel=2 note=45 velocity=120 time=0\n",
      "note_on channel=2 note=45 velocity=0 time=13\n",
      "note_on channel=2 note=45 velocity=120 time=0\n",
      "note_on channel=2 note=45 velocity=0 time=66\n",
      "note_on channel=2 note=45 velocity=120 time=1\n",
      "note_on channel=2 note=45 velocity=0 time=10\n",
      "note_on channel=2 note=45 velocity=120 time=0\n",
      "note_on channel=2 note=45 velocity=0 time=13\n",
      "note_on channel=2 note=45 velocity=120 time=8\n",
      "note_on channel=2 note=45 velocity=0 time=9\n",
      "note_on channel=2 note=45 velocity=120 time=0\n",
      "note_on channel=2 note=45 velocity=0 time=12\n",
      "note_on channel=2 note=45 velocity=120 time=1\n",
      "note_on channel=2 note=45 velocity=0 time=29\n",
      "note_on channel=2 note=38 velocity=120 time=9\n",
      "note_on channel=2 note=38 velocity=0 time=9\n",
      "note_on channel=2 note=38 velocity=120 time=0\n",
      "note_on channel=2 note=38 velocity=0 time=13\n",
      "note_on channel=2 note=38 velocity=120 time=0\n",
      "note_on channel=2 note=38 velocity=0 time=30\n",
      "note_on channel=2 note=38 velocity=120 time=11\n",
      "note_on channel=2 note=38 velocity=0 time=6\n",
      "note_on channel=2 note=38 velocity=120 time=0\n",
      "note_on channel=2 note=38 velocity=0 time=13\n",
      "note_on channel=2 note=38 velocity=120 time=0\n",
      "note_on channel=2 note=38 velocity=0 time=67\n",
      "note_on channel=2 note=38 velocity=120 time=0\n",
      "note_on channel=2 note=38 velocity=0 time=10\n",
      "note_on channel=2 note=38 velocity=120 time=0\n",
      "note_on channel=2 note=38 velocity=0 time=13\n",
      "note_on channel=2 note=38 velocity=120 time=10\n",
      "note_on channel=2 note=38 velocity=0 time=7\n",
      "note_on channel=2 note=38 velocity=120 time=0\n",
      "note_on channel=2 note=38 velocity=0 time=12\n",
      "note_on channel=2 note=38 velocity=120 time=0\n",
      "note_on channel=2 note=38 velocity=0 time=30\n",
      "note_on channel=2 note=45 velocity=120 time=10\n",
      "note_on channel=2 note=45 velocity=0 time=8\n",
      "note_on channel=2 note=45 velocity=120 time=0\n",
      "note_on channel=2 note=45 velocity=0 time=12\n",
      "note_on channel=2 note=45 velocity=120 time=0\n",
      "note_on channel=2 note=45 velocity=0 time=68\n",
      "note_on channel=2 note=45 velocity=120 time=0\n",
      "note_on channel=2 note=45 velocity=0 time=9\n",
      "note_on channel=2 note=45 velocity=120 time=1\n",
      "note_on channel=2 note=45 velocity=0 time=13\n",
      "note_on channel=2 note=38 velocity=120 time=7\n",
      "note_on channel=2 note=38 velocity=0 time=9\n",
      "note_on channel=2 note=38 velocity=120 time=1\n",
      "note_on channel=2 note=38 velocity=0 time=12\n",
      "note_on channel=2 note=38 velocity=120 time=1\n",
      "note_on channel=2 note=38 velocity=0 time=67\n",
      "note_on channel=2 note=38 velocity=120 time=0\n",
      "note_on channel=2 note=38 velocity=0 time=10\n",
      "note_on channel=2 note=38 velocity=120 time=0\n",
      "note_on channel=2 note=38 velocity=0 time=13\n",
      "note_on channel=2 note=45 velocity=120 time=11\n",
      "note_on channel=2 note=45 velocity=0 time=6\n",
      "note_on channel=2 note=45 velocity=120 time=0\n",
      "note_on channel=2 note=45 velocity=0 time=12\n",
      "note_on channel=2 note=45 velocity=120 time=0\n",
      "note_on channel=2 note=45 velocity=0 time=68\n",
      "note_on channel=2 note=45 velocity=120 time=0\n",
      "note_on channel=2 note=45 velocity=0 time=10\n",
      "note_on channel=2 note=45 velocity=120 time=0\n",
      "note_on channel=2 note=45 velocity=0 time=13\n",
      "note_on channel=2 note=45 velocity=120 time=8\n",
      "note_on channel=2 note=45 velocity=0 time=9\n",
      "note_on channel=2 note=45 velocity=120 time=0\n",
      "note_on channel=2 note=45 velocity=0 time=13\n",
      "note_on channel=2 note=45 velocity=120 time=0\n",
      "note_on channel=2 note=45 velocity=0 time=67\n",
      "note_on channel=2 note=45 velocity=120 time=0\n",
      "note_on channel=2 note=45 velocity=0 time=10\n",
      "note_on channel=2 note=45 velocity=120 time=0\n",
      "note_on channel=2 note=45 velocity=0 time=13\n",
      "note_on channel=2 note=52 velocity=120 time=7\n",
      "note_on channel=2 note=52 velocity=0 time=52\n",
      "note_on channel=2 note=52 velocity=120 time=10\n",
      "note_on channel=2 note=52 velocity=0 time=110\n",
      "note_on channel=2 note=52 velocity=120 time=10\n",
      "note_on channel=2 note=52 velocity=0 time=50\n",
      "note_on channel=2 note=45 velocity=120 time=10\n",
      "note_on channel=2 note=45 velocity=0 time=7\n",
      "note_on channel=2 note=45 velocity=120 time=1\n",
      "note_on channel=2 note=45 velocity=0 time=12\n",
      "note_on channel=2 note=45 velocity=120 time=0\n",
      "note_on channel=2 note=45 velocity=0 time=31\n",
      "note_on channel=2 note=45 velocity=120 time=11\n",
      "note_on channel=2 note=45 velocity=0 time=5\n",
      "note_on channel=2 note=45 velocity=120 time=1\n",
      "note_on channel=2 note=45 velocity=0 time=12\n",
      "note_on channel=2 note=45 velocity=120 time=1\n",
      "note_on channel=2 note=45 velocity=0 time=67\n",
      "note_on channel=2 note=45 velocity=120 time=0\n",
      "note_on channel=2 note=45 velocity=0 time=10\n",
      "note_on channel=2 note=45 velocity=120 time=0\n",
      "note_on channel=2 note=45 velocity=0 time=13\n",
      "note_on channel=2 note=45 velocity=120 time=10\n",
      "note_on channel=2 note=45 velocity=0 time=7\n",
      "note_on channel=2 note=45 velocity=120 time=0\n",
      "note_on channel=2 note=45 velocity=0 time=12\n",
      "note_on channel=2 note=45 velocity=120 time=0\n",
      "note_on channel=2 note=45 velocity=0 time=31\n",
      "note_on channel=2 note=52 velocity=120 time=8\n",
      "note_on channel=2 note=52 velocity=0 time=112\n",
      "note_on channel=2 note=40 velocity=120 time=7\n",
      "note_on channel=2 note=40 velocity=0 time=112\n",
      "note_on channel=2 note=42 velocity=120 time=11\n",
      "note_on channel=2 note=42 velocity=0 time=110\n",
      "note_on channel=2 note=42 velocity=120 time=9\n",
      "note_on channel=2 note=42 velocity=0 time=110\n",
      "note_on channel=2 note=51 velocity=120 time=8\n",
      "note_on channel=2 note=51 velocity=0 time=52\n",
      "note_on channel=2 note=51 velocity=120 time=10\n",
      "note_on channel=2 note=51 velocity=0 time=111\n",
      "note_on channel=2 note=51 velocity=120 time=8\n",
      "note_on channel=2 note=51 velocity=0 time=52\n",
      "note_on channel=2 note=40 velocity=120 time=9\n",
      "note_on channel=2 note=40 velocity=0 time=50\n",
      "note_on channel=2 note=40 velocity=120 time=10\n",
      "note_on channel=2 note=40 velocity=0 time=110\n",
      "note_on channel=2 note=40 velocity=120 time=10\n",
      "note_on channel=2 note=40 velocity=0 time=51\n",
      "note_on channel=2 note=52 velocity=120 time=11\n",
      "note_on channel=2 note=52 velocity=0 time=109\n",
      "note_on channel=2 note=40 velocity=120 time=9\n",
      "note_on channel=2 note=40 velocity=0 time=111\n",
      "note_on channel=2 note=45 velocity=120 time=10\n",
      "note_on channel=2 note=45 velocity=0 time=7\n",
      "note_on channel=2 note=45 velocity=120 time=0\n",
      "note_on channel=2 note=45 velocity=0 time=12\n",
      "note_on channel=2 note=45 velocity=120 time=1\n",
      "note_on channel=2 note=45 velocity=0 time=67\n",
      "note_on channel=2 note=45 velocity=120 time=0\n",
      "note_on channel=2 note=45 velocity=0 time=10\n",
      "note_on channel=2 note=45 velocity=120 time=0\n",
      "note_on channel=2 note=45 velocity=0 time=13\n",
      "note_on channel=2 note=45 velocity=120 time=9\n",
      "note_on channel=2 note=45 velocity=0 time=8\n",
      "note_on channel=2 note=45 velocity=120 time=0\n",
      "note_on channel=2 note=45 velocity=0 time=13\n",
      "note_on channel=2 note=45 velocity=120 time=0\n",
      "note_on channel=2 note=45 velocity=0 time=67\n",
      "note_on channel=2 note=45 velocity=120 time=0\n",
      "note_on channel=2 note=45 velocity=0 time=10\n",
      "note_on channel=2 note=45 velocity=120 time=0\n",
      "note_on channel=2 note=45 velocity=0 time=11\n",
      "note_on channel=2 note=52 velocity=120 time=9\n",
      "note_on channel=2 note=52 velocity=0 time=52\n",
      "note_on channel=2 note=52 velocity=120 time=10\n",
      "note_on channel=2 note=52 velocity=0 time=110\n",
      "note_on channel=2 note=52 velocity=120 time=10\n",
      "note_on channel=2 note=52 velocity=0 time=51\n",
      "note_on channel=2 note=45 velocity=120 time=9\n",
      "note_on channel=2 note=45 velocity=0 time=10\n",
      "note_on channel=2 note=45 velocity=120 time=0\n",
      "note_on channel=2 note=45 velocity=0 time=12\n",
      "note_on channel=2 note=45 velocity=120 time=0\n",
      "note_on channel=2 note=45 velocity=0 time=29\n",
      "note_on channel=2 note=45 velocity=120 time=11\n",
      "note_on channel=2 note=45 velocity=0 time=6\n",
      "note_on channel=2 note=45 velocity=120 time=0\n",
      "note_on channel=2 note=45 velocity=0 time=14\n",
      "note_on channel=2 note=45 velocity=120 time=0\n",
      "note_on channel=2 note=45 velocity=0 time=66\n",
      "note_on channel=2 note=45 velocity=120 time=0\n",
      "note_on channel=2 note=45 velocity=0 time=12\n",
      "note_on channel=2 note=45 velocity=120 time=0\n",
      "note_on channel=2 note=45 velocity=0 time=11\n",
      "note_on channel=2 note=45 velocity=120 time=10\n",
      "note_on channel=2 note=45 velocity=0 time=7\n",
      "note_on channel=2 note=45 velocity=120 time=0\n",
      "note_on channel=2 note=45 velocity=0 time=15\n",
      "note_on channel=2 note=45 velocity=120 time=0\n",
      "note_on channel=2 note=45 velocity=0 time=28\n",
      "note_on channel=2 note=52 velocity=120 time=10\n",
      "note_on channel=2 note=52 velocity=0 time=109\n",
      "note_on channel=2 note=40 velocity=120 time=10\n",
      "note_on channel=2 note=40 velocity=0 time=111\n",
      "note_on channel=2 note=41 velocity=120 time=9\n",
      "note_on channel=2 note=41 velocity=0 time=110\n",
      "note_on channel=2 note=41 velocity=120 time=8\n",
      "note_on channel=2 note=41 velocity=0 time=112\n",
      "note_on channel=2 note=53 velocity=120 time=8\n",
      "note_on channel=2 note=53 velocity=0 time=52\n",
      "note_on channel=2 note=53 velocity=120 time=8\n",
      "note_on channel=2 note=53 velocity=0 time=113\n",
      "note_on channel=2 note=53 velocity=120 time=7\n",
      "note_on channel=2 note=53 velocity=0 time=52\n",
      "note_on channel=2 note=43 velocity=120 time=8\n",
      "note_on channel=2 note=43 velocity=0 time=52\n",
      "note_on channel=2 note=43 velocity=120 time=8\n",
      "note_on channel=2 note=43 velocity=0 time=112\n",
      "note_on channel=2 note=43 velocity=120 time=8\n",
      "note_on channel=2 note=43 velocity=0 time=53\n",
      "note_on channel=2 note=55 velocity=120 time=7\n",
      "note_on channel=2 note=55 velocity=0 time=113\n",
      "note_on channel=2 note=55 velocity=120 time=9\n",
      "note_on channel=2 note=55 velocity=0 time=111\n",
      "note_on channel=2 note=36 velocity=120 time=8\n",
      "note_on channel=2 note=36 velocity=0 time=111\n",
      "note_on channel=2 note=36 velocity=120 time=8\n",
      "note_on channel=2 note=36 velocity=0 time=112\n",
      "note_on channel=2 note=48 velocity=120 time=8\n",
      "note_on channel=2 note=48 velocity=0 time=52\n",
      "note_on channel=2 note=48 velocity=120 time=8\n",
      "note_on channel=2 note=48 velocity=0 time=112\n",
      "note_on channel=2 note=48 velocity=120 time=8\n",
      "note_on channel=2 note=48 velocity=0 time=52\n",
      "note_on channel=2 note=36 velocity=120 time=8\n",
      "note_on channel=2 note=36 velocity=0 time=52\n",
      "note_on channel=2 note=36 velocity=120 time=8\n",
      "note_on channel=2 note=36 velocity=0 time=113\n",
      "note_on channel=2 note=36 velocity=120 time=7\n",
      "note_on channel=2 note=36 velocity=0 time=52\n",
      "note_on channel=2 note=48 velocity=120 time=8\n",
      "note_on channel=2 note=48 velocity=0 time=112\n",
      "note_on channel=2 note=48 velocity=120 time=8\n",
      "note_on channel=2 note=48 velocity=0 time=112\n",
      "note_on channel=2 note=38 velocity=120 time=10\n",
      "note_on channel=2 note=38 velocity=0 time=8\n",
      "note_on channel=2 note=38 velocity=120 time=0\n",
      "note_on channel=2 note=38 velocity=0 time=12\n",
      "note_on channel=2 note=38 velocity=120 time=1\n",
      "note_on channel=2 note=38 velocity=0 time=69\n",
      "note_on channel=2 note=38 velocity=120 time=0\n",
      "note_on channel=2 note=38 velocity=0 time=8\n",
      "note_on channel=2 note=38 velocity=120 time=0\n",
      "note_on channel=2 note=38 velocity=0 time=12\n",
      "note_on channel=2 note=38 velocity=120 time=8\n",
      "note_on channel=2 note=38 velocity=0 time=10\n",
      "note_on channel=2 note=38 velocity=120 time=0\n",
      "note_on channel=2 note=38 velocity=0 time=12\n",
      "note_on channel=2 note=38 velocity=120 time=1\n",
      "note_on channel=2 note=38 velocity=0 time=67\n",
      "note_on channel=2 note=38 velocity=120 time=0\n",
      "note_on channel=2 note=38 velocity=0 time=10\n",
      "note_on channel=2 note=38 velocity=120 time=0\n",
      "note_on channel=2 note=38 velocity=0 time=13\n",
      "note_on channel=2 note=50 velocity=120 time=7\n",
      "note_on channel=2 note=50 velocity=0 time=53\n",
      "note_on channel=2 note=50 velocity=120 time=7\n",
      "note_on channel=2 note=50 velocity=0 time=112\n",
      "note_on channel=2 note=48 velocity=120 time=8\n",
      "note_on channel=2 note=48 velocity=0 time=52\n",
      "note_on channel=2 note=47 velocity=120 time=8\n",
      "note_on channel=2 note=47 velocity=0 time=52\n",
      "note_on channel=2 note=47 velocity=120 time=8\n",
      "note_on channel=2 note=47 velocity=0 time=112\n",
      "note_on channel=2 note=47 velocity=120 time=8\n",
      "note_on channel=2 note=47 velocity=0 time=52\n",
      "note_on channel=2 note=47 velocity=120 time=8\n",
      "note_on channel=2 note=47 velocity=0 time=113\n",
      "note_on channel=2 note=47 velocity=120 time=8\n",
      "note_on channel=2 note=47 velocity=0 time=112\n",
      "note_on channel=2 note=36 velocity=120 time=9\n",
      "note_on channel=2 note=36 velocity=0 time=110\n",
      "note_on channel=2 note=36 velocity=120 time=10\n",
      "note_on channel=2 note=36 velocity=0 time=111\n",
      "note_on channel=2 note=48 velocity=120 time=9\n",
      "note_on channel=2 note=48 velocity=0 time=50\n",
      "note_on channel=2 note=48 velocity=120 time=8\n",
      "note_on channel=2 note=48 velocity=0 time=113\n",
      "note_on channel=2 note=48 velocity=120 time=7\n",
      "note_on channel=2 note=48 velocity=0 time=53\n",
      "note_on channel=2 note=36 velocity=120 time=7\n",
      "note_on channel=2 note=36 velocity=0 time=52\n",
      "note_on channel=2 note=36 velocity=120 time=8\n",
      "note_on channel=2 note=36 velocity=0 time=112\n",
      "note_on channel=2 note=36 velocity=120 time=8\n",
      "note_on channel=2 note=36 velocity=0 time=52\n",
      "note_on channel=2 note=48 velocity=120 time=8\n",
      "note_on channel=2 note=48 velocity=0 time=111\n",
      "note_on channel=2 note=48 velocity=120 time=9\n",
      "note_on channel=2 note=48 velocity=0 time=112\n",
      "note_on channel=2 note=41 velocity=120 time=10\n",
      "note_on channel=2 note=41 velocity=0 time=110\n",
      "note_on channel=2 note=41 velocity=120 time=8\n",
      "note_on channel=2 note=41 velocity=0 time=113\n",
      "note_on channel=2 note=53 velocity=120 time=7\n",
      "note_on channel=2 note=53 velocity=0 time=52\n",
      "note_on channel=2 note=53 velocity=120 time=8\n",
      "note_on channel=2 note=53 velocity=0 time=112\n",
      "note_on channel=2 note=53 velocity=120 time=8\n",
      "note_on channel=2 note=53 velocity=0 time=52\n",
      "note_on channel=2 note=43 velocity=120 time=8\n",
      "note_on channel=2 note=43 velocity=0 time=52\n",
      "note_on channel=2 note=43 velocity=120 time=8\n",
      "note_on channel=2 note=43 velocity=0 time=112\n",
      "note_on channel=2 note=43 velocity=120 time=8\n",
      "note_on channel=2 note=43 velocity=0 time=52\n",
      "note_on channel=2 note=55 velocity=120 time=8\n",
      "note_on channel=2 note=55 velocity=0 time=113\n",
      "note_on channel=2 note=55 velocity=120 time=9\n",
      "note_on channel=2 note=55 velocity=0 time=110\n",
      "note_on channel=2 note=40 velocity=120 time=10\n",
      "note_on channel=2 note=40 velocity=0 time=111\n",
      "note_on channel=2 note=40 velocity=120 time=9\n",
      "note_on channel=2 note=40 velocity=0 time=111\n",
      "note_on channel=2 note=52 velocity=120 time=9\n",
      "note_on channel=2 note=52 velocity=0 time=50\n",
      "note_on channel=2 note=52 velocity=120 time=8\n",
      "note_on channel=2 note=52 velocity=0 time=112\n",
      "note_on channel=2 note=52 velocity=120 time=8\n",
      "note_on channel=2 note=52 velocity=0 time=52\n",
      "note_on channel=2 note=45 velocity=120 time=8\n",
      "note_on channel=2 note=45 velocity=0 time=10\n",
      "note_on channel=2 note=45 velocity=120 time=0\n",
      "note_on channel=2 note=45 velocity=0 time=13\n",
      "note_on channel=2 note=45 velocity=120 time=0\n",
      "note_on channel=2 note=45 velocity=0 time=30\n",
      "note_on channel=2 note=45 velocity=120 time=7\n",
      "note_on channel=2 note=45 velocity=0 time=10\n",
      "note_on channel=2 note=45 velocity=120 time=0\n",
      "note_on channel=2 note=45 velocity=0 time=11\n",
      "note_on channel=2 note=45 velocity=120 time=0\n",
      "note_on channel=2 note=45 velocity=0 time=69\n",
      "note_on channel=2 note=45 velocity=120 time=0\n",
      "note_on channel=2 note=45 velocity=0 time=10\n",
      "note_on channel=2 note=45 velocity=120 time=0\n",
      "note_on channel=2 note=45 velocity=0 time=12\n",
      "note_on channel=2 note=45 velocity=120 time=8\n",
      "note_on channel=2 note=45 velocity=0 time=10\n",
      "note_on channel=2 note=45 velocity=120 time=0\n",
      "note_on channel=2 note=45 velocity=0 time=11\n",
      "note_on channel=2 note=45 velocity=120 time=1\n",
      "note_on channel=2 note=45 velocity=0 time=30\n",
      "note_on channel=2 note=57 velocity=120 time=8\n",
      "note_on channel=2 note=57 velocity=0 time=30\n",
      "note_on channel=2 note=57 velocity=120 time=0\n",
      "note_on channel=2 note=57 velocity=0 time=53\n",
      "note_on channel=2 note=57 velocity=120 time=0\n",
      "note_on channel=2 note=57 velocity=0 time=29\n",
      "note_on channel=2 note=57 velocity=120 time=8\n",
      "note_on channel=2 note=57 velocity=0 time=30\n",
      "note_on channel=2 note=57 velocity=120 time=0\n",
      "note_on channel=2 note=57 velocity=0 time=52\n",
      "note_on channel=2 note=57 velocity=120 time=1\n",
      "note_on channel=2 note=57 velocity=0 time=29\n",
      "note_on channel=2 note=38 velocity=120 time=10\n",
      "note_on channel=2 note=38 velocity=0 time=8\n",
      "note_on channel=2 note=38 velocity=120 time=0\n",
      "note_on channel=2 note=38 velocity=0 time=12\n",
      "note_on channel=2 note=38 velocity=120 time=1\n",
      "note_on channel=2 note=38 velocity=0 time=68\n",
      "note_on channel=2 note=38 velocity=120 time=1\n",
      "note_on channel=2 note=38 velocity=0 time=8\n",
      "note_on channel=2 note=38 velocity=120 time=0\n",
      "note_on channel=2 note=38 velocity=0 time=13\n",
      "note_on channel=2 note=38 velocity=120 time=7\n",
      "note_on channel=2 note=38 velocity=0 time=10\n",
      "note_on channel=2 note=38 velocity=120 time=0\n",
      "note_on channel=2 note=38 velocity=0 time=13\n",
      "note_on channel=2 note=38 velocity=120 time=0\n",
      "note_on channel=2 note=38 velocity=0 time=67\n",
      "note_on channel=2 note=38 velocity=120 time=0\n",
      "note_on channel=2 note=38 velocity=0 time=10\n",
      "note_on channel=2 note=38 velocity=120 time=0\n",
      "note_on channel=2 note=38 velocity=0 time=12\n",
      "note_on channel=2 note=50 velocity=120 time=10\n",
      "note_on channel=2 note=50 velocity=0 time=50\n",
      "note_on channel=2 note=50 velocity=120 time=10\n",
      "note_on channel=2 note=50 velocity=0 time=111\n",
      "note_on channel=2 note=50 velocity=120 time=7\n",
      "note_on channel=2 note=50 velocity=0 time=52\n",
      "note_on channel=2 note=39 velocity=120 time=10\n",
      "note_on channel=2 note=39 velocity=0 time=50\n",
      "note_on channel=2 note=39 velocity=120 time=10\n",
      "note_on channel=2 note=39 velocity=0 time=110\n",
      "note_on channel=2 note=39 velocity=120 time=10\n",
      "note_on channel=2 note=39 velocity=0 time=51\n",
      "note_on channel=2 note=51 velocity=120 time=9\n",
      "note_on channel=2 note=51 velocity=0 time=110\n",
      "note_on channel=2 note=51 velocity=120 time=10\n",
      "note_on channel=2 note=51 velocity=0 time=110\n",
      "note_on channel=2 note=40 velocity=120 time=8\n",
      "note_on channel=2 note=40 velocity=0 time=112\n",
      "note_on channel=2 note=40 velocity=120 time=8\n",
      "note_on channel=2 note=40 velocity=0 time=112\n",
      "note_on channel=2 note=52 velocity=120 time=9\n",
      "note_on channel=2 note=52 velocity=0 time=51\n",
      "note_on channel=2 note=52 velocity=120 time=8\n",
      "note_on channel=2 note=52 velocity=0 time=113\n",
      "note_on channel=2 note=52 velocity=120 time=7\n",
      "note_on channel=2 note=52 velocity=0 time=53\n",
      "note_on channel=2 note=40 velocity=120 time=9\n",
      "note_on channel=2 note=40 velocity=0 time=50\n",
      "note_on channel=2 note=40 velocity=120 time=8\n",
      "note_on channel=2 note=40 velocity=0 time=112\n",
      "note_on channel=2 note=40 velocity=120 time=8\n",
      "note_on channel=2 note=40 velocity=0 time=52\n",
      "note_on channel=2 note=52 velocity=120 time=8\n",
      "note_on channel=2 note=52 velocity=0 time=112\n",
      "note_on channel=2 note=52 velocity=120 time=8\n",
      "note_on channel=2 note=52 velocity=0 time=114\n",
      "note_on channel=2 note=45 velocity=120 time=9\n",
      "note_on channel=2 note=45 velocity=0 time=7\n",
      "note_on channel=2 note=45 velocity=120 time=0\n",
      "note_on channel=2 note=45 velocity=0 time=12\n",
      "note_on channel=2 note=45 velocity=120 time=0\n",
      "note_on channel=2 note=45 velocity=0 time=70\n",
      "note_on channel=2 note=45 velocity=120 time=0\n",
      "note_on channel=2 note=45 velocity=0 time=8\n",
      "note_on channel=2 note=45 velocity=120 time=0\n",
      "note_on channel=2 note=45 velocity=0 time=13\n",
      "note_on channel=2 note=45 velocity=120 time=9\n",
      "note_on channel=2 note=45 velocity=0 time=8\n",
      "note_on channel=2 note=45 velocity=120 time=0\n",
      "note_on channel=2 note=45 velocity=0 time=12\n",
      "note_on channel=2 note=45 velocity=120 time=0\n",
      "note_on channel=2 note=45 velocity=0 time=68\n",
      "note_on channel=2 note=45 velocity=120 time=0\n",
      "note_on channel=2 note=45 velocity=0 time=10\n",
      "note_on channel=2 note=45 velocity=120 time=0\n",
      "note_on channel=2 note=45 velocity=0 time=13\n",
      "note_on channel=2 note=52 velocity=120 time=7\n",
      "note_on channel=2 note=52 velocity=0 time=51\n",
      "note_on channel=2 note=52 velocity=120 time=11\n",
      "note_on channel=2 note=52 velocity=0 time=110\n",
      "note_on channel=2 note=52 velocity=120 time=10\n",
      "note_on channel=2 note=52 velocity=0 time=51\n",
      "note_on channel=2 note=45 velocity=120 time=9\n",
      "note_on channel=2 note=45 velocity=0 time=8\n",
      "note_on channel=2 note=45 velocity=120 time=0\n",
      "note_on channel=2 note=45 velocity=0 time=13\n",
      "note_on channel=2 note=45 velocity=120 time=0\n",
      "note_on channel=2 note=45 velocity=0 time=30\n",
      "note_on channel=2 note=45 velocity=120 time=10\n",
      "note_on channel=2 note=45 velocity=0 time=7\n",
      "note_on channel=2 note=45 velocity=120 time=0\n",
      "note_on channel=2 note=45 velocity=0 time=12\n",
      "note_on channel=2 note=45 velocity=120 time=0\n",
      "note_on channel=2 note=45 velocity=0 time=68\n",
      "note_on channel=2 note=45 velocity=120 time=0\n",
      "note_on channel=2 note=45 velocity=0 time=10\n",
      "note_on channel=2 note=45 velocity=120 time=0\n",
      "note_on channel=2 note=45 velocity=0 time=12\n",
      "note_on channel=2 note=45 velocity=120 time=11\n",
      "note_on channel=2 note=45 velocity=0 time=7\n",
      "note_on channel=2 note=45 velocity=120 time=0\n",
      "note_on channel=2 note=45 velocity=0 time=13\n",
      "note_on channel=2 note=45 velocity=120 time=0\n",
      "note_on channel=2 note=45 velocity=0 time=30\n",
      "note_on channel=2 note=52 velocity=120 time=9\n",
      "note_on channel=2 note=52 velocity=0 time=111\n",
      "note_on channel=2 note=40 velocity=120 time=7\n",
      "note_on channel=2 note=40 velocity=0 time=113\n",
      "note_on channel=2 note=45 velocity=120 time=9\n",
      "note_on channel=2 note=45 velocity=0 time=7\n",
      "note_on channel=2 note=45 velocity=120 time=1\n",
      "note_on channel=2 note=45 velocity=0 time=12\n",
      "note_on channel=2 note=45 velocity=120 time=0\n",
      "note_on channel=2 note=45 velocity=0 time=68\n",
      "note_on channel=2 note=45 velocity=120 time=0\n",
      "note_on channel=2 note=45 velocity=0 time=10\n",
      "note_on channel=2 note=45 velocity=120 time=0\n",
      "note_on channel=2 note=45 velocity=0 time=13\n",
      "note_on channel=2 note=45 velocity=120 time=11\n",
      "note_on channel=2 note=45 velocity=0 time=5\n",
      "note_on channel=2 note=45 velocity=120 time=1\n",
      "note_on channel=2 note=45 velocity=0 time=12\n",
      "note_on channel=2 note=45 velocity=120 time=1\n",
      "note_on channel=2 note=45 velocity=0 time=67\n",
      "note_on channel=2 note=45 velocity=120 time=0\n",
      "note_on channel=2 note=45 velocity=0 time=10\n",
      "note_on channel=2 note=45 velocity=120 time=0\n",
      "note_on channel=2 note=45 velocity=0 time=13\n",
      "note_on channel=2 note=52 velocity=120 time=7\n",
      "note_on channel=2 note=52 velocity=0 time=53\n",
      "note_on channel=2 note=52 velocity=120 time=9\n",
      "note_on channel=2 note=52 velocity=0 time=110\n",
      "note_on channel=2 note=52 velocity=120 time=10\n",
      "note_on channel=2 note=52 velocity=0 time=50\n",
      "note_on channel=2 note=45 velocity=120 time=8\n",
      "note_on channel=2 note=45 velocity=0 time=10\n",
      "note_on channel=2 note=45 velocity=120 time=0\n",
      "note_on channel=2 note=45 velocity=0 time=12\n",
      "note_on channel=2 note=45 velocity=120 time=0\n",
      "note_on channel=2 note=45 velocity=0 time=30\n",
      "note_on channel=2 note=45 velocity=120 time=10\n",
      "note_on channel=2 note=45 velocity=0 time=8\n",
      "note_on channel=2 note=45 velocity=120 time=0\n",
      "note_on channel=2 note=45 velocity=0 time=11\n",
      "note_on channel=2 note=45 velocity=120 time=1\n",
      "note_on channel=2 note=45 velocity=0 time=68\n",
      "note_on channel=2 note=45 velocity=120 time=0\n",
      "note_on channel=2 note=45 velocity=0 time=10\n",
      "note_on channel=2 note=45 velocity=120 time=0\n",
      "note_on channel=2 note=45 velocity=0 time=13\n",
      "note_on channel=2 note=45 velocity=120 time=9\n",
      "note_on channel=2 note=45 velocity=0 time=8\n",
      "note_on channel=2 note=45 velocity=120 time=0\n",
      "note_on channel=2 note=45 velocity=0 time=12\n",
      "note_on channel=2 note=45 velocity=120 time=1\n",
      "note_on channel=2 note=45 velocity=0 time=30\n",
      "note_on channel=2 note=52 velocity=120 time=9\n",
      "note_on channel=2 note=52 velocity=0 time=111\n",
      "note_on channel=2 note=40 velocity=120 time=6\n",
      "note_on channel=2 note=40 velocity=0 time=114\n",
      "note_on channel=2 note=45 velocity=120 time=10\n",
      "note_on channel=2 note=45 velocity=0 time=7\n",
      "note_on channel=2 note=45 velocity=120 time=0\n",
      "note_on channel=2 note=45 velocity=0 time=13\n",
      "note_on channel=2 note=45 velocity=120 time=0\n",
      "note_on channel=2 note=45 velocity=0 time=69\n",
      "note_on channel=2 note=45 velocity=120 time=0\n",
      "note_on channel=2 note=45 velocity=0 time=8\n",
      "note_on channel=2 note=45 velocity=120 time=0\n",
      "note_on channel=2 note=45 velocity=0 time=13\n",
      "note_on channel=2 note=45 velocity=120 time=9\n",
      "note_on channel=2 note=45 velocity=0 time=8\n",
      "note_on channel=2 note=45 velocity=120 time=0\n",
      "note_on channel=2 note=45 velocity=0 time=12\n",
      "note_on channel=2 note=45 velocity=120 time=0\n",
      "note_on channel=2 note=45 velocity=0 time=68\n",
      "note_on channel=2 note=45 velocity=120 time=0\n",
      "note_on channel=2 note=45 velocity=0 time=10\n",
      "note_on channel=2 note=45 velocity=120 time=0\n",
      "note_on channel=2 note=45 velocity=0 time=12\n",
      "note_on channel=2 note=52 velocity=120 time=8\n",
      "note_on channel=2 note=52 velocity=0 time=52\n",
      "note_on channel=2 note=52 velocity=120 time=10\n",
      "note_on channel=2 note=52 velocity=0 time=111\n",
      "note_on channel=2 note=52 velocity=120 time=9\n",
      "note_on channel=2 note=52 velocity=0 time=51\n",
      "note_on channel=2 note=45 velocity=120 time=8\n",
      "note_on channel=2 note=45 velocity=0 time=9\n",
      "note_on channel=2 note=45 velocity=120 time=0\n",
      "note_on channel=2 note=45 velocity=0 time=12\n",
      "note_on channel=2 note=45 velocity=120 time=1\n",
      "note_on channel=2 note=45 velocity=0 time=30\n",
      "note_on channel=2 note=45 velocity=120 time=10\n",
      "note_on channel=2 note=45 velocity=0 time=7\n",
      "note_on channel=2 note=45 velocity=120 time=0\n",
      "note_on channel=2 note=45 velocity=0 time=12\n",
      "note_on channel=2 note=45 velocity=120 time=0\n",
      "note_on channel=2 note=45 velocity=0 time=68\n",
      "note_on channel=2 note=45 velocity=120 time=0\n",
      "note_on channel=2 note=45 velocity=0 time=10\n",
      "note_on channel=2 note=45 velocity=120 time=0\n",
      "note_on channel=2 note=45 velocity=0 time=13\n",
      "note_on channel=2 note=45 velocity=120 time=10\n",
      "note_on channel=2 note=45 velocity=0 time=7\n",
      "note_on channel=2 note=45 velocity=120 time=0\n",
      "note_on channel=2 note=45 velocity=0 time=11\n",
      "note_on channel=2 note=45 velocity=120 time=0\n",
      "note_on channel=2 note=45 velocity=0 time=31\n",
      "note_on channel=2 note=52 velocity=120 time=10\n",
      "note_on channel=2 note=52 velocity=0 time=111\n",
      "note_on channel=2 note=40 velocity=120 time=7\n",
      "note_on channel=2 note=40 velocity=0 time=112\n",
      "note_on channel=2 note=45 velocity=120 time=10\n",
      "note_on channel=2 note=45 velocity=0 time=8\n",
      "note_on channel=2 note=45 velocity=120 time=0\n",
      "note_on channel=2 note=45 velocity=0 time=12\n",
      "note_on channel=2 note=45 velocity=120 time=0\n",
      "note_on channel=2 note=45 velocity=0 time=68\n",
      "note_on channel=2 note=45 velocity=120 time=1\n",
      "note_on channel=2 note=45 velocity=0 time=9\n",
      "note_on channel=2 note=45 velocity=120 time=0\n",
      "note_on channel=2 note=45 velocity=0 time=13\n",
      "note_on channel=2 note=45 velocity=120 time=10\n",
      "note_on channel=2 note=45 velocity=0 time=7\n",
      "note_on channel=2 note=45 velocity=120 time=0\n",
      "note_on channel=2 note=45 velocity=0 time=12\n",
      "note_on channel=2 note=45 velocity=120 time=1\n",
      "note_on channel=2 note=45 velocity=0 time=67\n",
      "note_on channel=2 note=45 velocity=120 time=0\n",
      "note_on channel=2 note=45 velocity=0 time=10\n",
      "note_on channel=2 note=45 velocity=120 time=0\n",
      "note_on channel=2 note=45 velocity=0 time=12\n",
      "note_on channel=2 note=52 velocity=120 time=8\n",
      "note_on channel=2 note=52 velocity=0 time=53\n",
      "note_on channel=2 note=52 velocity=120 time=9\n",
      "note_on channel=2 note=52 velocity=0 time=110\n",
      "note_on channel=2 note=52 velocity=120 time=10\n",
      "note_on channel=2 note=52 velocity=0 time=50\n",
      "note_on channel=2 note=45 velocity=120 time=8\n",
      "note_on channel=2 note=45 velocity=0 time=10\n",
      "note_on channel=2 note=45 velocity=120 time=0\n",
      "note_on channel=2 note=45 velocity=0 time=12\n",
      "note_on channel=2 note=45 velocity=120 time=0\n",
      "note_on channel=2 note=45 velocity=0 time=31\n",
      "note_on channel=2 note=45 velocity=120 time=9\n",
      "note_on channel=2 note=45 velocity=0 time=8\n",
      "note_on channel=2 note=45 velocity=120 time=0\n",
      "note_on channel=2 note=45 velocity=0 time=12\n",
      "note_on channel=2 note=45 velocity=120 time=1\n",
      "note_on channel=2 note=45 velocity=0 time=67\n",
      "note_on channel=2 note=45 velocity=120 time=0\n",
      "note_on channel=2 note=45 velocity=0 time=10\n",
      "note_on channel=2 note=45 velocity=120 time=0\n",
      "note_on channel=2 note=45 velocity=0 time=13\n",
      "note_on channel=2 note=45 velocity=120 time=9\n",
      "note_on channel=2 note=45 velocity=0 time=8\n",
      "note_on channel=2 note=45 velocity=120 time=0\n",
      "note_on channel=2 note=45 velocity=0 time=12\n",
      "note_on channel=2 note=45 velocity=120 time=1\n",
      "note_on channel=2 note=45 velocity=0 time=29\n",
      "note_on channel=2 note=52 velocity=120 time=10\n",
      "note_on channel=2 note=52 velocity=0 time=111\n",
      "note_on channel=2 note=40 velocity=120 time=7\n",
      "note_on channel=2 note=40 velocity=0 time=112\n",
      "note_on channel=2 note=38 velocity=120 time=11\n",
      "note_on channel=2 note=38 velocity=0 time=7\n",
      "note_on channel=2 note=38 velocity=120 time=0\n",
      "note_on channel=2 note=38 velocity=0 time=12\n",
      "note_on channel=2 note=38 velocity=120 time=0\n",
      "note_on channel=2 note=38 velocity=0 time=68\n",
      "note_on channel=2 note=38 velocity=120 time=0\n",
      "note_on channel=2 note=38 velocity=0 time=10\n",
      "note_on channel=2 note=38 velocity=120 time=0\n",
      "note_on channel=2 note=38 velocity=0 time=12\n",
      "note_on channel=2 note=38 velocity=120 time=10\n",
      "note_on channel=2 note=38 velocity=0 time=8\n",
      "note_on channel=2 note=38 velocity=120 time=0\n",
      "note_on channel=2 note=38 velocity=0 time=12\n",
      "note_on channel=2 note=38 velocity=120 time=0\n",
      "note_on channel=2 note=38 velocity=0 time=68\n",
      "note_on channel=2 note=38 velocity=120 time=0\n",
      "note_on channel=2 note=38 velocity=0 time=9\n",
      "note_on channel=2 note=38 velocity=120 time=1\n",
      "note_on channel=2 note=38 velocity=0 time=13\n",
      "note_on channel=2 note=45 velocity=120 time=7\n",
      "note_on channel=2 note=45 velocity=0 time=9\n",
      "note_on channel=2 note=45 velocity=120 time=1\n",
      "note_on channel=2 note=45 velocity=0 time=12\n",
      "note_on channel=2 note=45 velocity=120 time=0\n",
      "note_on channel=2 note=45 velocity=0 time=30\n",
      "note_on channel=2 note=45 velocity=120 time=10\n",
      "note_on channel=2 note=45 velocity=0 time=8\n",
      "note_on channel=2 note=45 velocity=120 time=0\n",
      "note_on channel=2 note=45 velocity=0 time=12\n",
      "note_on channel=2 note=45 velocity=120 time=1\n",
      "note_on channel=2 note=45 velocity=0 time=66\n",
      "note_on channel=2 note=45 velocity=120 time=1\n",
      "note_on channel=2 note=45 velocity=0 time=10\n",
      "note_on channel=2 note=45 velocity=120 time=0\n",
      "note_on channel=2 note=45 velocity=0 time=13\n",
      "note_on channel=2 note=45 velocity=120 time=8\n",
      "note_on channel=2 note=45 velocity=0 time=9\n",
      "note_on channel=2 note=45 velocity=120 time=0\n",
      "note_on channel=2 note=45 velocity=0 time=12\n",
      "note_on channel=2 note=45 velocity=120 time=1\n",
      "note_on channel=2 note=45 velocity=0 time=30\n",
      "note_on channel=2 note=38 velocity=120 time=8\n",
      "note_on channel=2 note=38 velocity=0 time=9\n",
      "note_on channel=2 note=38 velocity=120 time=0\n",
      "note_on channel=2 note=38 velocity=0 time=13\n",
      "note_on channel=2 note=38 velocity=120 time=0\n",
      "note_on channel=2 note=38 velocity=0 time=30\n",
      "note_on channel=2 note=38 velocity=120 time=10\n",
      "note_on channel=2 note=38 velocity=0 time=7\n",
      "note_on channel=2 note=38 velocity=120 time=0\n",
      "note_on channel=2 note=38 velocity=0 time=13\n",
      "note_on channel=2 note=38 velocity=120 time=0\n",
      "note_on channel=2 note=38 velocity=0 time=67\n",
      "note_on channel=2 note=38 velocity=120 time=0\n",
      "note_on channel=2 note=38 velocity=0 time=10\n",
      "note_on channel=2 note=38 velocity=120 time=0\n",
      "note_on channel=2 note=38 velocity=0 time=12\n",
      "note_on channel=2 note=38 velocity=120 time=11\n",
      "note_on channel=2 note=38 velocity=0 time=7\n",
      "note_on channel=2 note=38 velocity=120 time=0\n",
      "note_on channel=2 note=38 velocity=0 time=12\n",
      "note_on channel=2 note=38 velocity=120 time=0\n",
      "note_on channel=2 note=38 velocity=0 time=31\n",
      "note_on channel=2 note=45 velocity=120 time=9\n",
      "note_on channel=2 note=45 velocity=0 time=8\n",
      "note_on channel=2 note=45 velocity=120 time=0\n",
      "note_on channel=2 note=45 velocity=0 time=12\n",
      "note_on channel=2 note=45 velocity=120 time=0\n",
      "note_on channel=2 note=45 velocity=0 time=68\n",
      "note_on channel=2 note=45 velocity=120 time=0\n",
      "note_on channel=2 note=45 velocity=0 time=9\n",
      "note_on channel=2 note=45 velocity=120 time=1\n",
      "note_on channel=2 note=45 velocity=0 time=13\n",
      "note_on channel=2 note=38 velocity=120 time=7\n",
      "note_on channel=2 note=38 velocity=0 time=9\n",
      "note_on channel=2 note=38 velocity=120 time=1\n",
      "note_on channel=2 note=38 velocity=0 time=12\n",
      "note_on channel=2 note=38 velocity=120 time=0\n",
      "note_on channel=2 note=38 velocity=0 time=68\n",
      "note_on channel=2 note=38 velocity=120 time=1\n",
      "note_on channel=2 note=38 velocity=0 time=9\n",
      "note_on channel=2 note=38 velocity=120 time=0\n",
      "note_on channel=2 note=38 velocity=0 time=13\n",
      "note_on channel=2 note=45 velocity=120 time=11\n",
      "note_on channel=2 note=45 velocity=0 time=6\n",
      "note_on channel=2 note=45 velocity=120 time=0\n",
      "note_on channel=2 note=45 velocity=0 time=12\n",
      "note_on channel=2 note=45 velocity=120 time=0\n",
      "note_on channel=2 note=45 velocity=0 time=68\n",
      "note_on channel=2 note=45 velocity=120 time=0\n",
      "note_on channel=2 note=45 velocity=0 time=10\n",
      "note_on channel=2 note=45 velocity=120 time=0\n",
      "note_on channel=2 note=45 velocity=0 time=13\n",
      "note_on channel=2 note=45 velocity=120 time=8\n",
      "note_on channel=2 note=45 velocity=0 time=9\n",
      "note_on channel=2 note=45 velocity=120 time=0\n",
      "note_on channel=2 note=45 velocity=0 time=13\n",
      "note_on channel=2 note=45 velocity=120 time=0\n",
      "note_on channel=2 note=45 velocity=0 time=67\n",
      "note_on channel=2 note=45 velocity=120 time=0\n",
      "note_on channel=2 note=45 velocity=0 time=10\n",
      "note_on channel=2 note=45 velocity=120 time=0\n",
      "note_on channel=2 note=45 velocity=0 time=13\n",
      "note_on channel=2 note=52 velocity=120 time=7\n",
      "note_on channel=2 note=52 velocity=0 time=52\n",
      "note_on channel=2 note=52 velocity=120 time=10\n",
      "note_on channel=2 note=52 velocity=0 time=110\n",
      "note_on channel=2 note=52 velocity=120 time=10\n",
      "note_on channel=2 note=52 velocity=0 time=50\n",
      "note_on channel=2 note=45 velocity=120 time=10\n",
      "note_on channel=2 note=45 velocity=0 time=7\n",
      "note_on channel=2 note=45 velocity=120 time=1\n",
      "note_on channel=2 note=45 velocity=0 time=11\n",
      "note_on channel=2 note=45 velocity=120 time=1\n",
      "note_on channel=2 note=45 velocity=0 time=31\n",
      "note_on channel=2 note=45 velocity=120 time=11\n",
      "note_on channel=2 note=45 velocity=0 time=5\n",
      "note_on channel=2 note=45 velocity=120 time=1\n",
      "note_on channel=2 note=45 velocity=0 time=12\n",
      "note_on channel=2 note=45 velocity=120 time=0\n",
      "note_on channel=2 note=45 velocity=0 time=68\n",
      "note_on channel=2 note=45 velocity=120 time=1\n",
      "note_on channel=2 note=45 velocity=0 time=9\n",
      "note_on channel=2 note=45 velocity=120 time=0\n",
      "note_on channel=2 note=45 velocity=0 time=13\n",
      "note_on channel=2 note=45 velocity=120 time=10\n",
      "note_on channel=2 note=45 velocity=0 time=7\n",
      "note_on channel=2 note=45 velocity=120 time=0\n",
      "note_on channel=2 note=45 velocity=0 time=12\n",
      "note_on channel=2 note=45 velocity=120 time=1\n",
      "note_on channel=2 note=45 velocity=0 time=30\n",
      "note_on channel=2 note=52 velocity=120 time=8\n",
      "note_on channel=2 note=52 velocity=0 time=112\n",
      "note_on channel=2 note=40 velocity=120 time=7\n",
      "note_on channel=2 note=40 velocity=0 time=112\n",
      "note_on channel=2 note=42 velocity=120 time=11\n",
      "note_on channel=2 note=42 velocity=0 time=109\n",
      "note_on channel=2 note=42 velocity=120 time=10\n",
      "note_on channel=2 note=42 velocity=0 time=110\n",
      "note_on channel=2 note=51 velocity=120 time=8\n",
      "note_on channel=2 note=51 velocity=0 time=53\n",
      "note_on channel=2 note=51 velocity=120 time=9\n",
      "note_on channel=2 note=51 velocity=0 time=111\n",
      "note_on channel=2 note=51 velocity=120 time=9\n",
      "note_on channel=2 note=51 velocity=0 time=51\n",
      "note_on channel=2 note=42 velocity=120 time=7\n",
      "note_on channel=2 note=42 velocity=0 time=52\n",
      "note_on channel=2 note=42 velocity=120 time=10\n",
      "note_on channel=2 note=42 velocity=0 time=110\n",
      "note_on channel=2 note=42 velocity=120 time=10\n",
      "note_on channel=2 note=42 velocity=0 time=51\n",
      "note_on channel=2 note=51 velocity=120 time=11\n",
      "note_on channel=2 note=51 velocity=0 time=109\n",
      "note_on channel=2 note=39 velocity=120 time=9\n",
      "note_on channel=2 note=39 velocity=0 time=110\n",
      "note_on channel=2 note=40 velocity=120 time=11\n",
      "note_on channel=2 note=40 velocity=0 time=110\n",
      "note_on channel=2 note=40 velocity=120 time=8\n",
      "note_on channel=2 note=40 velocity=0 time=111\n",
      "note_on channel=2 note=47 velocity=120 time=8\n",
      "note_on channel=2 note=47 velocity=0 time=52\n",
      "note_on channel=2 note=47 velocity=120 time=10\n",
      "note_on channel=2 note=47 velocity=0 time=110\n",
      "note_on channel=2 note=47 velocity=120 time=10\n",
      "note_on channel=2 note=47 velocity=0 time=50\n",
      "note_on channel=2 note=40 velocity=120 time=8\n",
      "note_on channel=2 note=40 velocity=0 time=52\n",
      "note_on channel=2 note=40 velocity=120 time=10\n",
      "note_on channel=2 note=40 velocity=0 time=110\n",
      "note_on channel=2 note=40 velocity=120 time=10\n",
      "note_on channel=2 note=40 velocity=0 time=51\n",
      "note_on channel=2 note=52 velocity=120 time=8\n",
      "note_on channel=2 note=52 velocity=0 time=111\n",
      "note_on channel=2 note=40 velocity=120 time=8\n",
      "note_on channel=2 note=40 velocity=0 time=113\n",
      "note_on channel=2 note=45 velocity=120 time=11\n",
      "note_on channel=2 note=45 velocity=0 time=6\n",
      "note_on channel=2 note=45 velocity=120 time=0\n",
      "note_on channel=2 note=45 velocity=0 time=12\n",
      "note_on channel=2 note=45 velocity=120 time=0\n",
      "note_on channel=2 note=45 velocity=0 time=70\n",
      "note_on channel=2 note=45 velocity=120 time=0\n",
      "note_on channel=2 note=45 velocity=0 time=8\n",
      "note_on channel=2 note=45 velocity=120 time=0\n",
      "note_on channel=2 note=45 velocity=0 time=13\n",
      "note_on channel=2 note=45 velocity=120 time=9\n",
      "note_on channel=2 note=45 velocity=0 time=8\n",
      "note_on channel=2 note=45 velocity=120 time=0\n",
      "note_on channel=2 note=45 velocity=0 time=12\n",
      "note_on channel=2 note=45 velocity=120 time=1\n",
      "note_on channel=2 note=45 velocity=0 time=67\n",
      "note_on channel=2 note=45 velocity=120 time=1\n",
      "note_on channel=2 note=45 velocity=0 time=9\n",
      "note_on channel=2 note=45 velocity=120 time=0\n",
      "note_on channel=2 note=45 velocity=0 time=13\n",
      "note_on channel=2 note=52 velocity=120 time=6\n",
      "note_on channel=2 note=52 velocity=0 time=53\n",
      "note_on channel=2 note=52 velocity=120 time=9\n",
      "note_on channel=2 note=52 velocity=0 time=112\n",
      "note_on channel=2 note=52 velocity=120 time=9\n",
      "note_on channel=2 note=52 velocity=0 time=50\n",
      "note_on channel=2 note=45 velocity=120 time=10\n",
      "note_on channel=2 note=45 velocity=0 time=8\n",
      "note_on channel=2 note=45 velocity=120 time=0\n",
      "note_on channel=2 note=45 velocity=0 time=11\n",
      "note_on channel=2 note=45 velocity=120 time=0\n",
      "note_on channel=2 note=45 velocity=0 time=32\n",
      "note_on channel=2 note=45 velocity=120 time=10\n",
      "note_on channel=2 note=45 velocity=0 time=7\n",
      "note_on channel=2 note=45 velocity=120 time=0\n",
      "note_on channel=2 note=45 velocity=0 time=12\n",
      "note_on channel=2 note=45 velocity=120 time=0\n",
      "note_on channel=2 note=45 velocity=0 time=68\n",
      "note_on channel=2 note=45 velocity=120 time=0\n",
      "note_on channel=2 note=45 velocity=0 time=10\n",
      "note_on channel=2 note=45 velocity=120 time=0\n",
      "note_on channel=2 note=45 velocity=0 time=13\n",
      "note_on channel=2 note=45 velocity=120 time=11\n",
      "note_on channel=2 note=45 velocity=0 time=5\n",
      "note_on channel=2 note=45 velocity=120 time=1\n",
      "note_on channel=2 note=45 velocity=0 time=12\n",
      "note_on channel=2 note=45 velocity=120 time=0\n",
      "note_on channel=2 note=45 velocity=0 time=31\n",
      "note_on channel=2 note=52 velocity=120 time=9\n",
      "note_on channel=2 note=52 velocity=0 time=111\n",
      "note_on channel=2 note=40 velocity=120 time=7\n",
      "note_on channel=2 note=40 velocity=0 time=114\n",
      "note_on channel=2 note=45 velocity=120 time=7\n",
      "note_on channel=2 note=45 velocity=0 time=9\n",
      "note_on channel=2 note=45 velocity=120 time=0\n",
      "note_on channel=2 note=45 velocity=0 time=13\n",
      "note_on channel=2 note=45 velocity=120 time=0\n",
      "note_on channel=2 note=45 velocity=0 time=67\n",
      "note_on channel=2 note=45 velocity=120 time=0\n",
      "note_on channel=2 note=45 velocity=0 time=10\n",
      "note_on channel=2 note=45 velocity=120 time=0\n",
      "note_on channel=2 note=45 velocity=0 time=12\n",
      "note_on channel=2 note=45 velocity=120 time=11\n",
      "note_on channel=2 note=45 velocity=0 time=7\n",
      "note_on channel=2 note=45 velocity=120 time=0\n",
      "note_on channel=2 note=45 velocity=0 time=12\n",
      "note_on channel=2 note=45 velocity=120 time=0\n",
      "note_on channel=2 note=45 velocity=0 time=68\n",
      "note_on channel=2 note=45 velocity=120 time=0\n",
      "note_on channel=2 note=45 velocity=0 time=10\n",
      "note_on channel=2 note=45 velocity=120 time=0\n",
      "note_on channel=2 note=45 velocity=0 time=13\n",
      "note_on channel=2 note=52 velocity=120 time=7\n",
      "note_on channel=2 note=52 velocity=0 time=52\n",
      "note_on channel=2 note=52 velocity=120 time=10\n",
      "note_on channel=2 note=52 velocity=0 time=111\n",
      "note_on channel=2 note=52 velocity=120 time=9\n",
      "note_on channel=2 note=52 velocity=0 time=51\n",
      "note_on channel=2 note=45 velocity=120 time=7\n",
      "note_on channel=2 note=45 velocity=0 time=10\n",
      "note_on channel=2 note=45 velocity=120 time=0\n",
      "note_on channel=2 note=45 velocity=0 time=12\n",
      "note_on channel=2 note=45 velocity=120 time=0\n",
      "note_on channel=2 note=45 velocity=0 time=30\n",
      "note_on channel=2 note=45 velocity=120 time=10\n",
      "note_on channel=2 note=45 velocity=0 time=8\n",
      "note_on channel=2 note=45 velocity=120 time=0\n",
      "note_on channel=2 note=45 velocity=0 time=13\n",
      "note_on channel=2 note=45 velocity=120 time=0\n",
      "note_on channel=2 note=45 velocity=0 time=67\n",
      "note_on channel=2 note=45 velocity=120 time=0\n",
      "note_on channel=2 note=45 velocity=0 time=10\n",
      "note_on channel=2 note=45 velocity=120 time=0\n",
      "note_on channel=2 note=45 velocity=0 time=13\n",
      "note_on channel=2 note=45 velocity=120 time=9\n",
      "note_on channel=2 note=45 velocity=0 time=8\n",
      "note_on channel=2 note=45 velocity=120 time=0\n",
      "note_on channel=2 note=45 velocity=0 time=13\n",
      "note_on channel=2 note=45 velocity=120 time=0\n",
      "note_on channel=2 note=45 velocity=0 time=29\n",
      "note_on channel=2 note=52 velocity=120 time=10\n",
      "note_on channel=2 note=52 velocity=0 time=110\n",
      "note_on channel=2 note=40 velocity=120 time=8\n",
      "note_on channel=2 note=40 velocity=0 time=113\n",
      "note_on channel=2 note=45 velocity=120 time=11\n",
      "note_on channel=2 note=45 velocity=0 time=5\n",
      "note_on channel=2 note=45 velocity=120 time=1\n",
      "note_on channel=2 note=45 velocity=0 time=13\n",
      "note_on channel=2 note=45 velocity=120 time=0\n",
      "note_on channel=2 note=45 velocity=0 time=69\n",
      "note_on channel=2 note=45 velocity=120 time=0\n",
      "note_on channel=2 note=45 velocity=0 time=8\n",
      "note_on channel=2 note=45 velocity=120 time=0\n",
      "note_on channel=2 note=45 velocity=0 time=13\n",
      "note_on channel=2 note=45 velocity=120 time=9\n",
      "note_on channel=2 note=45 velocity=0 time=8\n",
      "note_on channel=2 note=45 velocity=120 time=0\n",
      "note_on channel=2 note=45 velocity=0 time=12\n",
      "note_on channel=2 note=45 velocity=120 time=1\n",
      "note_on channel=2 note=45 velocity=0 time=67\n",
      "note_on channel=2 note=45 velocity=120 time=0\n",
      "note_on channel=2 note=45 velocity=0 time=10\n",
      "note_on channel=2 note=45 velocity=120 time=0\n",
      "note_on channel=2 note=45 velocity=0 time=13\n",
      "note_on channel=2 note=52 velocity=120 time=6\n",
      "note_on channel=2 note=52 velocity=0 time=54\n",
      "note_on channel=2 note=52 velocity=120 time=8\n",
      "note_on channel=2 note=52 velocity=0 time=111\n",
      "note_on channel=2 note=52 velocity=120 time=10\n",
      "note_on channel=2 note=52 velocity=0 time=50\n",
      "note_on channel=2 note=45 velocity=120 time=10\n",
      "note_on channel=2 note=45 velocity=0 time=8\n",
      "note_on channel=2 note=45 velocity=120 time=0\n",
      "note_on channel=2 note=45 velocity=0 time=12\n",
      "note_on channel=2 note=45 velocity=120 time=0\n",
      "note_on channel=2 note=45 velocity=0 time=31\n",
      "note_on channel=2 note=45 velocity=120 time=11\n",
      "note_on channel=2 note=45 velocity=0 time=6\n",
      "note_on channel=2 note=45 velocity=120 time=0\n",
      "note_on channel=2 note=45 velocity=0 time=12\n",
      "note_on channel=2 note=45 velocity=120 time=0\n",
      "note_on channel=2 note=45 velocity=0 time=68\n",
      "note_on channel=2 note=45 velocity=120 time=0\n",
      "note_on channel=2 note=45 velocity=0 time=9\n",
      "note_on channel=2 note=45 velocity=120 time=1\n",
      "note_on channel=2 note=45 velocity=0 time=12\n",
      "note_on channel=2 note=45 velocity=120 time=12\n",
      "note_on channel=2 note=45 velocity=0 time=5\n",
      "note_on channel=2 note=45 velocity=120 time=1\n",
      "note_on channel=2 note=45 velocity=0 time=13\n",
      "note_on channel=2 note=45 velocity=120 time=0\n",
      "note_on channel=2 note=45 velocity=0 time=30\n",
      "note_on channel=2 note=52 velocity=120 time=9\n",
      "note_on channel=2 note=52 velocity=0 time=110\n",
      "note_on channel=2 note=40 velocity=120 time=7\n",
      "note_on channel=2 note=40 velocity=0 time=114\n",
      "note_on channel=2 note=45 velocity=120 time=8\n",
      "note_on channel=2 note=45 velocity=0 time=9\n",
      "note_on channel=2 note=45 velocity=120 time=0\n",
      "note_on channel=2 note=45 velocity=0 time=11\n",
      "note_on channel=2 note=45 velocity=120 time=0\n",
      "note_on channel=2 note=45 velocity=0 time=69\n",
      "note_on channel=2 note=45 velocity=120 time=0\n",
      "note_on channel=2 note=45 velocity=0 time=10\n",
      "note_on channel=2 note=45 velocity=120 time=0\n",
      "note_on channel=2 note=45 velocity=0 time=13\n",
      "note_on channel=2 note=45 velocity=120 time=11\n",
      "note_on channel=2 note=45 velocity=0 time=6\n",
      "note_on channel=2 note=45 velocity=120 time=0\n",
      "note_on channel=2 note=45 velocity=0 time=12\n",
      "note_on channel=2 note=45 velocity=120 time=0\n",
      "note_on channel=2 note=45 velocity=0 time=68\n",
      "note_on channel=2 note=45 velocity=120 time=0\n",
      "note_on channel=2 note=45 velocity=0 time=9\n",
      "note_on channel=2 note=45 velocity=120 time=1\n",
      "note_on channel=2 note=45 velocity=0 time=13\n",
      "note_on channel=2 note=52 velocity=120 time=7\n",
      "note_on channel=2 note=52 velocity=0 time=52\n",
      "note_on channel=2 note=52 velocity=120 time=10\n",
      "note_on channel=2 note=52 velocity=0 time=111\n",
      "note_on channel=2 note=52 velocity=120 time=9\n",
      "note_on channel=2 note=52 velocity=0 time=51\n",
      "note_on channel=2 note=45 velocity=120 time=7\n",
      "note_on channel=2 note=45 velocity=0 time=10\n",
      "note_on channel=2 note=45 velocity=120 time=0\n",
      "note_on channel=2 note=45 velocity=0 time=12\n",
      "note_on channel=2 note=45 velocity=120 time=0\n",
      "note_on channel=2 note=45 velocity=0 time=31\n",
      "note_on channel=2 note=45 velocity=120 time=9\n",
      "note_on channel=2 note=45 velocity=0 time=8\n",
      "note_on channel=2 note=45 velocity=120 time=0\n",
      "note_on channel=2 note=45 velocity=0 time=13\n",
      "note_on channel=2 note=45 velocity=120 time=0\n",
      "note_on channel=2 note=45 velocity=0 time=67\n",
      "note_on channel=2 note=45 velocity=120 time=0\n",
      "note_on channel=2 note=45 velocity=0 time=10\n",
      "note_on channel=2 note=45 velocity=120 time=0\n",
      "note_on channel=2 note=45 velocity=0 time=12\n",
      "note_on channel=2 note=45 velocity=120 time=10\n",
      "note_on channel=2 note=45 velocity=0 time=8\n",
      "note_on channel=2 note=45 velocity=120 time=0\n",
      "note_on channel=2 note=45 velocity=0 time=12\n",
      "note_on channel=2 note=45 velocity=120 time=0\n",
      "note_on channel=2 note=45 velocity=0 time=30\n",
      "note_on channel=2 note=52 velocity=120 time=10\n",
      "note_on channel=2 note=52 velocity=0 time=110\n",
      "note_on channel=2 note=40 velocity=120 time=8\n",
      "note_on channel=2 note=40 velocity=0 time=113\n",
      "note_on channel=2 note=38 velocity=120 time=11\n",
      "note_on channel=2 note=38 velocity=0 time=5\n",
      "note_on channel=2 note=38 velocity=120 time=1\n",
      "note_on channel=2 note=38 velocity=0 time=12\n",
      "note_on channel=2 note=38 velocity=120 time=1\n",
      "note_on channel=2 note=38 velocity=0 time=66\n",
      "note_on channel=2 note=38 velocity=120 time=1\n",
      "note_on channel=2 note=38 velocity=0 time=10\n",
      "note_on channel=2 note=38 velocity=120 time=0\n",
      "note_on channel=2 note=38 velocity=0 time=13\n",
      "note_on channel=2 note=38 velocity=120 time=8\n",
      "note_on channel=2 note=38 velocity=0 time=9\n",
      "note_on channel=2 note=38 velocity=120 time=0\n",
      "note_on channel=2 note=38 velocity=0 time=12\n",
      "note_on channel=2 note=38 velocity=120 time=1\n",
      "note_on channel=2 note=38 velocity=0 time=67\n",
      "note_on channel=2 note=38 velocity=120 time=0\n",
      "note_on channel=2 note=38 velocity=0 time=10\n",
      "note_on channel=2 note=38 velocity=120 time=0\n",
      "note_on channel=2 note=38 velocity=0 time=13\n",
      "note_on channel=2 note=45 velocity=120 time=7\n",
      "note_on channel=2 note=45 velocity=0 time=10\n",
      "note_on channel=2 note=45 velocity=120 time=0\n",
      "note_on channel=2 note=45 velocity=0 time=12\n",
      "note_on channel=2 note=45 velocity=120 time=0\n",
      "note_on channel=2 note=45 velocity=0 time=30\n",
      "note_on channel=2 note=45 velocity=120 time=10\n",
      "note_on channel=2 note=45 velocity=0 time=8\n",
      "note_on channel=2 note=45 velocity=120 time=0\n",
      "note_on channel=2 note=45 velocity=0 time=12\n",
      "note_on channel=2 note=45 velocity=120 time=0\n",
      "note_on channel=2 note=45 velocity=0 time=68\n",
      "note_on channel=2 note=45 velocity=120 time=0\n",
      "note_on channel=2 note=45 velocity=0 time=11\n",
      "note_on channel=2 note=45 velocity=120 time=0\n",
      "note_on channel=2 note=45 velocity=0 time=11\n",
      "note_on channel=2 note=45 velocity=120 time=10\n",
      "note_on channel=2 note=45 velocity=0 time=8\n",
      "note_on channel=2 note=45 velocity=120 time=0\n",
      "note_on channel=2 note=45 velocity=0 time=12\n",
      "note_on channel=2 note=45 velocity=120 time=0\n",
      "note_on channel=2 note=45 velocity=0 time=30\n",
      "note_on channel=2 note=38 velocity=120 time=10\n",
      "note_on channel=2 note=38 velocity=0 time=7\n",
      "note_on channel=2 note=38 velocity=120 time=1\n",
      "note_on channel=2 note=38 velocity=0 time=12\n",
      "note_on channel=2 note=38 velocity=120 time=0\n",
      "note_on channel=2 note=38 velocity=0 time=31\n",
      "note_on channel=2 note=38 velocity=120 time=11\n",
      "note_on channel=2 note=38 velocity=0 time=5\n",
      "note_on channel=2 note=38 velocity=120 time=1\n",
      "note_on channel=2 note=38 velocity=0 time=12\n",
      "note_on channel=2 note=38 velocity=120 time=1\n",
      "note_on channel=2 note=38 velocity=0 time=67\n",
      "note_on channel=2 note=38 velocity=120 time=0\n",
      "note_on channel=2 note=38 velocity=0 time=10\n",
      "note_on channel=2 note=38 velocity=120 time=0\n",
      "note_on channel=2 note=38 velocity=0 time=13\n",
      "note_on channel=2 note=38 velocity=120 time=11\n",
      "note_on channel=2 note=38 velocity=0 time=6\n",
      "note_on channel=2 note=38 velocity=120 time=0\n",
      "note_on channel=2 note=38 velocity=0 time=12\n",
      "note_on channel=2 note=38 velocity=120 time=1\n",
      "note_on channel=2 note=38 velocity=0 time=30\n",
      "note_on channel=2 note=45 velocity=120 time=8\n",
      "note_on channel=2 note=45 velocity=0 time=9\n",
      "note_on channel=2 note=45 velocity=120 time=0\n",
      "note_on channel=2 note=45 velocity=0 time=12\n",
      "note_on channel=2 note=45 velocity=120 time=0\n",
      "note_on channel=2 note=45 velocity=0 time=68\n",
      "note_on channel=2 note=45 velocity=120 time=0\n",
      "note_on channel=2 note=45 velocity=0 time=10\n",
      "note_on channel=2 note=45 velocity=120 time=0\n",
      "note_on channel=2 note=45 velocity=0 time=13\n",
      "note_on channel=2 note=38 velocity=120 time=7\n",
      "note_on channel=2 note=38 velocity=0 time=10\n",
      "note_on channel=2 note=38 velocity=120 time=0\n",
      "note_on channel=2 note=38 velocity=0 time=13\n",
      "note_on channel=2 note=38 velocity=120 time=0\n",
      "note_on channel=2 note=38 velocity=0 time=67\n",
      "note_on channel=2 note=38 velocity=120 time=0\n",
      "note_on channel=2 note=38 velocity=0 time=10\n",
      "note_on channel=2 note=38 velocity=120 time=0\n",
      "note_on channel=2 note=38 velocity=0 time=12\n",
      "note_on channel=2 note=45 velocity=120 time=11\n",
      "note_on channel=2 note=45 velocity=0 time=7\n",
      "note_on channel=2 note=45 velocity=120 time=0\n",
      "note_on channel=2 note=45 velocity=0 time=11\n",
      "note_on channel=2 note=45 velocity=120 time=1\n",
      "note_on channel=2 note=45 velocity=0 time=68\n",
      "note_on channel=2 note=45 velocity=120 time=0\n",
      "note_on channel=2 note=45 velocity=0 time=10\n",
      "note_on channel=2 note=45 velocity=120 time=0\n",
      "note_on channel=2 note=45 velocity=0 time=12\n",
      "note_on channel=2 note=45 velocity=120 time=10\n",
      "note_on channel=2 note=45 velocity=0 time=8\n",
      "note_on channel=2 note=45 velocity=120 time=0\n",
      "note_on channel=2 note=45 velocity=0 time=12\n",
      "note_on channel=2 note=45 velocity=120 time=0\n",
      "note_on channel=2 note=45 velocity=0 time=68\n",
      "note_on channel=2 note=45 velocity=120 time=0\n",
      "note_on channel=2 note=45 velocity=0 time=9\n",
      "note_on channel=2 note=45 velocity=120 time=1\n",
      "note_on channel=2 note=45 velocity=0 time=13\n",
      "note_on channel=2 note=52 velocity=120 time=7\n",
      "note_on channel=2 note=52 velocity=0 time=52\n",
      "note_on channel=2 note=52 velocity=120 time=10\n",
      "note_on channel=2 note=52 velocity=0 time=111\n",
      "note_on channel=2 note=52 velocity=120 time=8\n",
      "note_on channel=2 note=52 velocity=0 time=51\n",
      "note_on channel=2 note=45 velocity=120 time=9\n",
      "note_on channel=2 note=45 velocity=0 time=9\n",
      "note_on channel=2 note=45 velocity=120 time=0\n",
      "note_on channel=2 note=45 velocity=0 time=12\n",
      "note_on channel=2 note=45 velocity=120 time=0\n",
      "note_on channel=2 note=45 velocity=0 time=31\n",
      "note_on channel=2 note=45 velocity=120 time=10\n",
      "note_on channel=2 note=45 velocity=0 time=7\n",
      "note_on channel=2 note=45 velocity=120 time=0\n",
      "note_on channel=2 note=45 velocity=0 time=12\n",
      "note_on channel=2 note=45 velocity=120 time=0\n",
      "note_on channel=2 note=45 velocity=0 time=68\n",
      "note_on channel=2 note=45 velocity=120 time=0\n",
      "note_on channel=2 note=45 velocity=0 time=10\n",
      "note_on channel=2 note=45 velocity=120 time=0\n",
      "note_on channel=2 note=45 velocity=0 time=12\n",
      "note_on channel=2 note=45 velocity=120 time=11\n",
      "note_on channel=2 note=45 velocity=0 time=7\n",
      "note_on channel=2 note=45 velocity=120 time=0\n",
      "note_on channel=2 note=45 velocity=0 time=12\n",
      "note_on channel=2 note=45 velocity=120 time=0\n",
      "note_on channel=2 note=45 velocity=0 time=30\n",
      "note_on channel=2 note=52 velocity=120 time=10\n",
      "note_on channel=2 note=52 velocity=0 time=111\n",
      "note_on channel=2 note=40 velocity=120 time=7\n",
      "note_on channel=2 note=40 velocity=0 time=112\n",
      "note_on channel=2 note=42 velocity=120 time=12\n",
      "note_on channel=2 note=42 velocity=0 time=109\n",
      "note_on channel=2 note=42 velocity=120 time=8\n",
      "note_on channel=2 note=42 velocity=0 time=111\n",
      "note_on channel=2 note=51 velocity=120 time=8\n",
      "note_on channel=2 note=51 velocity=0 time=52\n",
      "note_on channel=2 note=51 velocity=120 time=10\n",
      "note_on channel=2 note=51 velocity=0 time=111\n",
      "note_on channel=2 note=51 velocity=120 time=9\n",
      "note_on channel=2 note=51 velocity=0 time=50\n",
      "note_on channel=2 note=40 velocity=120 time=10\n",
      "note_on channel=2 note=40 velocity=0 time=50\n",
      "note_on channel=2 note=40 velocity=120 time=10\n",
      "note_on channel=2 note=40 velocity=0 time=111\n",
      "note_on channel=2 note=40 velocity=120 time=8\n",
      "note_on channel=2 note=40 velocity=0 time=52\n",
      "note_on channel=2 note=52 velocity=120 time=10\n",
      "note_on channel=2 note=52 velocity=0 time=109\n",
      "note_on channel=2 note=40 velocity=120 time=9\n",
      "note_on channel=2 note=40 velocity=0 time=111\n",
      "note_on channel=2 note=45 velocity=120 time=12\n",
      "note_on channel=2 note=45 velocity=0 time=6\n",
      "note_on channel=2 note=45 velocity=120 time=0\n",
      "note_on channel=2 note=45 velocity=0 time=12\n",
      "note_on channel=2 note=45 velocity=120 time=1\n",
      "note_on channel=2 note=45 velocity=0 time=67\n",
      "note_on channel=2 note=45 velocity=120 time=0\n",
      "note_on channel=2 note=45 velocity=0 time=10\n",
      "note_on channel=2 note=45 velocity=120 time=0\n",
      "note_on channel=2 note=45 velocity=0 time=13\n",
      "note_on channel=2 note=45 velocity=120 time=9\n",
      "note_on channel=2 note=45 velocity=0 time=8\n",
      "note_on channel=2 note=45 velocity=120 time=0\n",
      "note_on channel=2 note=45 velocity=0 time=12\n",
      "note_on channel=2 note=45 velocity=120 time=1\n",
      "note_on channel=2 note=45 velocity=0 time=67\n",
      "note_on channel=2 note=45 velocity=120 time=1\n",
      "note_on channel=2 note=45 velocity=0 time=9\n",
      "note_on channel=2 note=45 velocity=120 time=0\n",
      "note_on channel=2 note=45 velocity=0 time=13\n",
      "note_on channel=2 note=52 velocity=120 time=7\n",
      "note_on channel=2 note=52 velocity=0 time=53\n",
      "note_on channel=2 note=52 velocity=120 time=8\n",
      "note_on channel=2 note=52 velocity=0 time=112\n",
      "note_on channel=2 note=52 velocity=120 time=9\n",
      "note_on channel=2 note=52 velocity=0 time=51\n",
      "note_on channel=2 note=45 velocity=120 time=9\n",
      "note_on channel=2 note=45 velocity=0 time=10\n",
      "note_on channel=2 note=45 velocity=120 time=0\n",
      "note_on channel=2 note=45 velocity=0 time=11\n",
      "note_on channel=2 note=45 velocity=120 time=0\n",
      "note_on channel=2 note=45 velocity=0 time=30\n",
      "note_on channel=2 note=45 velocity=120 time=10\n",
      "note_on channel=2 note=45 velocity=0 time=8\n",
      "note_on channel=2 note=45 velocity=120 time=0\n",
      "note_on channel=2 note=45 velocity=0 time=13\n",
      "note_on channel=2 note=45 velocity=120 time=0\n",
      "note_on channel=2 note=45 velocity=0 time=66\n",
      "note_on channel=2 note=45 velocity=120 time=1\n",
      "note_on channel=2 note=45 velocity=0 time=11\n",
      "note_on channel=2 note=45 velocity=120 time=0\n",
      "note_on channel=2 note=45 velocity=0 time=10\n",
      "note_on channel=2 note=45 velocity=120 time=12\n",
      "note_on channel=2 note=45 velocity=0 time=7\n",
      "note_on channel=2 note=45 velocity=120 time=0\n",
      "note_on channel=2 note=45 velocity=0 time=13\n",
      "note_on channel=2 note=45 velocity=120 time=0\n",
      "note_on channel=2 note=45 velocity=0 time=29\n",
      "note_on channel=2 note=52 velocity=120 time=11\n",
      "note_on channel=2 note=52 velocity=0 time=108\n",
      "note_on channel=2 note=40 velocity=120 time=10\n",
      "note_on channel=2 note=40 velocity=0 time=112\n",
      "note_on channel=2 note=41 velocity=120 time=7\n",
      "note_on channel=2 note=41 velocity=0 time=111\n",
      "note_on channel=2 note=41 velocity=120 time=8\n",
      "note_on channel=2 note=41 velocity=0 time=112\n",
      "note_on channel=2 note=53 velocity=120 time=8\n",
      "note_on channel=2 note=53 velocity=0 time=52\n",
      "note_on channel=2 note=53 velocity=120 time=8\n",
      "note_on channel=2 note=53 velocity=0 time=112\n",
      "note_on channel=2 note=53 velocity=120 time=8\n",
      "note_on channel=2 note=53 velocity=0 time=53\n",
      "note_on channel=2 note=43 velocity=120 time=7\n",
      "note_on channel=2 note=43 velocity=0 time=52\n",
      "note_on channel=2 note=43 velocity=120 time=8\n",
      "note_on channel=2 note=43 velocity=0 time=112\n",
      "note_on channel=2 note=43 velocity=120 time=8\n",
      "note_on channel=2 note=43 velocity=0 time=53\n",
      "note_on channel=2 note=55 velocity=120 time=7\n",
      "note_on channel=2 note=55 velocity=0 time=112\n",
      "note_on channel=2 note=55 velocity=120 time=10\n",
      "note_on channel=2 note=55 velocity=0 time=111\n",
      "note_on channel=2 note=36 velocity=120 time=9\n",
      "note_on channel=2 note=36 velocity=0 time=110\n",
      "note_on channel=2 note=36 velocity=120 time=8\n",
      "note_on channel=2 note=36 velocity=0 time=112\n",
      "note_on channel=2 note=48 velocity=120 time=8\n",
      "note_on channel=2 note=48 velocity=0 time=53\n",
      "note_on channel=2 note=48 velocity=120 time=7\n",
      "note_on channel=2 note=48 velocity=0 time=111\n",
      "note_on channel=2 note=48 velocity=120 time=10\n",
      "note_on channel=2 note=48 velocity=0 time=51\n",
      "note_on channel=2 note=36 velocity=120 time=8\n",
      "note_on channel=2 note=36 velocity=0 time=52\n",
      "note_on channel=2 note=36 velocity=120 time=8\n",
      "note_on channel=2 note=36 velocity=0 time=112\n",
      "note_on channel=2 note=36 velocity=120 time=8\n",
      "note_on channel=2 note=36 velocity=0 time=52\n",
      "note_on channel=2 note=48 velocity=120 time=8\n",
      "note_on channel=2 note=48 velocity=0 time=112\n",
      "note_on channel=2 note=48 velocity=120 time=8\n",
      "note_on channel=2 note=48 velocity=0 time=113\n",
      "note_on channel=2 note=38 velocity=120 time=9\n",
      "note_on channel=2 note=38 velocity=0 time=8\n",
      "note_on channel=2 note=38 velocity=120 time=0\n",
      "note_on channel=2 note=38 velocity=0 time=12\n",
      "note_on channel=2 note=38 velocity=120 time=0\n",
      "note_on channel=2 note=38 velocity=0 time=70\n",
      "note_on channel=2 note=38 velocity=120 time=0\n",
      "note_on channel=2 note=38 velocity=0 time=8\n",
      "note_on channel=2 note=38 velocity=120 time=0\n",
      "note_on channel=2 note=38 velocity=0 time=12\n",
      "note_on channel=2 note=38 velocity=120 time=8\n",
      "note_on channel=2 note=38 velocity=0 time=10\n",
      "note_on channel=2 note=38 velocity=120 time=0\n",
      "note_on channel=2 note=38 velocity=0 time=12\n",
      "note_on channel=2 note=38 velocity=120 time=1\n",
      "note_on channel=2 note=38 velocity=0 time=67\n",
      "note_on channel=2 note=38 velocity=120 time=0\n",
      "note_on channel=2 note=38 velocity=0 time=10\n",
      "note_on channel=2 note=38 velocity=120 time=0\n",
      "note_on channel=2 note=38 velocity=0 time=12\n",
      "note_on channel=2 note=50 velocity=120 time=8\n",
      "note_on channel=2 note=50 velocity=0 time=52\n",
      "note_on channel=2 note=50 velocity=120 time=8\n",
      "note_on channel=2 note=50 velocity=0 time=112\n",
      "note_on channel=2 note=48 velocity=120 time=8\n",
      "note_on channel=2 note=48 velocity=0 time=53\n",
      "note_on channel=2 note=47 velocity=120 time=6\n",
      "note_on channel=2 note=47 velocity=0 time=53\n",
      "note_on channel=2 note=47 velocity=120 time=8\n",
      "note_on channel=2 note=47 velocity=0 time=113\n",
      "note_on channel=2 note=47 velocity=120 time=7\n",
      "note_on channel=2 note=47 velocity=0 time=51\n",
      "note_on channel=2 note=47 velocity=120 time=9\n",
      "note_on channel=2 note=47 velocity=0 time=112\n",
      "note_on channel=2 note=47 velocity=120 time=10\n",
      "note_on channel=2 note=47 velocity=0 time=110\n",
      "note_on channel=2 note=36 velocity=120 time=10\n",
      "note_on channel=2 note=36 velocity=0 time=111\n",
      "note_on channel=2 note=36 velocity=120 time=8\n",
      "note_on channel=2 note=36 velocity=0 time=111\n",
      "note_on channel=2 note=48 velocity=120 time=9\n",
      "note_on channel=2 note=48 velocity=0 time=52\n",
      "note_on channel=2 note=48 velocity=120 time=7\n",
      "note_on channel=2 note=48 velocity=0 time=112\n",
      "note_on channel=2 note=48 velocity=120 time=8\n",
      "note_on channel=2 note=48 velocity=0 time=53\n",
      "note_on channel=2 note=36 velocity=120 time=7\n",
      "note_on channel=2 note=36 velocity=0 time=52\n",
      "note_on channel=2 note=36 velocity=120 time=8\n",
      "note_on channel=2 note=36 velocity=0 time=112\n",
      "note_on channel=2 note=36 velocity=120 time=8\n",
      "note_on channel=2 note=36 velocity=0 time=52\n",
      "note_on channel=2 note=48 velocity=120 time=8\n",
      "note_on channel=2 note=48 velocity=0 time=112\n",
      "note_on channel=2 note=48 velocity=120 time=7\n",
      "note_on channel=2 note=48 velocity=0 time=113\n",
      "note_on channel=2 note=41 velocity=120 time=10\n",
      "note_on channel=2 note=41 velocity=0 time=110\n",
      "note_on channel=2 note=41 velocity=120 time=8\n",
      "note_on channel=2 note=41 velocity=0 time=112\n",
      "note_on channel=2 note=53 velocity=120 time=8\n",
      "note_on channel=2 note=53 velocity=0 time=52\n",
      "note_on channel=2 note=53 velocity=120 time=8\n",
      "note_on channel=2 note=53 velocity=0 time=112\n",
      "note_on channel=2 note=53 velocity=120 time=8\n",
      "note_on channel=2 note=53 velocity=0 time=53\n",
      "note_on channel=2 note=43 velocity=120 time=7\n",
      "note_on channel=2 note=43 velocity=0 time=52\n",
      "note_on channel=2 note=43 velocity=120 time=8\n",
      "note_on channel=2 note=43 velocity=0 time=112\n",
      "note_on channel=2 note=43 velocity=120 time=8\n",
      "note_on channel=2 note=43 velocity=0 time=52\n",
      "note_on channel=2 note=55 velocity=120 time=8\n",
      "note_on channel=2 note=55 velocity=0 time=113\n",
      "note_on channel=2 note=55 velocity=120 time=9\n",
      "note_on channel=2 note=55 velocity=0 time=111\n",
      "note_on channel=2 note=40 velocity=120 time=9\n",
      "note_on channel=2 note=40 velocity=0 time=111\n",
      "note_on channel=2 note=40 velocity=120 time=9\n",
      "note_on channel=2 note=40 velocity=0 time=111\n",
      "note_on channel=2 note=52 velocity=120 time=9\n",
      "note_on channel=2 note=52 velocity=0 time=50\n",
      "note_on channel=2 note=52 velocity=120 time=8\n",
      "note_on channel=2 note=52 velocity=0 time=111\n",
      "note_on channel=2 note=52 velocity=120 time=9\n",
      "note_on channel=2 note=52 velocity=0 time=51\n",
      "note_on channel=2 note=45 velocity=120 time=9\n",
      "note_on channel=2 note=45 velocity=0 time=10\n",
      "note_on channel=2 note=45 velocity=120 time=0\n",
      "note_on channel=2 note=45 velocity=0 time=12\n",
      "note_on channel=2 note=45 velocity=120 time=1\n",
      "note_on channel=2 note=45 velocity=0 time=30\n",
      "note_on channel=2 note=45 velocity=120 time=7\n",
      "note_on channel=2 note=45 velocity=0 time=10\n",
      "note_on channel=2 note=45 velocity=120 time=0\n",
      "note_on channel=2 note=45 velocity=0 time=12\n",
      "note_on channel=2 note=45 velocity=120 time=1\n",
      "note_on channel=2 note=45 velocity=0 time=67\n",
      "note_on channel=2 note=45 velocity=120 time=1\n",
      "note_on channel=2 note=45 velocity=0 time=9\n",
      "note_on channel=2 note=45 velocity=120 time=0\n",
      "note_on channel=2 note=45 velocity=0 time=12\n",
      "note_on channel=2 note=45 velocity=120 time=8\n",
      "note_on channel=2 note=45 velocity=0 time=10\n",
      "note_on channel=2 note=45 velocity=120 time=0\n",
      "note_on channel=2 note=45 velocity=0 time=13\n",
      "note_on channel=2 note=45 velocity=120 time=0\n",
      "note_on channel=2 note=45 velocity=0 time=29\n",
      "note_on channel=2 note=57 velocity=120 time=8\n",
      "note_on channel=2 note=57 velocity=0 time=30\n",
      "note_on channel=2 note=57 velocity=120 time=0\n",
      "note_on channel=2 note=57 velocity=0 time=53\n",
      "note_on channel=2 note=57 velocity=120 time=0\n",
      "note_on channel=2 note=57 velocity=0 time=30\n",
      "note_on channel=2 note=57 velocity=120 time=7\n",
      "note_on channel=2 note=57 velocity=0 time=30\n",
      "note_on channel=2 note=57 velocity=120 time=0\n",
      "note_on channel=2 note=57 velocity=0 time=51\n",
      "note_on channel=2 note=57 velocity=120 time=0\n",
      "note_on channel=2 note=57 velocity=0 time=31\n",
      "note_on channel=2 note=38 velocity=120 time=10\n",
      "note_on channel=2 note=38 velocity=0 time=8\n",
      "note_on channel=2 note=38 velocity=120 time=0\n",
      "note_on channel=2 note=38 velocity=0 time=12\n",
      "note_on channel=2 note=38 velocity=120 time=0\n",
      "note_on channel=2 note=38 velocity=0 time=70\n",
      "note_on channel=2 note=38 velocity=120 time=0\n",
      "note_on channel=2 note=38 velocity=0 time=8\n",
      "note_on channel=2 note=38 velocity=120 time=1\n",
      "note_on channel=2 note=38 velocity=0 time=12\n",
      "note_on channel=2 note=38 velocity=120 time=7\n",
      "note_on channel=2 note=38 velocity=0 time=9\n",
      "note_on channel=2 note=38 velocity=120 time=1\n",
      "note_on channel=2 note=38 velocity=0 time=12\n",
      "note_on channel=2 note=38 velocity=120 time=1\n",
      "note_on channel=2 note=38 velocity=0 time=67\n",
      "note_on channel=2 note=38 velocity=120 time=0\n",
      "note_on channel=2 note=38 velocity=0 time=10\n",
      "note_on channel=2 note=38 velocity=120 time=0\n",
      "note_on channel=2 note=38 velocity=0 time=13\n",
      "note_on channel=2 note=50 velocity=120 time=9\n",
      "note_on channel=2 note=50 velocity=0 time=51\n",
      "note_on channel=2 note=50 velocity=120 time=9\n",
      "note_on channel=2 note=50 velocity=0 time=111\n",
      "note_on channel=2 note=50 velocity=120 time=7\n",
      "note_on channel=2 note=50 velocity=0 time=52\n",
      "note_on channel=2 note=39 velocity=120 time=10\n",
      "note_on channel=2 note=39 velocity=0 time=50\n",
      "note_on channel=2 note=39 velocity=120 time=10\n",
      "note_on channel=2 note=39 velocity=0 time=110\n",
      "note_on channel=2 note=39 velocity=120 time=10\n",
      "note_on channel=2 note=39 velocity=0 time=51\n",
      "note_on channel=2 note=51 velocity=120 time=9\n",
      "note_on channel=2 note=51 velocity=0 time=111\n",
      "note_on channel=2 note=51 velocity=120 time=9\n",
      "note_on channel=2 note=51 velocity=0 time=111\n",
      "note_on channel=2 note=40 velocity=120 time=7\n",
      "note_on channel=2 note=40 velocity=0 time=113\n",
      "note_on channel=2 note=40 velocity=120 time=7\n",
      "note_on channel=2 note=40 velocity=0 time=112\n",
      "note_on channel=2 note=52 velocity=120 time=8\n",
      "note_on channel=2 note=52 velocity=0 time=51\n",
      "note_on channel=2 note=52 velocity=120 time=9\n",
      "note_on channel=2 note=52 velocity=0 time=112\n",
      "note_on channel=2 note=52 velocity=120 time=8\n",
      "note_on channel=2 note=52 velocity=0 time=53\n",
      "note_on channel=2 note=40 velocity=120 time=9\n",
      "note_on channel=2 note=40 velocity=0 time=50\n",
      "note_on channel=2 note=40 velocity=120 time=8\n",
      "note_on channel=2 note=40 velocity=0 time=113\n",
      "note_on channel=2 note=40 velocity=120 time=7\n",
      "note_on channel=2 note=40 velocity=0 time=53\n",
      "note_on channel=2 note=52 velocity=120 time=7\n",
      "note_on channel=2 note=52 velocity=0 time=112\n",
      "note_on channel=2 note=52 velocity=120 time=8\n",
      "note_on channel=2 note=52 velocity=0 time=113\n",
      "note_on channel=2 note=45 velocity=120 time=11\n",
      "note_on channel=2 note=45 velocity=0 time=6\n",
      "note_on channel=2 note=45 velocity=120 time=0\n",
      "note_on channel=2 note=45 velocity=0 time=12\n",
      "note_on channel=2 note=45 velocity=120 time=1\n",
      "note_on channel=2 note=45 velocity=0 time=69\n",
      "note_on channel=2 note=45 velocity=120 time=0\n",
      "note_on channel=2 note=45 velocity=0 time=8\n",
      "note_on channel=2 note=45 velocity=120 time=0\n",
      "note_on channel=2 note=45 velocity=0 time=13\n",
      "note_on channel=2 note=45 velocity=120 time=9\n",
      "note_on channel=2 note=45 velocity=0 time=8\n",
      "note_on channel=2 note=45 velocity=120 time=0\n",
      "note_on channel=2 note=45 velocity=0 time=12\n",
      "note_on channel=2 note=45 velocity=120 time=0\n",
      "note_on channel=2 note=45 velocity=0 time=68\n",
      "note_on channel=2 note=45 velocity=120 time=0\n",
      "note_on channel=2 note=45 velocity=0 time=10\n",
      "note_on channel=2 note=45 velocity=120 time=0\n",
      "note_on channel=2 note=45 velocity=0 time=12\n",
      "note_on channel=2 note=52 velocity=120 time=7\n",
      "note_on channel=2 note=52 velocity=0 time=54\n",
      "note_on channel=2 note=52 velocity=120 time=8\n",
      "note_on channel=2 note=52 velocity=0 time=112\n",
      "note_on channel=2 note=52 velocity=120 time=8\n",
      "note_on channel=2 note=52 velocity=0 time=51\n",
      "note_on channel=2 note=45 velocity=120 time=10\n",
      "note_on channel=2 note=45 velocity=0 time=8\n",
      "note_on channel=2 note=45 velocity=120 time=0\n",
      "note_on channel=2 note=45 velocity=0 time=12\n",
      "note_on channel=2 note=45 velocity=120 time=0\n",
      "note_on channel=2 note=45 velocity=0 time=30\n",
      "note_on channel=2 note=45 velocity=120 time=11\n",
      "note_on channel=2 note=45 velocity=0 time=7\n",
      "note_on channel=2 note=45 velocity=120 time=0\n",
      "note_on channel=2 note=45 velocity=0 time=12\n",
      "note_on channel=2 note=45 velocity=120 time=0\n",
      "note_on channel=2 note=45 velocity=0 time=68\n",
      "note_on channel=2 note=45 velocity=120 time=0\n",
      "note_on channel=2 note=45 velocity=0 time=10\n",
      "note_on channel=2 note=45 velocity=120 time=0\n",
      "note_on channel=2 note=45 velocity=0 time=12\n",
      "note_on channel=2 note=45 velocity=120 time=12\n",
      "note_on channel=2 note=45 velocity=0 time=5\n",
      "note_on channel=2 note=45 velocity=120 time=1\n",
      "note_on channel=2 note=45 velocity=0 time=12\n",
      "note_on channel=2 note=45 velocity=120 time=1\n",
      "note_on channel=2 note=45 velocity=0 time=30\n",
      "note_on channel=2 note=52 velocity=120 time=9\n",
      "note_on channel=2 note=52 velocity=0 time=110\n",
      "note_on channel=2 note=40 velocity=120 time=8\n",
      "note_on channel=2 note=40 velocity=0 time=113\n",
      "note_on channel=2 note=45 velocity=120 time=8\n",
      "note_on channel=2 note=45 velocity=0 time=9\n",
      "note_on channel=2 note=45 velocity=120 time=0\n",
      "note_on channel=2 note=45 velocity=0 time=12\n",
      "note_on channel=2 note=45 velocity=120 time=0\n",
      "note_on channel=2 note=45 velocity=0 time=68\n",
      "note_on channel=2 note=45 velocity=120 time=0\n",
      "note_on channel=2 note=45 velocity=0 time=10\n",
      "note_on channel=2 note=45 velocity=120 time=0\n",
      "note_on channel=2 note=45 velocity=0 time=13\n",
      "note_on channel=2 note=45 velocity=120 time=11\n",
      "note_on channel=2 note=45 velocity=0 time=6\n",
      "note_on channel=2 note=45 velocity=120 time=0\n",
      "note_on channel=2 note=45 velocity=0 time=12\n",
      "note_on channel=2 note=45 velocity=120 time=0\n",
      "note_on channel=2 note=45 velocity=0 time=68\n",
      "note_on channel=2 note=45 velocity=120 time=0\n",
      "note_on channel=2 note=45 velocity=0 time=10\n",
      "note_on channel=2 note=45 velocity=120 time=0\n",
      "note_on channel=2 note=45 velocity=0 time=13\n",
      "note_on channel=2 note=52 velocity=120 time=7\n",
      "note_on channel=2 note=52 velocity=0 time=52\n",
      "note_on channel=2 note=52 velocity=120 time=10\n",
      "note_on channel=2 note=52 velocity=0 time=111\n",
      "note_on channel=2 note=52 velocity=120 time=9\n",
      "note_on channel=2 note=52 velocity=0 time=51\n",
      "note_on channel=2 note=45 velocity=120 time=7\n",
      "note_on channel=2 note=45 velocity=0 time=10\n",
      "note_on channel=2 note=45 velocity=120 time=0\n",
      "note_on channel=2 note=45 velocity=0 time=12\n",
      "note_on channel=2 note=45 velocity=120 time=1\n",
      "note_on channel=2 note=45 velocity=0 time=30\n",
      "note_on channel=2 note=45 velocity=120 time=9\n",
      "note_on channel=2 note=45 velocity=0 time=8\n",
      "note_on channel=2 note=45 velocity=120 time=0\n",
      "note_on channel=2 note=45 velocity=0 time=13\n",
      "note_on channel=2 note=45 velocity=120 time=0\n",
      "note_on channel=2 note=45 velocity=0 time=67\n",
      "note_on channel=2 note=45 velocity=120 time=0\n",
      "note_on channel=2 note=45 velocity=0 time=10\n",
      "note_on channel=2 note=45 velocity=120 time=0\n",
      "note_on channel=2 note=45 velocity=0 time=13\n",
      "note_on channel=2 note=45 velocity=120 time=8\n",
      "note_on channel=2 note=45 velocity=0 time=9\n",
      "note_on channel=2 note=45 velocity=120 time=0\n",
      "note_on channel=2 note=45 velocity=0 time=13\n",
      "note_on channel=2 note=45 velocity=120 time=0\n",
      "note_on channel=2 note=45 velocity=0 time=29\n",
      "note_on channel=2 note=52 velocity=120 time=10\n",
      "note_on channel=2 note=52 velocity=0 time=110\n",
      "note_on channel=2 note=40 velocity=120 time=8\n",
      "note_on channel=2 note=40 velocity=0 time=113\n",
      "note_on channel=2 note=45 velocity=120 time=11\n",
      "note_on channel=2 note=45 velocity=0 time=5\n",
      "note_on channel=2 note=45 velocity=120 time=1\n",
      "note_on channel=2 note=45 velocity=0 time=13\n",
      "note_on channel=2 note=45 velocity=120 time=0\n",
      "note_on channel=2 note=45 velocity=0 time=69\n",
      "note_on channel=2 note=45 velocity=120 time=0\n",
      "note_on channel=2 note=45 velocity=0 time=8\n",
      "note_on channel=2 note=45 velocity=120 time=0\n",
      "note_on channel=2 note=45 velocity=0 time=13\n",
      "note_on channel=2 note=45 velocity=120 time=9\n",
      "note_on channel=2 note=45 velocity=0 time=8\n",
      "note_on channel=2 note=45 velocity=120 time=0\n",
      "note_on channel=2 note=45 velocity=0 time=12\n",
      "note_on channel=2 note=45 velocity=120 time=1\n",
      "note_on channel=2 note=45 velocity=0 time=66\n",
      "note_on channel=2 note=45 velocity=120 time=1\n",
      "note_on channel=2 note=45 velocity=0 time=10\n",
      "note_on channel=2 note=45 velocity=120 time=0\n",
      "note_on channel=2 note=45 velocity=0 time=13\n",
      "note_on channel=2 note=52 velocity=120 time=6\n",
      "note_on channel=2 note=52 velocity=0 time=54\n",
      "note_on channel=2 note=52 velocity=120 time=8\n",
      "note_on channel=2 note=52 velocity=0 time=111\n",
      "note_on channel=2 note=52 velocity=120 time=10\n",
      "note_on channel=2 note=52 velocity=0 time=50\n",
      "note_on channel=2 note=45 velocity=120 time=10\n",
      "note_on channel=2 note=45 velocity=0 time=8\n",
      "note_on channel=2 note=45 velocity=120 time=0\n",
      "note_on channel=2 note=45 velocity=0 time=12\n",
      "note_on channel=2 note=45 velocity=120 time=0\n",
      "note_on channel=2 note=45 velocity=0 time=31\n",
      "note_on channel=2 note=45 velocity=120 time=11\n",
      "note_on channel=2 note=45 velocity=0 time=6\n",
      "note_on channel=2 note=45 velocity=120 time=0\n",
      "note_on channel=2 note=45 velocity=0 time=12\n",
      "note_on channel=2 note=45 velocity=120 time=0\n",
      "note_on channel=2 note=45 velocity=0 time=68\n",
      "note_on channel=2 note=45 velocity=120 time=0\n",
      "note_on channel=2 note=45 velocity=0 time=9\n",
      "note_on channel=2 note=45 velocity=120 time=1\n",
      "note_on channel=2 note=45 velocity=0 time=13\n",
      "note_on channel=2 note=45 velocity=120 time=11\n",
      "note_on channel=2 note=45 velocity=0 time=5\n",
      "note_on channel=2 note=45 velocity=120 time=1\n",
      "note_on channel=2 note=45 velocity=0 time=12\n",
      "note_on channel=2 note=45 velocity=120 time=0\n",
      "note_on channel=2 note=45 velocity=0 time=31\n",
      "note_on channel=2 note=52 velocity=120 time=9\n",
      "note_on channel=2 note=52 velocity=0 time=111\n",
      "note_on channel=2 note=40 velocity=120 time=6\n",
      "note_on channel=2 note=40 velocity=0 time=114\n",
      "note_on channel=2 note=45 velocity=120 time=8\n",
      "note_on channel=2 note=45 velocity=0 time=9\n",
      "note_on channel=2 note=45 velocity=120 time=0\n",
      "note_on channel=2 note=45 velocity=0 time=12\n",
      "note_on channel=2 note=45 velocity=120 time=0\n",
      "note_on channel=2 note=45 velocity=0 time=68\n",
      "note_on channel=2 note=45 velocity=120 time=0\n",
      "note_on channel=2 note=45 velocity=0 time=10\n",
      "note_on channel=2 note=45 velocity=120 time=0\n",
      "note_on channel=2 note=45 velocity=0 time=13\n",
      "note_on channel=2 note=45 velocity=120 time=11\n",
      "note_on channel=2 note=45 velocity=0 time=6\n",
      "note_on channel=2 note=45 velocity=120 time=0\n",
      "note_on channel=2 note=45 velocity=0 time=12\n",
      "note_on channel=2 note=45 velocity=120 time=0\n",
      "note_on channel=2 note=45 velocity=0 time=68\n",
      "note_on channel=2 note=45 velocity=120 time=0\n",
      "note_on channel=2 note=45 velocity=0 time=9\n",
      "note_on channel=2 note=45 velocity=120 time=1\n",
      "note_on channel=2 note=45 velocity=0 time=12\n",
      "note_on channel=2 note=52 velocity=120 time=8\n",
      "note_on channel=2 note=52 velocity=0 time=53\n",
      "note_on channel=2 note=52 velocity=120 time=9\n",
      "note_on channel=2 note=52 velocity=0 time=111\n",
      "note_on channel=2 note=52 velocity=120 time=9\n",
      "note_on channel=2 note=52 velocity=0 time=52\n",
      "note_on channel=2 note=45 velocity=120 time=6\n",
      "note_on channel=2 note=45 velocity=0 time=10\n",
      "note_on channel=2 note=45 velocity=120 time=0\n",
      "note_on channel=2 note=45 velocity=0 time=12\n",
      "note_on channel=2 note=45 velocity=120 time=0\n",
      "note_on channel=2 note=45 velocity=0 time=31\n",
      "note_on channel=2 note=45 velocity=120 time=8\n",
      "note_on channel=2 note=45 velocity=0 time=9\n",
      "note_on channel=2 note=45 velocity=120 time=0\n",
      "note_on channel=2 note=45 velocity=0 time=13\n",
      "note_on channel=2 note=45 velocity=120 time=0\n",
      "note_on channel=2 note=45 velocity=0 time=67\n",
      "note_on channel=2 note=45 velocity=120 time=0\n",
      "note_on channel=2 note=45 velocity=0 time=10\n",
      "note_on channel=2 note=45 velocity=120 time=0\n",
      "note_on channel=2 note=45 velocity=0 time=12\n",
      "note_on channel=2 note=45 velocity=120 time=10\n",
      "note_on channel=2 note=45 velocity=0 time=8\n",
      "note_on channel=2 note=45 velocity=120 time=0\n",
      "note_on channel=2 note=45 velocity=0 time=12\n",
      "note_on channel=2 note=45 velocity=120 time=0\n",
      "note_on channel=2 note=45 velocity=0 time=31\n",
      "note_on channel=2 note=52 velocity=120 time=9\n",
      "note_on channel=2 note=52 velocity=0 time=111\n",
      "note_on channel=2 note=40 velocity=120 time=7\n",
      "note_on channel=2 note=40 velocity=0 time=113\n",
      "note_on channel=2 note=38 velocity=120 time=11\n",
      "note_on channel=2 note=38 velocity=0 time=5\n",
      "note_on channel=2 note=38 velocity=120 time=1\n",
      "note_on channel=2 note=38 velocity=0 time=12\n",
      "note_on channel=2 note=38 velocity=120 time=1\n",
      "note_on channel=2 note=38 velocity=0 time=66\n",
      "note_on channel=2 note=38 velocity=120 time=1\n",
      "note_on channel=2 note=38 velocity=0 time=10\n",
      "note_on channel=2 note=38 velocity=120 time=0\n",
      "note_on channel=2 note=38 velocity=0 time=13\n",
      "note_on channel=2 note=38 velocity=120 time=8\n",
      "note_on channel=2 note=38 velocity=0 time=9\n",
      "note_on channel=2 note=38 velocity=120 time=0\n",
      "note_on channel=2 note=38 velocity=0 time=12\n",
      "note_on channel=2 note=38 velocity=120 time=1\n",
      "note_on channel=2 note=38 velocity=0 time=67\n",
      "note_on channel=2 note=38 velocity=120 time=0\n",
      "note_on channel=2 note=38 velocity=0 time=10\n",
      "note_on channel=2 note=38 velocity=120 time=0\n",
      "note_on channel=2 note=38 velocity=0 time=13\n",
      "note_on channel=2 note=45 velocity=120 time=7\n",
      "note_on channel=2 note=45 velocity=0 time=10\n",
      "note_on channel=2 note=45 velocity=120 time=0\n",
      "note_on channel=2 note=45 velocity=0 time=13\n",
      "note_on channel=2 note=45 velocity=120 time=0\n",
      "note_on channel=2 note=45 velocity=0 time=28\n",
      "note_on channel=2 note=45 velocity=120 time=11\n",
      "note_on channel=2 note=45 velocity=0 time=8\n",
      "note_on channel=2 note=45 velocity=120 time=0\n",
      "note_on channel=2 note=45 velocity=0 time=11\n",
      "note_on channel=2 note=45 velocity=120 time=1\n",
      "note_on channel=2 note=45 velocity=0 time=68\n",
      "note_on channel=2 note=45 velocity=120 time=0\n",
      "note_on channel=2 note=45 velocity=0 time=10\n",
      "note_on channel=2 note=45 velocity=120 time=0\n",
      "note_on channel=2 note=45 velocity=0 time=12\n",
      "note_on channel=2 note=45 velocity=120 time=10\n",
      "note_on channel=2 note=45 velocity=0 time=8\n",
      "note_on channel=2 note=45 velocity=120 time=1\n",
      "note_on channel=2 note=45 velocity=0 time=11\n",
      "note_on channel=2 note=45 velocity=120 time=0\n",
      "note_on channel=2 note=45 velocity=0 time=30\n",
      "note_on channel=2 note=38 velocity=120 time=10\n",
      "note_on channel=2 note=38 velocity=0 time=7\n",
      "note_on channel=2 note=38 velocity=120 time=1\n",
      "note_on channel=2 note=38 velocity=0 time=12\n",
      "note_on channel=2 note=38 velocity=120 time=0\n",
      "note_on channel=2 note=38 velocity=0 time=31\n",
      "note_on channel=2 note=38 velocity=120 time=12\n",
      "note_on channel=2 note=38 velocity=0 time=4\n",
      "note_on channel=2 note=38 velocity=120 time=1\n",
      "note_on channel=2 note=38 velocity=0 time=12\n",
      "note_on channel=2 note=38 velocity=120 time=0\n",
      "note_on channel=2 note=38 velocity=0 time=68\n",
      "note_on channel=2 note=38 velocity=120 time=0\n",
      "note_on channel=2 note=38 velocity=0 time=10\n",
      "note_on channel=2 note=38 velocity=120 time=0\n",
      "note_on channel=2 note=38 velocity=0 time=12\n",
      "note_on channel=2 note=38 velocity=120 time=12\n",
      "note_on channel=2 note=38 velocity=0 time=6\n",
      "note_on channel=2 note=38 velocity=120 time=0\n",
      "note_on channel=2 note=38 velocity=0 time=13\n",
      "note_on channel=2 note=38 velocity=120 time=0\n",
      "note_on channel=2 note=38 velocity=0 time=29\n",
      "note_on channel=2 note=45 velocity=120 time=9\n",
      "note_on channel=2 note=45 velocity=0 time=9\n",
      "note_on channel=2 note=45 velocity=120 time=0\n",
      "note_on channel=2 note=45 velocity=0 time=13\n",
      "note_on channel=2 note=45 velocity=120 time=0\n",
      "note_on channel=2 note=45 velocity=0 time=67\n",
      "note_on channel=2 note=45 velocity=120 time=0\n",
      "note_on channel=2 note=45 velocity=0 time=10\n",
      "note_on channel=2 note=45 velocity=120 time=0\n",
      "note_on channel=2 note=45 velocity=0 time=13\n",
      "note_on channel=2 note=38 velocity=120 time=7\n",
      "note_on channel=2 note=38 velocity=0 time=10\n",
      "note_on channel=2 note=38 velocity=120 time=0\n",
      "note_on channel=2 note=38 velocity=0 time=13\n",
      "note_on channel=2 note=38 velocity=120 time=0\n",
      "note_on channel=2 note=38 velocity=0 time=67\n",
      "note_on channel=2 note=38 velocity=120 time=0\n",
      "note_on channel=2 note=38 velocity=0 time=10\n",
      "note_on channel=2 note=38 velocity=120 time=0\n",
      "note_on channel=2 note=38 velocity=0 time=12\n",
      "note_on channel=2 note=45 velocity=120 time=12\n",
      "note_on channel=2 note=45 velocity=0 time=6\n",
      "note_on channel=2 note=45 velocity=120 time=0\n",
      "note_on channel=2 note=45 velocity=0 time=11\n",
      "note_on channel=2 note=45 velocity=120 time=1\n",
      "note_on channel=2 note=45 velocity=0 time=68\n",
      "note_on channel=2 note=45 velocity=120 time=0\n",
      "note_on channel=2 note=45 velocity=0 time=10\n",
      "note_on channel=2 note=45 velocity=120 time=0\n",
      "note_on channel=2 note=45 velocity=0 time=12\n",
      "note_on channel=2 note=45 velocity=120 time=10\n",
      "note_on channel=2 note=45 velocity=0 time=8\n",
      "note_on channel=2 note=45 velocity=120 time=0\n",
      "note_on channel=2 note=45 velocity=0 time=12\n",
      "note_on channel=2 note=45 velocity=120 time=0\n",
      "note_on channel=2 note=45 velocity=0 time=68\n",
      "note_on channel=2 note=45 velocity=120 time=0\n",
      "note_on channel=2 note=45 velocity=0 time=9\n",
      "note_on channel=2 note=45 velocity=120 time=1\n",
      "note_on channel=2 note=45 velocity=0 time=13\n",
      "note_on channel=2 note=52 velocity=120 time=7\n",
      "note_on channel=2 note=52 velocity=0 time=52\n",
      "note_on channel=2 note=52 velocity=120 time=10\n",
      "note_on channel=2 note=52 velocity=0 time=111\n",
      "note_on channel=2 note=52 velocity=120 time=8\n",
      "note_on channel=2 note=52 velocity=0 time=52\n",
      "note_on channel=2 note=45 velocity=120 time=8\n",
      "note_on channel=2 note=45 velocity=0 time=9\n",
      "note_on channel=2 note=45 velocity=120 time=0\n",
      "note_on channel=2 note=45 velocity=0 time=13\n",
      "note_on channel=2 note=45 velocity=120 time=0\n",
      "note_on channel=2 note=45 velocity=0 time=30\n",
      "note_on channel=2 note=45 velocity=120 time=10\n",
      "note_on channel=2 note=45 velocity=0 time=7\n",
      "note_on channel=2 note=45 velocity=120 time=0\n",
      "note_on channel=2 note=45 velocity=0 time=12\n",
      "note_on channel=2 note=45 velocity=120 time=0\n",
      "note_on channel=2 note=45 velocity=0 time=68\n",
      "note_on channel=2 note=45 velocity=120 time=0\n",
      "note_on channel=2 note=45 velocity=0 time=10\n",
      "note_on channel=2 note=45 velocity=120 time=0\n",
      "note_on channel=2 note=45 velocity=0 time=13\n",
      "note_on channel=2 note=45 velocity=120 time=11\n",
      "note_on channel=2 note=45 velocity=0 time=6\n",
      "note_on channel=2 note=45 velocity=120 time=0\n",
      "note_on channel=2 note=45 velocity=0 time=12\n",
      "note_on channel=2 note=45 velocity=120 time=0\n",
      "note_on channel=2 note=45 velocity=0 time=31\n",
      "note_on channel=2 note=52 velocity=120 time=9\n",
      "note_on channel=2 note=52 velocity=0 time=111\n",
      "note_on channel=2 note=40 velocity=120 time=7\n",
      "note_on channel=2 note=40 velocity=0 time=113\n",
      "note_on channel=2 note=42 velocity=120 time=11\n",
      "note_on channel=2 note=42 velocity=0 time=109\n",
      "note_on channel=2 note=42 velocity=120 time=9\n",
      "note_on channel=2 note=42 velocity=0 time=110\n",
      "note_on channel=2 note=51 velocity=120 time=8\n",
      "note_on channel=2 note=51 velocity=0 time=52\n",
      "note_on channel=2 note=51 velocity=120 time=10\n",
      "note_on channel=2 note=51 velocity=0 time=110\n",
      "note_on channel=2 note=51 velocity=120 time=10\n",
      "note_on channel=2 note=51 velocity=0 time=51\n",
      "note_on channel=2 note=42 velocity=120 time=7\n",
      "note_on channel=2 note=42 velocity=0 time=52\n",
      "note_on channel=2 note=42 velocity=120 time=10\n",
      "note_on channel=2 note=42 velocity=0 time=110\n",
      "note_on channel=2 note=42 velocity=120 time=9\n",
      "note_on channel=2 note=42 velocity=0 time=52\n",
      "note_on channel=2 note=51 velocity=120 time=10\n",
      "note_on channel=2 note=51 velocity=0 time=109\n",
      "note_on channel=2 note=39 velocity=120 time=10\n",
      "note_on channel=2 note=39 velocity=0 time=110\n",
      "note_on channel=2 note=40 velocity=120 time=11\n",
      "note_on channel=2 note=40 velocity=0 time=109\n",
      "note_on channel=2 note=40 velocity=120 time=10\n",
      "note_on channel=2 note=40 velocity=0 time=111\n",
      "note_on channel=2 note=47 velocity=120 time=7\n",
      "note_on channel=2 note=47 velocity=0 time=52\n",
      "note_on channel=2 note=47 velocity=120 time=9\n",
      "note_on channel=2 note=47 velocity=0 time=113\n",
      "note_on channel=2 note=47 velocity=120 time=7\n",
      "note_on channel=2 note=47 velocity=0 time=52\n",
      "note_on channel=2 note=40 velocity=120 time=7\n",
      "note_on channel=2 note=40 velocity=0 time=52\n",
      "note_on channel=2 note=40 velocity=120 time=10\n",
      "note_on channel=2 note=40 velocity=0 time=111\n",
      "note_on channel=2 note=40 velocity=120 time=10\n",
      "note_on channel=2 note=40 velocity=0 time=49\n",
      "note_on channel=2 note=52 velocity=120 time=10\n",
      "note_on channel=2 note=52 velocity=0 time=111\n",
      "note_on channel=2 note=40 velocity=120 time=7\n",
      "note_on channel=2 note=40 velocity=0 time=113\n",
      "note_on channel=2 note=45 velocity=120 time=10\n",
      "note_on channel=2 note=45 velocity=0 time=7\n",
      "note_on channel=2 note=45 velocity=120 time=0\n",
      "note_on channel=2 note=45 velocity=0 time=12\n",
      "note_on channel=2 note=45 velocity=120 time=0\n",
      "note_on channel=2 note=45 velocity=0 time=70\n",
      "note_on channel=2 note=45 velocity=120 time=0\n",
      "note_on channel=2 note=45 velocity=0 time=8\n",
      "note_on channel=2 note=45 velocity=120 time=0\n",
      "note_on channel=2 note=45 velocity=0 time=13\n",
      "note_on channel=2 note=45 velocity=120 time=8\n",
      "note_on channel=2 note=45 velocity=0 time=9\n",
      "note_on channel=2 note=45 velocity=120 time=0\n",
      "note_on channel=2 note=45 velocity=0 time=12\n",
      "note_on channel=2 note=45 velocity=120 time=0\n",
      "note_on channel=2 note=45 velocity=0 time=68\n",
      "note_on channel=2 note=45 velocity=120 time=0\n",
      "note_on channel=2 note=45 velocity=0 time=10\n",
      "note_on channel=2 note=45 velocity=120 time=0\n",
      "note_on channel=2 note=45 velocity=0 time=12\n",
      "note_on channel=2 note=52 velocity=120 time=8\n",
      "note_on channel=2 note=52 velocity=0 time=52\n",
      "note_on channel=2 note=52 velocity=120 time=10\n",
      "note_on channel=2 note=52 velocity=0 time=111\n",
      "note_on channel=2 note=52 velocity=120 time=9\n",
      "note_on channel=2 note=52 velocity=0 time=50\n",
      "note_on channel=2 note=45 velocity=120 time=10\n",
      "note_on channel=2 note=45 velocity=0 time=8\n",
      "note_on channel=2 note=45 velocity=120 time=0\n",
      "note_on channel=2 note=45 velocity=0 time=12\n",
      "note_on channel=2 note=45 velocity=120 time=0\n",
      "note_on channel=2 note=45 velocity=0 time=31\n",
      "note_on channel=2 note=45 velocity=120 time=10\n",
      "note_on channel=2 note=45 velocity=0 time=7\n",
      "note_on channel=2 note=45 velocity=120 time=0\n",
      "note_on channel=2 note=45 velocity=0 time=12\n",
      "note_on channel=2 note=45 velocity=120 time=1\n",
      "note_on channel=2 note=45 velocity=0 time=67\n",
      "note_on channel=2 note=45 velocity=120 time=0\n",
      "note_on channel=2 note=45 velocity=0 time=10\n",
      "note_on channel=2 note=45 velocity=120 time=0\n",
      "note_on channel=2 note=45 velocity=0 time=12\n",
      "note_on channel=2 note=45 velocity=120 time=11\n",
      "note_on channel=2 note=45 velocity=0 time=7\n",
      "note_on channel=2 note=45 velocity=120 time=0\n",
      "note_on channel=2 note=45 velocity=0 time=13\n",
      "note_on channel=2 note=45 velocity=120 time=0\n",
      "note_on channel=2 note=45 velocity=0 time=30\n",
      "note_on channel=2 note=52 velocity=120 time=8\n",
      "note_on channel=2 note=52 velocity=0 time=111\n",
      "note_on channel=2 note=40 velocity=120 time=8\n",
      "note_on channel=2 note=40 velocity=0 time=114\n",
      "note_on channel=2 note=45 velocity=120 time=8\n",
      "note_on channel=2 note=45 velocity=0 time=7\n",
      "note_on channel=2 note=45 velocity=120 time=1\n",
      "note_on channel=2 note=45 velocity=0 time=12\n",
      "note_on channel=2 note=45 velocity=120 time=0\n",
      "note_on channel=2 note=45 velocity=0 time=68\n",
      "note_on channel=2 note=45 velocity=120 time=1\n",
      "note_on channel=2 note=45 velocity=0 time=9\n",
      "note_on channel=2 note=45 velocity=120 time=0\n",
      "note_on channel=2 note=45 velocity=0 time=13\n",
      "note_on channel=2 note=45 velocity=120 time=11\n",
      "note_on channel=2 note=45 velocity=0 time=5\n",
      "note_on channel=2 note=45 velocity=120 time=1\n",
      "note_on channel=2 note=45 velocity=0 time=12\n",
      "note_on channel=2 note=45 velocity=120 time=1\n",
      "note_on channel=2 note=45 velocity=0 time=67\n",
      "note_on channel=2 note=45 velocity=120 time=0\n",
      "note_on channel=2 note=45 velocity=0 time=10\n",
      "note_on channel=2 note=45 velocity=120 time=0\n",
      "note_on channel=2 note=45 velocity=0 time=13\n",
      "note_on channel=2 note=52 velocity=120 time=6\n",
      "note_on channel=2 note=52 velocity=0 time=54\n",
      "note_on channel=2 note=52 velocity=120 time=9\n",
      "note_on channel=2 note=52 velocity=0 time=110\n",
      "note_on channel=2 note=52 velocity=120 time=10\n",
      "note_on channel=2 note=52 velocity=0 time=50\n",
      "note_on channel=2 note=45 velocity=120 time=8\n",
      "note_on channel=2 note=45 velocity=0 time=10\n",
      "note_on channel=2 note=45 velocity=120 time=0\n",
      "note_on channel=2 note=45 velocity=0 time=11\n",
      "note_on channel=2 note=45 velocity=120 time=1\n",
      "note_on channel=2 note=45 velocity=0 time=30\n",
      "note_on channel=2 note=45 velocity=120 time=10\n",
      "note_on channel=2 note=45 velocity=0 time=8\n",
      "note_on channel=2 note=45 velocity=120 time=0\n",
      "note_on channel=2 note=45 velocity=0 time=12\n",
      "note_on channel=2 note=45 velocity=120 time=1\n",
      "note_on channel=2 note=45 velocity=0 time=67\n",
      "note_on channel=2 note=45 velocity=120 time=0\n",
      "note_on channel=2 note=45 velocity=0 time=10\n",
      "note_on channel=2 note=45 velocity=120 time=0\n",
      "note_on channel=2 note=45 velocity=0 time=12\n",
      "note_on channel=2 note=45 velocity=120 time=10\n",
      "note_on channel=2 note=45 velocity=0 time=8\n",
      "note_on channel=2 note=45 velocity=120 time=0\n",
      "note_on channel=2 note=45 velocity=0 time=12\n",
      "note_on channel=2 note=45 velocity=120 time=1\n",
      "note_on channel=2 note=45 velocity=0 time=30\n",
      "note_on channel=2 note=52 velocity=120 time=9\n",
      "note_on channel=2 note=52 velocity=0 time=111\n",
      "note_on channel=2 note=40 velocity=120 time=6\n",
      "note_on channel=2 note=40 velocity=0 time=114\n",
      "note_on channel=2 note=45 velocity=120 time=10\n",
      "note_on channel=2 note=45 velocity=0 time=7\n",
      "note_on channel=2 note=45 velocity=120 time=0\n",
      "note_on channel=2 note=45 velocity=0 time=13\n",
      "note_on channel=2 note=45 velocity=120 time=0\n",
      "note_on channel=2 note=45 velocity=0 time=69\n",
      "note_on channel=2 note=45 velocity=120 time=0\n",
      "note_on channel=2 note=45 velocity=0 time=8\n",
      "note_on channel=2 note=45 velocity=120 time=0\n",
      "note_on channel=2 note=45 velocity=0 time=12\n",
      "note_on channel=2 note=45 velocity=120 time=10\n",
      "note_on channel=2 note=45 velocity=0 time=8\n",
      "note_on channel=2 note=45 velocity=120 time=0\n",
      "note_on channel=2 note=45 velocity=0 time=12\n",
      "note_on channel=2 note=45 velocity=120 time=0\n",
      "note_on channel=2 note=45 velocity=0 time=68\n",
      "note_on channel=2 note=45 velocity=120 time=0\n",
      "note_on channel=2 note=45 velocity=0 time=10\n",
      "note_on channel=2 note=45 velocity=120 time=0\n",
      "note_on channel=2 note=45 velocity=0 time=12\n",
      "note_on channel=2 note=52 velocity=120 time=8\n",
      "note_on channel=2 note=52 velocity=0 time=51\n",
      "note_on channel=2 note=52 velocity=120 time=11\n",
      "note_on channel=2 note=52 velocity=0 time=111\n",
      "note_on channel=2 note=52 velocity=120 time=9\n",
      "note_on channel=2 note=52 velocity=0 time=51\n",
      "note_on channel=2 note=45 velocity=120 time=8\n",
      "note_on channel=2 note=45 velocity=0 time=9\n",
      "note_on channel=2 note=45 velocity=120 time=0\n",
      "note_on channel=2 note=45 velocity=0 time=12\n",
      "note_on channel=2 note=45 velocity=120 time=1\n",
      "note_on channel=2 note=45 velocity=0 time=30\n",
      "note_on channel=2 note=45 velocity=120 time=11\n",
      "note_on channel=2 note=45 velocity=0 time=6\n",
      "note_on channel=2 note=45 velocity=120 time=0\n",
      "note_on channel=2 note=45 velocity=0 time=12\n",
      "note_on channel=2 note=45 velocity=120 time=0\n",
      "note_on channel=2 note=45 velocity=0 time=68\n",
      "note_on channel=2 note=45 velocity=120 time=0\n",
      "note_on channel=2 note=45 velocity=0 time=10\n",
      "note_on channel=2 note=45 velocity=120 time=0\n",
      "note_on channel=2 note=45 velocity=0 time=13\n",
      "note_on channel=2 note=45 velocity=120 time=10\n",
      "note_on channel=2 note=45 velocity=0 time=7\n",
      "note_on channel=2 note=45 velocity=120 time=0\n",
      "note_on channel=2 note=45 velocity=0 time=12\n",
      "note_on channel=2 note=45 velocity=120 time=0\n",
      "note_on channel=2 note=45 velocity=0 time=31\n",
      "note_on channel=2 note=52 velocity=120 time=9\n",
      "note_on channel=2 note=52 velocity=0 time=111\n",
      "note_on channel=2 note=40 velocity=120 time=7\n",
      "note_on channel=2 note=40 velocity=0 time=113\n",
      "note_on channel=2 note=45 velocity=120 time=9\n",
      "note_on channel=2 note=45 velocity=0 time=8\n",
      "note_on channel=2 note=45 velocity=120 time=0\n",
      "note_on channel=2 note=45 velocity=0 time=12\n",
      "note_on channel=2 note=45 velocity=120 time=0\n",
      "note_on channel=2 note=45 velocity=0 time=68\n",
      "note_on channel=2 note=45 velocity=120 time=1\n",
      "note_on channel=2 note=45 velocity=0 time=9\n",
      "note_on channel=2 note=45 velocity=120 time=0\n",
      "note_on channel=2 note=45 velocity=0 time=13\n",
      "note_on channel=2 note=45 velocity=120 time=10\n",
      "note_on channel=2 note=45 velocity=0 time=7\n",
      "note_on channel=2 note=45 velocity=120 time=0\n",
      "note_on channel=2 note=45 velocity=0 time=12\n",
      "note_on channel=2 note=45 velocity=120 time=1\n",
      "note_on channel=2 note=45 velocity=0 time=67\n",
      "note_on channel=2 note=45 velocity=120 time=0\n",
      "note_on channel=2 note=45 velocity=0 time=10\n",
      "note_on channel=2 note=45 velocity=120 time=0\n",
      "note_on channel=2 note=45 velocity=0 time=13\n",
      "note_on channel=2 note=52 velocity=120 time=7\n",
      "note_on channel=2 note=52 velocity=0 time=53\n",
      "note_on channel=2 note=52 velocity=120 time=9\n",
      "note_on channel=2 note=52 velocity=0 time=111\n",
      "note_on channel=2 note=52 velocity=120 time=9\n",
      "note_on channel=2 note=52 velocity=0 time=50\n",
      "note_on channel=2 note=45 velocity=120 time=8\n",
      "note_on channel=2 note=45 velocity=0 time=10\n",
      "note_on channel=2 note=45 velocity=120 time=1\n",
      "note_on channel=2 note=45 velocity=0 time=11\n",
      "note_on channel=2 note=45 velocity=120 time=0\n",
      "note_on channel=2 note=45 velocity=0 time=30\n",
      "note_on channel=2 note=45 velocity=120 time=10\n",
      "note_on channel=2 note=45 velocity=0 time=8\n",
      "note_on channel=2 note=45 velocity=120 time=0\n",
      "note_on channel=2 note=45 velocity=0 time=12\n",
      "note_on channel=2 note=45 velocity=120 time=0\n",
      "note_on channel=2 note=45 velocity=0 time=68\n",
      "note_on channel=2 note=45 velocity=120 time=0\n",
      "note_on channel=2 note=45 velocity=0 time=10\n",
      "note_on channel=2 note=45 velocity=120 time=0\n",
      "note_on channel=2 note=45 velocity=0 time=12\n",
      "note_on channel=2 note=45 velocity=120 time=10\n",
      "note_on channel=2 note=45 velocity=0 time=8\n",
      "note_on channel=2 note=45 velocity=120 time=0\n",
      "note_on channel=2 note=45 velocity=0 time=13\n",
      "note_on channel=2 note=45 velocity=120 time=0\n",
      "note_on channel=2 note=45 velocity=0 time=30\n",
      "note_on channel=2 note=52 velocity=120 time=9\n",
      "note_on channel=2 note=52 velocity=0 time=111\n",
      "note_on channel=2 note=40 velocity=120 time=7\n",
      "note_on channel=2 note=40 velocity=0 time=113\n",
      "note_on channel=2 note=38 velocity=120 time=11\n",
      "note_on channel=2 note=38 velocity=0 time=6\n",
      "note_on channel=2 note=38 velocity=120 time=0\n",
      "note_on channel=2 note=38 velocity=0 time=12\n",
      "note_on channel=2 note=38 velocity=120 time=0\n",
      "note_on channel=2 note=38 velocity=0 time=68\n",
      "note_on channel=2 note=38 velocity=120 time=0\n",
      "note_on channel=2 note=38 velocity=0 time=10\n",
      "note_on channel=2 note=38 velocity=120 time=0\n",
      "note_on channel=2 note=38 velocity=0 time=13\n",
      "note_on channel=2 note=38 velocity=120 time=9\n",
      "note_on channel=2 note=38 velocity=0 time=8\n",
      "note_on channel=2 note=38 velocity=120 time=0\n",
      "note_on channel=2 note=38 velocity=0 time=12\n",
      "note_on channel=2 note=38 velocity=120 time=0\n",
      "note_on channel=2 note=38 velocity=0 time=68\n",
      "note_on channel=2 note=38 velocity=120 time=0\n",
      "note_on channel=2 note=38 velocity=0 time=9\n",
      "note_on channel=2 note=38 velocity=120 time=1\n",
      "note_on channel=2 note=38 velocity=0 time=13\n",
      "note_on channel=2 note=45 velocity=120 time=7\n",
      "note_on channel=2 note=45 velocity=0 time=9\n",
      "note_on channel=2 note=45 velocity=120 time=1\n",
      "note_on channel=2 note=45 velocity=0 time=12\n",
      "note_on channel=2 note=45 velocity=120 time=0\n",
      "note_on channel=2 note=45 velocity=0 time=30\n",
      "note_on channel=2 note=45 velocity=120 time=10\n",
      "note_on channel=2 note=45 velocity=0 time=8\n",
      "note_on channel=2 note=45 velocity=120 time=0\n",
      "note_on channel=2 note=45 velocity=0 time=12\n",
      "note_on channel=2 note=45 velocity=120 time=1\n",
      "note_on channel=2 note=45 velocity=0 time=67\n",
      "note_on channel=2 note=45 velocity=120 time=0\n",
      "note_on channel=2 note=45 velocity=0 time=10\n",
      "note_on channel=2 note=45 velocity=120 time=0\n",
      "note_on channel=2 note=45 velocity=0 time=12\n",
      "note_on channel=2 note=45 velocity=120 time=9\n",
      "note_on channel=2 note=45 velocity=0 time=9\n",
      "note_on channel=2 note=45 velocity=120 time=0\n",
      "note_on channel=2 note=45 velocity=0 time=13\n",
      "note_on channel=2 note=45 velocity=120 time=0\n",
      "note_on channel=2 note=45 velocity=0 time=30\n",
      "note_on channel=2 note=38 velocity=120 time=8\n",
      "note_on channel=2 note=38 velocity=0 time=9\n",
      "note_on channel=2 note=38 velocity=120 time=0\n",
      "note_on channel=2 note=38 velocity=0 time=13\n",
      "note_on channel=2 note=38 velocity=120 time=0\n",
      "note_on channel=2 note=38 velocity=0 time=30\n",
      "note_on channel=2 note=38 velocity=120 time=10\n",
      "note_on channel=2 note=38 velocity=0 time=7\n",
      "note_on channel=2 note=38 velocity=120 time=0\n",
      "note_on channel=2 note=38 velocity=0 time=13\n",
      "note_on channel=2 note=38 velocity=120 time=0\n",
      "note_on channel=2 note=38 velocity=0 time=67\n",
      "note_on channel=2 note=38 velocity=120 time=0\n",
      "note_on channel=2 note=38 velocity=0 time=11\n",
      "note_on channel=2 note=38 velocity=120 time=0\n",
      "note_on channel=2 note=38 velocity=0 time=11\n",
      "note_on channel=2 note=38 velocity=120 time=12\n",
      "note_on channel=2 note=38 velocity=0 time=6\n",
      "note_on channel=2 note=38 velocity=120 time=0\n",
      "note_on channel=2 note=38 velocity=0 time=12\n",
      "note_on channel=2 note=38 velocity=120 time=0\n",
      "note_on channel=2 note=38 velocity=0 time=31\n",
      "note_on channel=2 note=45 velocity=120 time=9\n",
      "note_on channel=2 note=45 velocity=0 time=8\n",
      "note_on channel=2 note=45 velocity=120 time=0\n",
      "note_on channel=2 note=45 velocity=0 time=12\n",
      "note_on channel=2 note=45 velocity=120 time=0\n",
      "note_on channel=2 note=45 velocity=0 time=68\n",
      "note_on channel=2 note=45 velocity=120 time=0\n",
      "note_on channel=2 note=45 velocity=0 time=9\n",
      "note_on channel=2 note=45 velocity=120 time=1\n",
      "note_on channel=2 note=45 velocity=0 time=13\n",
      "note_on channel=2 note=38 velocity=120 time=7\n",
      "note_on channel=2 note=38 velocity=0 time=9\n",
      "note_on channel=2 note=38 velocity=120 time=1\n",
      "note_on channel=2 note=38 velocity=0 time=12\n",
      "note_on channel=2 note=38 velocity=120 time=0\n",
      "note_on channel=2 note=38 velocity=0 time=68\n",
      "note_on channel=2 note=38 velocity=120 time=0\n",
      "note_on channel=2 note=38 velocity=0 time=10\n",
      "note_on channel=2 note=38 velocity=120 time=0\n",
      "note_on channel=2 note=38 velocity=0 time=13\n",
      "note_on channel=2 note=45 velocity=120 time=11\n",
      "note_on channel=2 note=45 velocity=0 time=6\n",
      "note_on channel=2 note=45 velocity=120 time=0\n",
      "note_on channel=2 note=45 velocity=0 time=13\n",
      "note_on channel=2 note=45 velocity=120 time=0\n",
      "note_on channel=2 note=45 velocity=0 time=66\n",
      "note_on channel=2 note=45 velocity=120 time=1\n",
      "note_on channel=2 note=45 velocity=0 time=10\n",
      "note_on channel=2 note=45 velocity=120 time=0\n",
      "note_on channel=2 note=45 velocity=0 time=13\n",
      "note_on channel=2 note=45 velocity=120 time=8\n",
      "note_on channel=2 note=45 velocity=0 time=9\n",
      "note_on channel=2 note=45 velocity=120 time=0\n",
      "note_on channel=2 note=45 velocity=0 time=12\n",
      "note_on channel=2 note=45 velocity=120 time=0\n",
      "note_on channel=2 note=45 velocity=0 time=68\n",
      "note_on channel=2 note=45 velocity=120 time=0\n",
      "note_on channel=2 note=45 velocity=0 time=10\n",
      "note_on channel=2 note=45 velocity=120 time=0\n",
      "note_on channel=2 note=45 velocity=0 time=13\n",
      "note_on channel=2 note=52 velocity=120 time=7\n",
      "note_on channel=2 note=52 velocity=0 time=52\n",
      "note_on channel=2 note=52 velocity=120 time=10\n",
      "note_on channel=2 note=52 velocity=0 time=110\n",
      "note_on channel=2 note=52 velocity=120 time=10\n",
      "note_on channel=2 note=52 velocity=0 time=50\n",
      "note_on channel=2 note=45 velocity=120 time=10\n",
      "note_on channel=2 note=45 velocity=0 time=7\n",
      "note_on channel=2 note=45 velocity=120 time=1\n",
      "note_on channel=2 note=45 velocity=0 time=12\n",
      "note_on channel=2 note=45 velocity=120 time=0\n",
      "note_on channel=2 note=45 velocity=0 time=31\n",
      "note_on channel=2 note=45 velocity=120 time=11\n",
      "note_on channel=2 note=45 velocity=0 time=5\n",
      "note_on channel=2 note=45 velocity=120 time=1\n",
      "note_on channel=2 note=45 velocity=0 time=12\n",
      "note_on channel=2 note=45 velocity=120 time=1\n",
      "note_on channel=2 note=45 velocity=0 time=67\n",
      "note_on channel=2 note=45 velocity=120 time=0\n",
      "note_on channel=2 note=45 velocity=0 time=10\n",
      "note_on channel=2 note=45 velocity=120 time=0\n",
      "note_on channel=2 note=45 velocity=0 time=12\n",
      "note_on channel=2 note=45 velocity=120 time=11\n",
      "note_on channel=2 note=45 velocity=0 time=7\n",
      "note_on channel=2 note=45 velocity=120 time=0\n",
      "note_on channel=2 note=45 velocity=0 time=13\n",
      "note_on channel=2 note=45 velocity=120 time=0\n",
      "note_on channel=2 note=45 velocity=0 time=30\n",
      "note_on channel=2 note=52 velocity=120 time=8\n",
      "note_on channel=2 note=52 velocity=0 time=112\n",
      "note_on channel=2 note=40 velocity=120 time=7\n",
      "note_on channel=2 note=40 velocity=0 time=112\n",
      "note_on channel=2 note=42 velocity=120 time=12\n",
      "note_on channel=2 note=42 velocity=0 time=109\n",
      "note_on channel=2 note=42 velocity=120 time=9\n",
      "note_on channel=2 note=42 velocity=0 time=110\n",
      "note_on channel=2 note=51 velocity=120 time=8\n",
      "note_on channel=2 note=51 velocity=0 time=52\n",
      "note_on channel=2 note=51 velocity=120 time=10\n",
      "note_on channel=2 note=51 velocity=0 time=111\n",
      "note_on channel=2 note=51 velocity=120 time=8\n",
      "note_on channel=2 note=51 velocity=0 time=52\n",
      "note_on channel=2 note=40 velocity=120 time=8\n",
      "note_on channel=2 note=40 velocity=0 time=51\n",
      "note_on channel=2 note=40 velocity=120 time=10\n",
      "note_on channel=2 note=40 velocity=0 time=110\n",
      "note_on channel=2 note=40 velocity=120 time=10\n",
      "note_on channel=2 note=40 velocity=0 time=51\n",
      "note_on channel=2 note=52 velocity=120 time=11\n",
      "note_on channel=2 note=52 velocity=0 time=109\n",
      "note_on channel=2 note=40 velocity=120 time=9\n",
      "note_on channel=2 note=40 velocity=0 time=111\n",
      "note_on channel=2 note=45 velocity=120 time=10\n",
      "note_on channel=2 note=45 velocity=0 time=7\n",
      "note_on channel=2 note=45 velocity=120 time=1\n",
      "note_on channel=2 note=45 velocity=0 time=11\n",
      "note_on channel=2 note=45 velocity=120 time=0\n",
      "note_on channel=2 note=45 velocity=0 time=68\n",
      "note_on channel=2 note=45 velocity=120 time=0\n",
      "note_on channel=2 note=45 velocity=0 time=10\n",
      "note_on channel=2 note=45 velocity=120 time=0\n",
      "note_on channel=2 note=45 velocity=0 time=13\n",
      "note_on channel=2 note=45 velocity=120 time=8\n",
      "note_on channel=2 note=45 velocity=0 time=9\n",
      "note_on channel=2 note=45 velocity=120 time=0\n",
      "note_on channel=2 note=45 velocity=0 time=13\n",
      "note_on channel=2 note=45 velocity=120 time=0\n",
      "note_on channel=2 note=45 velocity=0 time=67\n",
      "note_on channel=2 note=45 velocity=120 time=0\n",
      "note_on channel=2 note=45 velocity=0 time=10\n",
      "note_on channel=2 note=45 velocity=120 time=0\n",
      "note_on channel=2 note=45 velocity=0 time=12\n",
      "note_on channel=2 note=52 velocity=120 time=8\n",
      "note_on channel=2 note=52 velocity=0 time=52\n",
      "note_on channel=2 note=52 velocity=120 time=10\n",
      "note_on channel=2 note=52 velocity=0 time=111\n",
      "note_on channel=2 note=52 velocity=120 time=9\n",
      "note_on channel=2 note=52 velocity=0 time=51\n",
      "note_on channel=2 note=45 velocity=120 time=9\n",
      "note_on channel=2 note=45 velocity=0 time=10\n",
      "note_on channel=2 note=45 velocity=120 time=0\n",
      "note_on channel=2 note=45 velocity=0 time=11\n",
      "note_on channel=2 note=45 velocity=120 time=1\n",
      "note_on channel=2 note=45 velocity=0 time=28\n",
      "note_on channel=2 note=45 velocity=120 time=12\n",
      "note_on channel=2 note=45 velocity=0 time=6\n",
      "note_on channel=2 note=45 velocity=120 time=0\n",
      "note_on channel=2 note=45 velocity=0 time=14\n",
      "note_on channel=2 note=45 velocity=120 time=0\n",
      "note_on channel=2 note=45 velocity=0 time=66\n",
      "note_on channel=2 note=45 velocity=120 time=0\n",
      "note_on channel=2 note=45 velocity=0 time=12\n",
      "note_on channel=2 note=45 velocity=120 time=0\n",
      "note_on channel=2 note=45 velocity=0 time=11\n",
      "note_on channel=2 note=45 velocity=120 time=10\n",
      "note_on channel=2 note=45 velocity=0 time=7\n",
      "note_on channel=2 note=45 velocity=120 time=0\n",
      "note_on channel=2 note=45 velocity=0 time=15\n",
      "note_on channel=2 note=45 velocity=120 time=0\n",
      "note_on channel=2 note=45 velocity=0 time=28\n",
      "note_on channel=2 note=52 velocity=120 time=10\n",
      "note_on channel=2 note=52 velocity=0 time=109\n",
      "note_on channel=2 note=40 velocity=120 time=10\n",
      "note_on channel=2 note=40 velocity=0 time=111\n",
      "note_on channel=2 note=41 velocity=120 time=9\n",
      "note_on channel=2 note=41 velocity=0 time=111\n",
      "note_on channel=2 note=41 velocity=120 time=7\n",
      "note_on channel=2 note=41 velocity=0 time=112\n",
      "note_on channel=2 note=53 velocity=120 time=8\n",
      "note_on channel=2 note=53 velocity=0 time=52\n",
      "note_on channel=2 note=53 velocity=120 time=8\n",
      "note_on channel=2 note=53 velocity=0 time=113\n",
      "note_on channel=2 note=53 velocity=120 time=7\n",
      "note_on channel=2 note=53 velocity=0 time=52\n",
      "note_on channel=2 note=43 velocity=120 time=8\n",
      "note_on channel=2 note=43 velocity=0 time=52\n",
      "note_on channel=2 note=43 velocity=120 time=8\n",
      "note_on channel=2 note=43 velocity=0 time=112\n",
      "note_on channel=2 note=43 velocity=120 time=8\n",
      "note_on channel=2 note=43 velocity=0 time=52\n",
      "note_on channel=2 note=55 velocity=120 time=8\n",
      "note_on channel=2 note=55 velocity=0 time=113\n",
      "note_on channel=2 note=55 velocity=120 time=10\n",
      "note_on channel=2 note=55 velocity=0 time=110\n",
      "note_on channel=2 note=36 velocity=120 time=8\n",
      "note_on channel=2 note=36 velocity=0 time=111\n",
      "note_on channel=2 note=36 velocity=120 time=8\n",
      "note_on channel=2 note=36 velocity=0 time=112\n",
      "note_on channel=2 note=48 velocity=120 time=8\n",
      "note_on channel=2 note=48 velocity=0 time=52\n",
      "note_on channel=2 note=48 velocity=120 time=8\n",
      "note_on channel=2 note=48 velocity=0 time=112\n",
      "note_on channel=2 note=48 velocity=120 time=8\n",
      "note_on channel=2 note=48 velocity=0 time=52\n",
      "note_on channel=2 note=36 velocity=120 time=8\n",
      "note_on channel=2 note=36 velocity=0 time=53\n",
      "note_on channel=2 note=36 velocity=120 time=7\n",
      "note_on channel=2 note=36 velocity=0 time=112\n",
      "note_on channel=2 note=36 velocity=120 time=8\n",
      "note_on channel=2 note=36 velocity=0 time=52\n",
      "note_on channel=2 note=48 velocity=120 time=8\n",
      "note_on channel=2 note=48 velocity=0 time=112\n",
      "note_on channel=2 note=48 velocity=120 time=8\n",
      "note_on channel=2 note=48 velocity=0 time=112\n",
      "note_on channel=2 note=38 velocity=120 time=10\n",
      "note_on channel=2 note=38 velocity=0 time=8\n",
      "note_on channel=2 note=38 velocity=120 time=0\n",
      "note_on channel=2 note=38 velocity=0 time=11\n",
      "note_on channel=2 note=38 velocity=120 time=1\n",
      "note_on channel=2 note=38 velocity=0 time=70\n",
      "note_on channel=2 note=38 velocity=120 time=0\n",
      "note_on channel=2 note=38 velocity=0 time=8\n",
      "note_on channel=2 note=38 velocity=120 time=0\n",
      "note_on channel=2 note=38 velocity=0 time=12\n",
      "note_on channel=2 note=38 velocity=120 time=8\n",
      "note_on channel=2 note=38 velocity=0 time=10\n",
      "note_on channel=2 note=38 velocity=120 time=0\n",
      "note_on channel=2 note=38 velocity=0 time=12\n",
      "note_on channel=2 note=38 velocity=120 time=0\n",
      "note_on channel=2 note=38 velocity=0 time=68\n",
      "note_on channel=2 note=38 velocity=120 time=0\n",
      "note_on channel=2 note=38 velocity=0 time=10\n",
      "note_on channel=2 note=38 velocity=120 time=0\n",
      "note_on channel=2 note=38 velocity=0 time=13\n",
      "note_on channel=2 note=50 velocity=120 time=7\n",
      "note_on channel=2 note=50 velocity=0 time=53\n",
      "note_on channel=2 note=50 velocity=120 time=7\n",
      "note_on channel=2 note=50 velocity=0 time=112\n",
      "note_on channel=2 note=48 velocity=120 time=9\n",
      "note_on channel=2 note=48 velocity=0 time=51\n",
      "note_on channel=2 note=47 velocity=120 time=8\n",
      "note_on channel=2 note=47 velocity=0 time=52\n",
      "note_on channel=2 note=47 velocity=120 time=8\n",
      "note_on channel=2 note=47 velocity=0 time=112\n",
      "note_on channel=2 note=47 velocity=120 time=8\n",
      "note_on channel=2 note=47 velocity=0 time=52\n",
      "note_on channel=2 note=47 velocity=120 time=8\n",
      "note_on channel=2 note=47 velocity=0 time=113\n",
      "note_on channel=2 note=47 velocity=120 time=8\n",
      "note_on channel=2 note=47 velocity=0 time=111\n",
      "note_on channel=2 note=36 velocity=120 time=10\n",
      "note_on channel=2 note=36 velocity=0 time=110\n",
      "note_on channel=2 note=36 velocity=120 time=10\n",
      "note_on channel=2 note=36 velocity=0 time=110\n",
      "note_on channel=2 note=48 velocity=120 time=10\n",
      "note_on channel=2 note=48 velocity=0 time=50\n",
      "note_on channel=2 note=48 velocity=120 time=8\n",
      "note_on channel=2 note=48 velocity=0 time=112\n",
      "note_on channel=2 note=48 velocity=120 time=8\n",
      "note_on channel=2 note=48 velocity=0 time=52\n",
      "note_on channel=2 note=36 velocity=120 time=8\n",
      "note_on channel=2 note=36 velocity=0 time=53\n",
      "note_on channel=2 note=36 velocity=120 time=7\n",
      "note_on channel=2 note=36 velocity=0 time=112\n",
      "note_on channel=2 note=36 velocity=120 time=8\n",
      "note_on channel=2 note=36 velocity=0 time=52\n",
      "note_on channel=2 note=48 velocity=120 time=8\n",
      "note_on channel=2 note=48 velocity=0 time=112\n",
      "note_on channel=2 note=48 velocity=120 time=8\n",
      "note_on channel=2 note=48 velocity=0 time=112\n",
      "note_on channel=2 note=41 velocity=120 time=11\n",
      "note_on channel=2 note=41 velocity=0 time=109\n",
      "note_on channel=2 note=41 velocity=120 time=8\n",
      "note_on channel=2 note=41 velocity=0 time=113\n",
      "note_on channel=2 note=53 velocity=120 time=7\n",
      "note_on channel=2 note=53 velocity=0 time=52\n",
      "note_on channel=2 note=53 velocity=120 time=8\n",
      "note_on channel=2 note=53 velocity=0 time=112\n",
      "note_on channel=2 note=53 velocity=120 time=8\n",
      "note_on channel=2 note=53 velocity=0 time=52\n",
      "note_on channel=2 note=43 velocity=120 time=8\n",
      "note_on channel=2 note=43 velocity=0 time=51\n",
      "note_on channel=2 note=43 velocity=120 time=9\n",
      "note_on channel=2 note=43 velocity=0 time=112\n",
      "note_on channel=2 note=43 velocity=120 time=8\n",
      "note_on channel=2 note=43 velocity=0 time=53\n",
      "note_on channel=2 note=55 velocity=120 time=7\n",
      "note_on channel=2 note=55 velocity=0 time=113\n",
      "note_on channel=2 note=55 velocity=120 time=9\n",
      "note_on channel=2 note=55 velocity=0 time=110\n",
      "note_on channel=2 note=40 velocity=120 time=10\n",
      "note_on channel=2 note=40 velocity=0 time=110\n",
      "note_on channel=2 note=40 velocity=120 time=10\n",
      "note_on channel=2 note=40 velocity=0 time=111\n",
      "note_on channel=2 note=52 velocity=120 time=8\n",
      "note_on channel=2 note=52 velocity=0 time=52\n",
      "note_on channel=2 note=52 velocity=120 time=7\n",
      "note_on channel=2 note=52 velocity=0 time=112\n",
      "note_on channel=2 note=52 velocity=120 time=8\n",
      "note_on channel=2 note=52 velocity=0 time=53\n",
      "note_on channel=2 note=45 velocity=120 time=7\n",
      "note_on channel=2 note=45 velocity=0 time=10\n",
      "note_on channel=2 note=45 velocity=120 time=0\n",
      "note_on channel=2 note=45 velocity=0 time=12\n",
      "note_on channel=2 note=45 velocity=120 time=0\n",
      "note_on channel=2 note=45 velocity=0 time=31\n",
      "note_on channel=2 note=45 velocity=120 time=7\n",
      "note_on channel=2 note=45 velocity=0 time=10\n",
      "note_on channel=2 note=45 velocity=120 time=0\n",
      "note_on channel=2 note=45 velocity=0 time=11\n",
      "note_on channel=2 note=45 velocity=120 time=1\n",
      "note_on channel=2 note=45 velocity=0 time=68\n",
      "note_on channel=2 note=45 velocity=120 time=0\n",
      "note_on channel=2 note=45 velocity=0 time=10\n",
      "note_on channel=2 note=45 velocity=120 time=0\n",
      "note_on channel=2 note=45 velocity=0 time=12\n",
      "note_on channel=2 note=45 velocity=120 time=8\n",
      "note_on channel=2 note=45 velocity=0 time=10\n",
      "note_on channel=2 note=45 velocity=120 time=1\n",
      "note_on channel=2 note=45 velocity=0 time=10\n",
      "note_on channel=2 note=45 velocity=120 time=1\n",
      "note_on channel=2 note=45 velocity=0 time=30\n",
      "note_on channel=2 note=57 velocity=120 time=8\n",
      "note_on channel=2 note=57 velocity=0 time=30\n",
      "note_on channel=2 note=57 velocity=120 time=0\n",
      "note_on channel=2 note=57 velocity=0 time=52\n",
      "note_on channel=2 note=57 velocity=120 time=0\n",
      "note_on channel=2 note=57 velocity=0 time=29\n",
      "note_on channel=2 note=57 velocity=120 time=9\n",
      "note_on channel=2 note=57 velocity=0 time=30\n",
      "note_on channel=2 note=57 velocity=120 time=0\n",
      "note_on channel=2 note=57 velocity=0 time=52\n",
      "note_on channel=2 note=57 velocity=120 time=0\n",
      "note_on channel=2 note=57 velocity=0 time=30\n",
      "note_on channel=2 note=38 velocity=120 time=10\n",
      "note_on channel=2 note=38 velocity=0 time=8\n",
      "note_on channel=2 note=38 velocity=120 time=0\n",
      "note_on channel=2 note=38 velocity=0 time=12\n",
      "note_on channel=2 note=38 velocity=120 time=1\n",
      "note_on channel=2 note=38 velocity=0 time=68\n",
      "note_on channel=2 note=38 velocity=120 time=1\n",
      "note_on channel=2 note=38 velocity=0 time=8\n",
      "note_on channel=2 note=38 velocity=120 time=0\n",
      "note_on channel=2 note=38 velocity=0 time=12\n",
      "note_on channel=2 note=38 velocity=120 time=8\n",
      "note_on channel=2 note=38 velocity=0 time=10\n",
      "note_on channel=2 note=38 velocity=120 time=0\n",
      "note_on channel=2 note=38 velocity=0 time=13\n",
      "note_on channel=2 note=38 velocity=120 time=0\n",
      "note_on channel=2 note=38 velocity=0 time=67\n",
      "note_on channel=2 note=38 velocity=120 time=0\n",
      "note_on channel=2 note=38 velocity=0 time=10\n",
      "note_on channel=2 note=38 velocity=120 time=0\n",
      "note_on channel=2 note=38 velocity=0 time=12\n",
      "note_on channel=2 note=50 velocity=120 time=10\n",
      "note_on channel=2 note=50 velocity=0 time=50\n",
      "note_on channel=2 note=50 velocity=120 time=10\n",
      "note_on channel=2 note=50 velocity=0 time=111\n",
      "note_on channel=2 note=50 velocity=120 time=7\n",
      "note_on channel=2 note=50 velocity=0 time=52\n",
      "note_on channel=2 note=39 velocity=120 time=10\n",
      "note_on channel=2 note=39 velocity=0 time=50\n",
      "note_on channel=2 note=39 velocity=120 time=10\n",
      "note_on channel=2 note=39 velocity=0 time=111\n",
      "note_on channel=2 note=39 velocity=120 time=8\n",
      "note_on channel=2 note=39 velocity=0 time=52\n",
      "note_on channel=2 note=51 velocity=120 time=8\n",
      "note_on channel=2 note=51 velocity=0 time=111\n",
      "note_on channel=2 note=51 velocity=120 time=10\n",
      "note_on channel=2 note=51 velocity=0 time=110\n",
      "note_on channel=2 note=40 velocity=120 time=8\n",
      "note_on channel=2 note=40 velocity=0 time=112\n",
      "note_on channel=2 note=40 velocity=120 time=8\n",
      "note_on channel=2 note=40 velocity=0 time=112\n",
      "note_on channel=2 note=52 velocity=120 time=8\n",
      "note_on channel=2 note=52 velocity=0 time=52\n",
      "note_on channel=2 note=52 velocity=120 time=8\n",
      "note_on channel=2 note=52 velocity=0 time=113\n",
      "note_on channel=2 note=52 velocity=120 time=7\n",
      "note_on channel=2 note=52 velocity=0 time=52\n",
      "note_on channel=2 note=40 velocity=120 time=10\n",
      "note_on channel=2 note=40 velocity=0 time=50\n",
      "note_on channel=2 note=40 velocity=120 time=8\n",
      "note_on channel=2 note=40 velocity=0 time=112\n",
      "note_on channel=2 note=40 velocity=120 time=8\n",
      "note_on channel=2 note=40 velocity=0 time=51\n",
      "note_on channel=2 note=52 velocity=120 time=9\n",
      "note_on channel=2 note=52 velocity=0 time=0\n",
      "control_change channel=2 control=120 value=0 time=0\n",
      "control_change channel=2 control=121 value=0 time=0\n",
      "control_change channel=2 control=123 value=0 time=0\n",
      "control_change channel=2 control=124 value=0 time=1\n",
      "control_change channel=2 control=64 value=0 time=0\n",
      "<meta message end_of_track time=0>\n",
      "Track 3: \n",
      "<meta message set_tempo tempo=750000 time=0>\n",
      "control_change channel=3 control=7 value=0 time=0\n",
      "program_change channel=3 program=0 time=0\n",
      "control_change channel=3 control=120 value=0 time=0\n",
      "control_change channel=3 control=121 value=0 time=0\n",
      "control_change channel=3 control=123 value=0 time=0\n",
      "control_change channel=3 control=124 value=0 time=0\n",
      "control_change channel=3 control=64 value=0 time=0\n",
      "<meta message end_of_track time=0>\n"
     ]
    }
   ],
   "source": [
    "if msg.is_meta:\n",
    "    ...\n",
    "\n",
    "for i, track in enumerate(mid.tracks):\n",
    "    print('Track {}: {}'.format(i, track.name))\n",
    "    for msg in track:\n",
    "        print(msg)"
   ]
  },
  {
   "cell_type": "code",
   "execution_count": 7,
   "metadata": {},
   "outputs": [
    {
     "data": {
      "text/plain": [
       "[<midi track '' 840 messages>,\n",
       " <midi track '' 1487 messages>,\n",
       " <midi track '' 3095 messages>,\n",
       " <midi track '' 9 messages>]"
      ]
     },
     "execution_count": 7,
     "metadata": {},
     "output_type": "execute_result"
    }
   ],
   "source": [
    "mid.tracks"
   ]
  },
  {
   "cell_type": "code",
   "execution_count": null,
   "metadata": {},
   "outputs": [],
   "source": []
  }
 ],
 "metadata": {
  "kernelspec": {
   "display_name": "Python 3",
   "language": "python",
   "name": "python3"
  },
  "language_info": {
   "codemirror_mode": {
    "name": "ipython",
    "version": 3
   },
   "file_extension": ".py",
   "mimetype": "text/x-python",
   "name": "python",
   "nbconvert_exporter": "python",
   "pygments_lexer": "ipython3",
   "version": "3.7.3"
  }
 },
 "nbformat": 4,
 "nbformat_minor": 2
}
